<?xml version="1.0" encoding="UTF-8"?>
<!DOCTYPE svg  PUBLIC '-//W3C//DTD SVG 1.1//EN'  'http://www.w3.org/Graphics/SVG/1.1/DTD/svg11.dtd'>
<svg version="1.1" xmlns="http://www.w3.org/2000/svg">
<defs>
<font id="CaflischScriptPro-Regular" horiz-adv-x="373">
<font-face font-family="o" font-style="italic" font-weight="400" ascent="680" bbox="-170 -358 787 750" cap-height="479" descent="-320" panose-1="2 15 4 3 2 2 8 2 9 4" slope="-18" underline-position="-100" underline-thickness="50" unicode-range="U+0020-00FE" units-per-em="1000" x-height="336"/>
<missing-glyph/>
<glyph glyph-name="space" horiz-adv-x="198" unicode=" "/>
<glyph glyph-name="space" horiz-adv-x="198" unicode=" "/>
<glyph d="M236 453q14 0 22.5 -15t12.5 -29q4 -23 -10 -37q-8 -8 -14.5 -16t-17.5 -33q-11 -23 -26 -59t-38 -98q-6 -16 -14 -21t-13 -5q-7 0 -9.5 11.5t5.5 47.5q2 8 9 32t17.5 56.5t22.5 69.5t23 71q8 25 29 25h1zM111 74q9 0 15.5 -5.5t11 -13.5t7 -16.5t2.5 -14.5 q0 -17 -13 -29t-30 -12q-18 0 -27 16t-9 29q0 7 4 15.5t10 15t13.5 11t14.5 4.5h1z" glyph-name="exclam" horiz-adv-x="174" unicode="!"/>
<glyph d="M217 520q7 0 18 -7q5 -4 12.5 -11t5.5 -15q-2 -12 -12 -31.5t-22.5 -40t-25 -39t-19.5 -27.5q-10 -13 -17 -18t-12 -5t-6.5 3.5t-0.5 8.5q2 10 7 20q7 15 15.5 36t16.5 41t14 37t8 23q3 11 6 18t11 7h1zM336 517q13 0 16 -11.5t-5 -31.5q-25 -59 -43.5 -90t-27.5 -40 q-18 -18 -28 -18q-8 0 -6 14q2 8 13 33t21 56q8 28 13 43.5t7 21.5q3 11 15.5 17t23.5 6h1z" glyph-name="quotedbl" horiz-adv-x="216" unicode='"'/>
<glyph d="M230 193q-8 0 -13 -8q-12 -25 -19 -43q-8 -19 -7.5 -33t-1.5 -22q-3 -12 -9 -23l-7 -10.5t-12 -15.5t-14.5 -14t-13.5 -6t-11.5 11t-3.5 22q1 6 4 17.5t11 25.5q5 11 16 34t26 55q5 10 -5 10q-21 0 -38 -0.5t-22 -0.5t-10.5 1.5t-10.5 7.5q-10 15 3 27q7 9 34 9 q10 0 27 -1t37 -1q6 0 8.5 2t5.5 7q10 18 18 34.5t15 30.5q2 5 0.5 6.5t-5.5 1.5h-22t-19 -2q-13 -2 -14 -1.5t-8 -0.5q-7 0 -13 3.5t-10 8.5q-5 6 -4 14.5t7 13.5q12 12 24 10q15 -2 35 -2.5t43 0.5q10 0 15 10q16 34 26.5 57t21.5 46q6 12 18 12q11 0 17 -3t10 -7 q2 -3 3 -10t-9 -24q-12 -19 -23 -39t-19 -35q-5 -8 7 -9q17 0 33 -0.5t28 -0.5q8 0 14 11q19 36 27.5 55t11.5 27q4 8 7.5 13.5t11.5 10.5q6 5 10.5 6t7.5 1q8 0 12 -4t6 -8q2 -5 2.5 -12.5t-4.5 -12.5q-6 -9 -18.5 -31.5t-26.5 -45.5q-6 -11 5 -11h59q14 0 20.5 -10 t6.5 -16q0 -8 -13 -15t-24 -7q-2 0 -11 1t-20 1.5t-23 1.5t-20 1q-9 0 -13 -5q-5 -9 -12 -23t-21 -41q-6 -10 5 -10q23 1 41 1.5t26 0.5q13 0 22.5 -7.5t9.5 -16.5q-2 -12 -14 -17t-23 -5h-12h-21t-26 0.5t-27 0.5q-11 0 -14 -7q-4 -6 -9 -16.5t-10 -21.5q-11 -23 -15 -39 t-6 -27t-4.5 -23t-10.5 -26q-8 -12 -16.5 -19.5t-16.5 -7.5q-5 0 -8.5 4.5t-5.5 11.5t-2.5 14t1.5 13q4 11 11.5 29t15.5 34q4 9 13 28t21 44q3 6 2.5 8t-7.5 2h-64zM317 235q7 0 9 2t5 7q9 17 17 34t15 31q3 7 -6 7q-11 0 -28 0.5t-34 0.5q-10 0 -15 -9q-10 -20 -17 -34.5 t-13 -28.5q-4 -10 4 -10h63z" glyph-name="numbersign" horiz-adv-x="450" unicode="#"/>
<glyph d="M380 145q0 -25 -17.5 -46.5t-44 -37.5t-58 -26t-59.5 -13q-9 -1 -14 -12q-13 -32 -23 -57.5t-11 -37.5q1 -12 -3.5 -19.5t-15.5 -14.5q-5 -2 -10.5 -4.5t-12.5 -2.5q-10 0 -11.5 12t4.5 25q7 15 11.5 24t8 18t9 21t14.5 33q3 6 2.5 8.5t-8.5 2.5q-11 0 -24.5 2t-27 4.5 t-25 6.5t-18.5 9q-12 8 -15.5 16.5t-2.5 13.5q0 10 16 21q7 5 15 5.5t15 -6.5q14 -12 36.5 -20t50.5 -10q4 0 7 0.5t5 5.5q8 17 22 51.5t31 75.5q2 6 2 8t-5 4q-14 7 -28 15t-25 17.5t-18 22t-7 29.5q0 13 7.5 28.5t19.5 27.5q25 26 59 44t75 25l7.5 3t4.5 6q18 47 26 68 t10 25q5 14 11 17.5t11 3.5q10 0 17 -9q3 -3 6.5 -12.5t-3.5 -20.5t-13.5 -24.5t-20.5 -44.5q-2 -5 -1 -6.5t6 -1.5q12 -1 29.5 -4t24.5 -5q12 -4 17.5 -10.5t5.5 -12.5q-1 -8 -12.5 -16.5t-22.5 -8.5t-21 3q-8 2 -19.5 5.5t-19.5 4.5q-9 0 -13 -10q-10 -25 -24 -59.5 t-25 -60.5q-2 -5 -0.5 -6.5t6.5 -3.5q38 -16 62.5 -34.5t24.5 -53.5v-1zM201 300q0 -17 12.5 -26.5t27.5 -17.5q5 -2 7.5 -1t4.5 6q11 27 23.5 57.5t19.5 49.5q1 5 -6 4q-13 -3 -28.5 -9t-29 -15.5t-22.5 -21.5t-9 -25v-1zM326 135q0 14 -11 26t-43 24q-5 3 -7 2t-4 -4 q-11 -26 -24 -57.5t-23 -55.5q-3 -8 5 -6q12 2 30.5 7t35.5 14t29 21t12 28v1z" glyph-name="dollar" unicode="$"/>
<glyph d="M602 475q11 0 18.5 -7t9.5 -15q2 -7 -2 -13.5t-11 -10.5q-5 -3 -14 -9.5t-25 -21t-39.5 -38.5t-58.5 -60q-36 -38 -65.5 -69.5t-56 -60t-51.5 -56.5t-53 -59q-20 -21 -20 -45q0 -10 -9 -20.5t-21 -20.5q-14 -12 -22.5 -16.5t-13.5 -4.5t-9.5 6t-6.5 11q-7 15 2 29 q3 5 18 22.5t37.5 42.5l49.5 55t55.5 61t54.5 60t47 52q62 69 98 109t45 49q12 13 23 21.5t19 8.5h1zM287 472q18 0 33.5 -9.5t27 -24.5t18 -34t6.5 -37q0 -21 -6 -36t-13 -27q-10 -17 -29 -31t-41.5 -25t-45.5 -17t-41 -6q-30 0 -49 18t-19 52q0 15 6.5 32t16.5 33.5 t22.5 31t23.5 25.5q13 11 23.5 15.5t19.5 7.5q8 3 10 4.5t10 8.5q6 8 12 13.5t14 5.5h1zM289 415q-9 0 -23 -4t-29 -17q-31 -24 -44 -50t-13 -45q0 -13 9 -22t25 -9q17 0 36 7.5t35.5 20t27 29.5t10.5 37t-7 36.5t-26 16.5h-1zM554 233q18 0 37 -5t34 -14q23 -14 29 -31.5 t6 -31.5q0 -10 -6.5 -25t-16 -30t-21 -29t-21.5 -23q-29 -25 -60.5 -40t-49.5 -15q-8 0 -21 4t-25 14t-21 25.5t-9 38.5q0 21 12 49.5t40 60.5q26 30 52 41t40 11h1zM570 192q-16 0 -30 -6t-32 -22q-9 -9 -18.5 -20.5t-16.5 -23.5t-11.5 -23.5t-4.5 -18.5q0 -16 8 -28 t25 -12q14 0 32 6.5t36 23.5q24 20 37.5 44t13.5 38q0 12 -12 27t-26 15h-1z" glyph-name="percent" horiz-adv-x="653" unicode="%"/>
<glyph d="M378 464q11 0 18 -4.5t11 -9.5q8 -9 2 -22q-6 -10 0 -19q5 -5 9.5 -17t4.5 -23q0 -18 -9 -34.5t-24 -31.5t-34.5 -29t-39.5 -27q-6 -4 -6.5 -7t0.5 -6q5 -10 12.5 -24t16.5 -29t18.5 -30.5t18.5 -27.5q6 -7 14 -3q40 29 56 49.5t21 31.5q5 10 3 16.5t-5 11.5q-4 5 -2 12 t11 23q8 13 16.5 23.5t17.5 10.5t21.5 -11t12.5 -26q0 -13 -6.5 -28.5t-15 -30.5t-18 -27.5t-15.5 -19.5q-8 -8 -29 -28t-43 -37q-6 -3 -1 -10q20 -21 44.5 -34.5t51.5 -13.5q30 0 53 17.5t40 45.5q4 8 10.5 7t6.5 -9t-5 -19q-7 -19 -20 -35t-30 -28t-36.5 -18.5t-40.5 -6.5 q-35 0 -66.5 19.5t-54.5 44.5q-7 6 -14 1q-37 -25 -80 -44t-86 -19q-20 0 -37.5 8t-30 21.5t-20 31t-7.5 36.5q0 13 4 28t12 26q9 16 25 31.5t34 29t36.5 25.5t33.5 22q5 4 5.5 6.5t-1.5 7.5q-9 27 -9 53q1 42 23 74t50 51q19 14 40 19.5t32 5.5h1zM347 411q-11 0 -22.5 -7 t-21 -18.5t-15.5 -26t-6 -30.5q0 -11 1 -21.5t6 -21.5q2 -7 12 -1t22.5 15t23.5 19.5t18.5 22.5t7.5 25q1 14 -3.5 29t-21.5 15h-1zM219 36q22 0 52 14t57 31q8 5 2 14q-7 10 -16 24t-18.5 29t-18 29.5t-14.5 25.5q-3 7 -11 2q-12 -8 -29.5 -19.5t-34 -26.5t-28 -32.5 t-11.5 -36.5q0 -23 19 -38.5t50 -15.5h1z" glyph-name="ampersand" horiz-adv-x="600" unicode="&amp;"/>
<glyph d="M217 520q5 0 9 -2t9 -5q5 -4 12.5 -11t5.5 -15q-2 -12 -12 -31.5t-22.5 -40t-25 -39t-19.5 -27.5q-10 -13 -17 -18t-12 -5t-6.5 3.5t-0.5 8.5q2 10 7 20q7 15 15.5 36t16.5 41t14 37t8 23q3 11 6 18t11 7h1z" glyph-name="quotesingle" horiz-adv-x="116" unicode="'"/>
<glyph d="M91 59q0 30 5.5 63t14 63.5t18 56.5t18.5 41q15 29 36.5 59t45.5 57.5t48.5 50.5t46.5 38q47 31 67 31q16 0 26 -15q11 -16 -15 -28q-77 -35 -127 -88t-91 -130q-10 -20 -17.5 -44.5t-13 -51.5t-8 -53.5t-2.5 -48.5q0 -51 13 -94t44 -81q14 -17 22 -28t8 -19t-9.5 -12.5 t-16.5 -4.5q-10 0 -32 15q-19 15 -34 41t-25.5 57t-16 63t-5.5 61v1z" glyph-name="parenleft" horiz-adv-x="319" unicode="("/>
<glyph d="M237 521q9 0 23 -6.5t29 -24t30 -47t27 -74.5q8 -38 8 -83q0 -54 -15 -109t-40.5 -105.5t-60 -95t-74.5 -77.5q-27 -24 -47 -37.5t-33.5 -21t-21.5 -9.5t-13 -2q-4 0 -9.5 2t-11.5 7q-13 12 2 30q8 9 13 13t11 3q13 0 37 14q45 28 79.5 65t64.5 84q35 56 52.5 114 t17.5 117q0 27 -4 54.5t-11 51.5t-17.5 43.5t-23.5 31.5q-8 6 -16 9t-15 4q-16 1 -19 13q-2 6 1 12t8 11q6 5 13.5 9t14.5 4h1z" glyph-name="parenright" horiz-adv-x="329" unicode=")"/>
<glyph d="M309 483q6 0 13 -4t9 -11q4 -13 -4 -29q-6 -13 -11.5 -27t-10.5 -28q-3 -8 -2 -10t9 0q6 1 15 3l18 4t16.5 4t10.5 3l12 6t10 3q6 -1 14.5 -6t8.5 -16q0 -8 -8 -14t-16 -8q-5 -2 -20 -4.5t-44 -6.5q-10 -2 -10 -3q-1 -4 11 -16q3 -3 9.5 -9l13 -12t12.5 -12l9 -9 q11 -12 11 -22q0 -6 -4.5 -12.5t-10.5 -9.5q-14 -7 -20 5q-9 16 -26 34.5t-28 31.5q-9 11 -14 8q-3 -2 -9 -20q-5 -16 -10 -34t-10 -37q-2 -11 -5.5 -13.5t-7.5 -2.5q-8 0 -17 11q-5 8 -6.5 17t3.5 23q5 13 12 30t9 25q4 12 -8 9q-32 -5 -51 -11.5t-33 -13.5 q-5 -2 -11.5 -0.5t-10.5 6.5q-6 7 -6 16q1 5 7.5 12.5t12.5 9.5q4 1 25.5 4t59.5 10q8 1 9 3.5t-4 8.5t-13.5 13.5t-17.5 14.5t-16 12.5t-9 7.5q-5 6 -6.5 9.5t-0.5 7.5q1 9 8.5 13.5t12.5 4.5q9 0 21 -13q3 -3 10 -9.5t14 -14t14 -14.5l10 -10q5 -5 7 -4t4 8q3 14 7 32 t6 26q3 14 11.5 22t14.5 8h1z" glyph-name="asterisk" horiz-adv-x="348" unicode="*"/>
<glyph d="M330 253q0 20 1 48.5t2 51.5q1 13 10 16.5t13 3.5q12 0 24 -14q6 -6 7 -14t-1 -19q-2 -9 -4.5 -39t-3.5 -62q0 -8 1.5 -12t8.5 -4q8 0 30 0.5t46 0.5t43.5 0.5t24.5 0.5q16 0 22.5 -12t6.5 -22q0 -8 -8.5 -11.5t-20.5 -3.5q-26 0 -66.5 1t-79.5 1q-5 0 -8 -5t-3 -19 q0 -48 1.5 -80t3.5 -46q3 -12 -2.5 -19.5t-19.5 -7.5q-10 0 -22.5 7.5t-12.5 21.5q0 3 1 15t1.5 28t1.5 34t1 33v21q0 11 -2.5 14t-13.5 3q-30 0 -64.5 -0.5t-63.5 -0.5q-11 0 -19 7t-8 14q0 9 6.5 15t12.5 9q7 2 23 3t33 0h21.5t25 -0.5t23 -0.5h15.5q8 0 10.5 3t2.5 13v27 z" glyph-name="plus" horiz-adv-x="552" unicode="+"/>
<glyph d="M107 114q17 0 28 -14.5t12 -40.5q0 -28 -12 -55t-31 -50.5t-43.5 -43.5t-48.5 -34q-14 -9 -22 -12.5t-12 -3.5q-6 0 -6 8q0 5 2.5 8.5t10.5 9.5q18 14 36 32.5t32 38.5t22.5 40t8.5 38q0 11 -3.5 19.5t-7.5 15.5q-8 6 -1 19q4 9 13.5 17t20.5 8h1z" glyph-name="comma" horiz-adv-x="151" unicode=","/>
<glyph d="M286 205q0 -10 -12 -24t-32 -19q-34 -10 -72 -20t-68 -19q-12 -3 -17 3q-5 7 5 22q14 24 55 36q6 2 24 7t38.5 10.5t39 9.5t26.5 4q13 0 13 -9v-1z" glyph-name="hyphen" horiz-adv-x="262" unicode="-"/>
<glyph d="M100 77q15 0 28 -14.5t13 -26.5q0 -8 -5.5 -16.5t-14.5 -15.5t-19.5 -11t-20.5 -4q-11 0 -21 11t-10 23q0 8 4.5 17.5t11.5 17.5t15.5 13.5t17.5 5.5h1z" glyph-name="period" horiz-adv-x="151" unicode="."/>
<glyph d="M432 481q17 0 22 -17q4 -19 -15 -43q-63 -78 -128.5 -168t-140.5 -201q-21 -31 -34 -51t-20.5 -32.5t-10 -20t-1.5 -13.5q1 -8 -4 -15.5t-12.5 -12.5t-16 -8t-15.5 -3q-16 0 -23 12q-9 14 -4 30q2 5 7 12.5t10 11.5q3 2 8.5 7t17.5 19t31.5 41t50.5 74q32 49 66 98.5 t65 92.5t55.5 76.5t38.5 51.5q12 18 15.5 26.5t7.5 16.5t13 12t16 4h1z" glyph-name="slash" horiz-adv-x="363" unicode="/"/>
<glyph d="M430 330q0 -17 -5.5 -41t-14.5 -50t-20.5 -52t-23.5 -46q-13 -22 -29.5 -42t-34 -37t-34.5 -30.5t-30 -21.5q-17 -11 -38 -17t-35 -6q-17 0 -31.5 8t-29.5 26q-14 18 -20 41.5t-6 40.5q0 30 10.5 67t27.5 73.5t39 70t46 57.5q16 16 33 30.5t33 25.5t30 18t23 7 q5 0 9 -2.5t7 -5.5q4 -3 18 -3q17 0 31 -9.5t24 -25t15.5 -35t5.5 -40.5v-1zM373 329q0 10 -2 23.5t-6.5 24.5t-13 19t-21.5 8q-10 0 -14 -9q-3 -7 -8 -13t-18 -7q-14 -1 -27.5 -8.5t-33.5 -29.5q-15 -16 -31 -41.5t-29.5 -56t-22 -63t-8.5 -62.5q0 -23 5 -38t11.5 -24 t14 -12.5t12.5 -3.5q14 0 28 6.5t31 21.5q9 8 22 22t27 32t26.5 38.5t21.5 40.5q16 37 26 72.5t10 58.5v1z" glyph-name="zero" unicode="0"/>
<glyph d="M378 458q10 0 15 -10t7 -21q2 -8 -2 -14t-9 -11q-14 -12 -21 -25t-18 -36q-12 -27 -35 -88t-53 -140q-6 -14 -6.5 -26.5t2.5 -22.5q8 -22 8 -32q0 -6 -6 -15t-14 -17t-16.5 -14t-14.5 -6q-7 0 -16 8t-8 30q2 12 5.5 28t8.5 33q19 63 40 123.5t42 120.5q7 19 1 22 q-6 1 -26 -7q-13 -4 -30.5 -8.5t-29.5 -6.5q-9 -2 -18.5 -1.5t-18 2t-14 4.5t-5.5 8q0 6 16 11q20 8 60 21.5t80 35.5q8 4 12 8t7 8q2 3 5.5 6.5l8.5 8.5q8 8 20.5 15.5t21.5 7.5h1z" glyph-name="one" unicode="1"/>
<glyph d="M308 451q38 0 63.5 -23.5t23.5 -64.5q0 -19 -7 -36.5t-16.5 -32.5t-21 -28.5t-21.5 -23.5q-6 -6 -26.5 -25.5t-43.5 -41.5t-44 -41.5t-28 -26.5q-17 -15 -27.5 -27.5t-11.5 -17.5q0 -5 6 -7.5t23 -4.5q9 -1 21 -1.5t25 -0.5h24.5h18.5q35 0 62 6t38 6q21 0 14 -22 q-5 -9 -19 -22t-25 -19q-8 -5 -16.5 -4.5t-17.5 3.5q-7 2 -25 5.5t-63 3.5q-50 0 -78.5 0.5t-42.5 0.5q-14 -2 -22.5 -4.5t-15.5 -4.5q-11 -3 -20 4q-4 4 -6.5 11t-1.5 13q3 15 20 24q3 1 7.5 3.5t13 8.5t21 16.5t31.5 28.5q27 24 48.5 44t42 40t41 41t44.5 48 q25 26 33.5 44t8.5 35q0 24 -16.5 34t-35.5 10q-14 0 -30 -8.5t-31.5 -21.5t-28.5 -27t-20 -25q-5 -7 -14.5 -8.5t-17.5 3.5q-15 10 -15 23q0 11 10 22.5t24 22t29.5 20t26.5 15.5q29 17 53 25t35 8h1z" glyph-name="two" unicode="2"/>
<glyph d="M271 454q30 0 54.5 -12t36.5 -23q11 -11 16.5 -25.5t5.5 -24.5q0 -17 -8 -31.5t-22 -29.5q-6 -6 -15.5 -13.5t-20.5 -15t-21 -14t-17 -10.5q-9 -4 -10.5 -8.5t6.5 -7.5q18 -7 35 -15t30.5 -19.5t21.5 -26.5t8 -36q0 -17 -10.5 -39t-28.5 -41q-35 -35 -86.5 -57 t-109.5 -27q-6 -1 -12 -1h-13q-8 0 -19.5 4t-23 10.5t-19.5 15.5t-8 19q0 14 17 22.5t29 7.5q17 -2 28.5 -6.5t25.5 -15.5q8 -7 17 -7q16 0 33.5 4.5t34.5 11.5t31.5 15.5t24.5 17.5q14 13 24 27.5t10 27.5q0 17 -12 32.5t-33 26.5t-43 13t-42 3q-12 0 -25 6t-13 17 q0 10 10 18.5t23 8.5q7 0 19.5 4t28 11t31.5 16.5t29 21.5q23 18 29.5 30t6.5 20q0 26 -22 39t-53 13q-18 0 -25.5 -6t-14.5 -20q-3 -10 -13 -20t-18 -10q-9 0 -18 9.5t-9 18.5q0 10 5 20.5t12.5 19t17 14t17.5 6.5q5 0 11.5 1.5t14.5 3.5q11 2 20.5 4t19.5 2h1z" glyph-name="three" unicode="3"/>
<glyph d="M388 460q8 0 13.5 -6.5t8.5 -15.5t4 -18.5t0 -14.5q0 -8 -3.5 -13t-7.5 -7q-6 -4 -10 -10.5t-9 -15.5q-7 -15 -15 -35t-16 -41.5t-15.5 -42.5t-13.5 -37q-4 -12 4 -11q27 1 47 10q17 6 29 2q9 -2 15 -8.5t6 -11.5q0 -13 -19 -29q-8 -7 -14 -6.5t-14 2.5q-8 3 -12.5 4 t-10.5 0q-8 -1 -16.5 -2t-16.5 -2q-19 -3 -24 -14q-2 -5 -5.5 -14t-11.5 -31q-8 -20 -5 -25.5t9 -6.5q6 0 9 -4t1 -11q-2 -9 -8.5 -18t-11.5 -16q-7 -9 -10 -22q-1 -6 -5.5 -15t-11 -17t-13.5 -13.5t-14 -5.5q-6 0 -9.5 5t-5.5 12q-4 24 7 67q4 17 7 26.5t6 19.5t8.5 24.5 t14.5 40.5q3 7 2 9.5t-9 2.5h-26q-51 0 -83.5 6.5t-43.5 13.5q-20 11 -20 30q0 14 21 37t54 48q12 10 36 27.5t51.5 37t54.5 37.5t46 27q12 6 17 10.5t7 10.5q3 11 12 20.5t19 9.5h1zM258 188q9 0 14 15q6 16 13.5 35t14.5 37.5t13 35l10 27.5q6 14 3 16t-14 -4 q-12 -6 -31 -19t-39.5 -28t-38.5 -28.5t-27 -20.5q-20 -16 -31 -29t-4 -22q5 -5 24.5 -10.5t54.5 -5.5z" glyph-name="four" unicode="4"/>
<glyph d="M335 427q22 0 38.5 2t33.5 8q14 4 27 10t22 6q10 0 10 -8q0 -6 -9 -16t-23 -21q-28 -20 -61.5 -24.5t-81.5 -4.5q-15 0 -22 -4.5t-17 -21.5q-13 -23 -22 -43.5t-9 -33.5t12 -22.5t41 -20.5q19 -8 35 -16.5t27.5 -20t18 -27.5t6.5 -38q0 -20 -9.5 -41t-24.5 -39.5 t-33.5 -34t-35.5 -24.5q-23 -13 -48.5 -20.5t-43.5 -7.5q-11 0 -24.5 3t-21.5 8q-11 6 -22 10q-20 11 -33 25.5t-13 29.5q0 25 26 25q20 0 37 -12q10 -8 16.5 -17.5t12.5 -17.5q9 -10 30 -10t44 9.5t42.5 25.5t32 36.5t12.5 43.5q0 19 -8.5 30.5t-19.5 19.5q-6 4 -16.5 9.5 t-22.5 11t-23.5 9.5t-20.5 7q-17 5 -21.5 9.5t-6.5 12.5q-2 6 -2.5 11.5t2.5 15.5q2 8 7.5 22t12 29t12.5 28.5t9 20.5q7 14 11 28t6 29q2 9 10.5 17t16.5 13q12 5 22 -3q9 -7 22.5 -11.5t38.5 -4.5h1z" glyph-name="five" unicode="5"/>
<glyph d="M408 467q13 0 26 -4t21 -11q12 -10 12 -23q0 -8 -9.5 -16.5t-24.5 -13.5q-16 -5 -27 7q-14 16 -35 16q-7 0 -22.5 -4t-35.5 -14t-43.5 -26t-46.5 -41q-39 -41 -58 -81.5t-21 -63.5q-3 -17 9 -7q35 26 64.5 42t58.5 16q26 0 47.5 -11t35.5 -29q12 -14 18 -30t6 -30 q0 -16 -6.5 -32t-16 -31t-21.5 -28t-23 -22q-9 -8 -22.5 -15t-27.5 -12.5t-27.5 -9t-22.5 -3.5q-29 0 -56 12.5t-49 40.5q-20 26 -25 53.5t-5 47.5q0 19 5 44.5t15.5 53t27.5 55.5t40 53q22 24 50 45t59 37t64 25.5t65 9.5h1zM266 196q-8 0 -21.5 -3.5t-30.5 -13.5 q-21 -12 -39 -28t-24 -24q-6 -10 -7.5 -17.5t3.5 -18.5q11 -26 29 -40.5t44 -14.5q13 0 31.5 8.5t34.5 22.5t27.5 32.5t11.5 39.5q0 18 -14.5 37.5t-43.5 19.5h-1z" glyph-name="six" unicode="6"/>
<glyph d="M444 445q14 0 22 -5.5t12 -13.5q6 -16 -8 -38q-14 -24 -35.5 -52.5t-45.5 -57.5t-47.5 -56t-42.5 -47q-19 -21 -38.5 -42t-36 -39.5t-29 -32.5t-16.5 -20q-13 -17 -10.5 -28.5t2.5 -19.5q0 -7 -5.5 -14.5t-14 -13.5t-18 -10t-16.5 -4q-9 0 -20.5 10t-11.5 29 q0 12 6.5 21.5t16.5 17.5q9 7 13.5 11t7.5 7q4 5 10.5 14t20.5 24q36 39 70 78.5t62 73.5t47.5 59t25.5 34q13 17 23 33.5t10 24.5q0 10 -25 11q-11 1 -25 1h-28h-26.5h-19.5q-17 0 -26.5 -4t-13.5 -10q-8 -11 -23 -11q-10 0 -22 3.5t-22.5 9t-17.5 12.5t-7 14q0 11 15 23 t31 12q8 0 17.5 -1t18.5 -3q8 -2 14.5 -2t27.5 -1h34t54 1t54.5 1.5t34.5 0.5h1z" glyph-name="seven" unicode="7"/>
<glyph d="M319 467q11 0 28 -12q14 -11 28.5 -22.5t26.5 -26t19.5 -31t7.5 -37.5q-1 -19 -14 -36.5t-32 -33.5t-39 -29t-34 -22q-13 -9 -3 -17q26 -23 36.5 -45t9.5 -39q-1 -20 -10.5 -37.5t-23 -32t-29.5 -25.5t-29 -17q-15 -8 -40 -14t-45 -6q-16 0 -34.5 8.5t-34 22t-25.5 31.5 t-9 36q1 21 12 38t28 32t37.5 28t40.5 26q13 7 0 17q-23 21 -31.5 40t-8.5 34q0 22 12.5 42.5t31 37t39.5 29.5t37 21q14 5 11 11q-2 5 2 10.5t8 8.5q6 5 12 7.5t14 2.5h1zM205 305q0 -9 7.5 -23t32.5 -34q13 -11 23 -7q12 5 30 15.5t35 23.5t29 27.5t12 28.5 q0 17 -14.5 36.5t-30.5 27.5q-9 7 -30 -3q-15 -6 -32 -16.5t-30.5 -23t-22.5 -26t-9 -25.5v-1zM195 28q14 0 32 6t33.5 16.5t26 25t10.5 30.5q0 15 -6 28t-17 24q-28 28 -35 28q-4 0 -17 -7t-29 -18q-27 -19 -44.5 -38.5t-17.5 -39.5q0 -24 20 -39.5t43 -15.5h1z" glyph-name="eight" unicode="8"/>
<glyph d="M416 332q0 -32 -7.5 -68t-18.5 -64q-16 -38 -41.5 -71t-57 -60.5t-67 -49t-71.5 -34.5q-9 -3 -13 -6t-9 -7q-10 -9 -23.5 -15.5t-28.5 -6.5q-11 0 -21 10.5t-10 17.5q0 14 13 24.5t24 14.5q8 4 22 4q10 -1 24 2q39 9 76.5 34t68.5 57t50.5 67.5t22.5 65.5q0 13 -15 1 q-11 -9 -27 -19t-34 -18.5t-36.5 -14.5t-34.5 -6q-32 0 -56.5 20t-24.5 62q0 14 7 37t27 48q29 37 65.5 60.5t85.5 23.5q11 0 13 6q1 5 6 7t11 2q10 0 24 -8t26.5 -24t21 -38.5t8.5 -52.5v-1zM359 360q0 14 -6.5 22t-10.5 8q-3 0 -7 0.5t-7 2.5q-8 7 -25 7q-13 0 -36 -8 t-40 -22q-20 -19 -33 -40.5t-13 -47.5q0 -20 9.5 -32.5t23.5 -12.5q10 0 31.5 6t47.5 22q25 16 40.5 31.5t19.5 23.5q4 7 5 16t1 23v1z" glyph-name="nine" unicode="9"/>
<glyph d="M163 284q16 0 28.5 -14.5t12.5 -26.5q0 -10 -5.5 -18.5t-14 -15t-18 -10.5t-17.5 -4q-11 0 -22.5 9.5t-11.5 23.5q0 19 13.5 37.5t33.5 18.5h1zM100 77q15 0 28 -14.5t13 -26.5q0 -8 -5.5 -16.5t-14.5 -15.5t-19.5 -11t-20.5 -4q-11 0 -21 11t-10 23q0 8 4.5 17.5 t11.5 17.5t15.5 13.5t17.5 5.5h1z" glyph-name="colon" horiz-adv-x="151" unicode=":"/>
<glyph d="M163 284q15 0 28 -14.5t13 -26.5q0 -10 -5.5 -18.5t-14 -15t-18.5 -10.5t-18 -4q-11 0 -22.5 9.5t-11.5 23.5q0 19 14 37.5t34 18.5h1zM107 114q17 0 28 -14.5t12 -40.5q0 -28 -12 -55t-31 -50.5t-43.5 -43.5t-48.5 -34q-14 -9 -22 -12.5t-12 -3.5q-6 0 -6 8q0 5 2.5 8.5 t10.5 9.5q18 14 36 32.5t32 38.5t22.5 40t8.5 38q0 11 -3.5 19.5t-7.5 15.5q-8 6 -1 19q4 9 13.5 17t20.5 8h1z" glyph-name="semicolon" horiz-adv-x="151" unicode=";"/>
<glyph d="M150 158q0 8 10.5 16t21.5 12q8 3 28 13.5t45.5 25t53.5 31t53 31.5t44 26t27 16q13 8 20.5 10t12.5 2q8 0 12.5 -6.5t3.5 -18.5q-1 -8 -7 -17t-19 -16q-48 -21 -93.5 -45t-93.5 -50q-26 -15 -26 -22q-1 -6 8 -12.5t21 -12.5q73 -38 109 -59t50 -31q25 -17 20 -31 q-2 -6 -10 -11.5t-16 -8.5q-7 -3 -11 -2t-10 6q-21 18 -51 37t-62.5 37t-64.5 33t-56 23q-8 2 -14 9t-6 14v1z" glyph-name="less" horiz-adv-x="496" unicode="&lt;"/>
<glyph d="M217 281q9 0 39.5 -1.5t72.5 -3.5q38 -2 68.5 -2.5t55.5 -1.5q33 -2 49 5q15 3 26 -6q11 -11 11 -23t-15.5 -17t-31.5 -5q-18 0 -40.5 0.5t-65.5 1.5q-48 1 -85.5 2.5t-53.5 1.5q-18 0 -28.5 -1.5t-18.5 -3.5q-13 -2 -23 11q-4 5 -6.5 10.5t-2.5 10.5q0 11 14 17 q9 5 34 5h1zM415 130q58 0 82 6q11 3 20 -1t17 -12t7.5 -17t-9.5 -13q-8 -5 -20.5 -7t-34.5 -2q-46 0 -90.5 1t-78.5 3q-35 2 -58 2h-35q-10 0 -16 -2.5t-9 -4.5q-8 -7 -20 1q-17 15 -17 32q0 15 22 20q17 4 81 1q36 -2 79.5 -4.5t78.5 -2.5h1z" glyph-name="equal" horiz-adv-x="552" unicode="="/>
<glyph d="M468 177q0 -6 -6.5 -16t-20.5 -21q-9 -7 -34 -21.5t-59.5 -33.5t-76.5 -39.5t-84 -39.5q-18 -8 -27 -10.5t-14 -2.5q-8 0 -18 5t-9 13q0 10 13.5 21t27.5 17q19 7 49 19.5t62.5 27.5t62 30t46.5 26q17 10 17 17q0 8 -22 21q-21 13 -45.5 28t-50 28.5t-51 25t-49.5 19.5 q-17 7 -17 17q0 4 5.5 9t13 9.5t15 8t11.5 3.5q11 0 21.5 -6t24.5 -16q7 -5 27 -17t44 -26t47 -27t36 -20q23 -11 31 -15l16 -8q14 -7 14 -25v-1z" glyph-name="greater" horiz-adv-x="496" unicode="&gt;"/>
<glyph d="M272 458q13 0 29.5 -4.5t30 -12.5t23 -20t9.5 -27q0 -20 -17.5 -40t-38.5 -35q-9 -6 -25.5 -16t-34 -20.5l-32.5 -19.5t-21 -12q-27 -17 -27 -33q-1 -10 3 -18.5t9.5 -14.5t12 -9t10.5 -3q5 0 19 10q8 6 18.5 12t20.5 6t19 -7t9 -15q0 -6 -6.5 -13t-15.5 -13t-19 -10.5 t-16 -5.5q-10 -2 -17.5 -3t-18.5 1q-17 2 -36 10.5t-33 26.5q-12 15 -15.5 25.5t-3.5 19.5q0 14 15.5 34.5t35.5 34.5q9 6 24 15t31.5 18t32.5 18t27 15q19 10 26.5 19t7.5 19q0 12 -11 18.5t-20 6.5q-10 0 -19 -11q-5 -5 -10 -8.5t-14 -3.5q-6 0 -16 1.5t-19 5t-16 8.5 t-7 12q0 10 13 18t25 11q11 3 28.5 6.5t28.5 3.5h1zM149 -16q-11 0 -24.5 13t-13.5 38q1 17 13 30.5t26 13.5q17 0 31 -14.5t14 -34.5q0 -9 -4.5 -17t-11.5 -14.5t-14.5 -10.5t-14.5 -4h-1z" glyph-name="question" horiz-adv-x="267" unicode="?"/>
<glyph d="M473 471q48 0 84 -15.5t60 -41.5t36 -60t12 -71q0 -39 -17 -77t-44.5 -68.5t-62.5 -49t-71 -18.5q-17 0 -32 17t-15 38v37q0 12 -7 5q-4 -4 -14.5 -14t-24 -21t-27.5 -22.5t-25 -18.5q-18 -12 -32.5 -16.5t-23.5 -4.5q-6 0 -17.5 8.5t-11.5 30.5q0 11 7 31.5t25 52.5 q21 35 54 71.5t73 62.5q28 18 42.5 22t22.5 4q7 0 12 -5.5t7 -10.5q3 -6 12 -1q3 3 5.5 4t8.5 -3q7 -5 10.5 -10t-1.5 -14q-44 -75 -49 -139q-3 -23 3 -41t23 -18q21 0 42 13t38.5 35t28.5 52t11 64q0 72 -46 110t-121 38q-51 0 -102 -25t-92 -66t-66.5 -92.5t-25.5 -104.5 q0 -78 52.5 -125t148.5 -47q19 0 41.5 4t43.5 9.5t38.5 11.5t25.5 11q10 5 13 -1.5t-8 -16.5q-24 -18 -51.5 -29.5t-55 -18t-54 -9t-49.5 -2.5q-40 0 -76.5 15t-64.5 40.5t-44.5 59t-16.5 69.5q0 79 34 145.5t87 114.5t118 74.5t128 26.5h1zM436 308q-5 0 -18 -8.5 t-31 -26.5q-38 -36 -57 -68.5t-27 -52.5q-5 -11 -4 -18.5t7 -7.5q5 0 15.5 4t21.5 15q12 11 31.5 29.5t36.5 39.5q4 4 9.5 12l11 16t10.5 15t7 10q3 5 6 12t2 12q-1 6 -6 11.5t-14 5.5h-1z" glyph-name="at" horiz-adv-x="634" unicode="@"/>
<glyph d="M407 474q5 0 11 -6.5t10 -13.5q2 -6 1.5 -11.5t-6.5 -11.5q-11 -9 -16 -14.5t-6 -13.5q-1 -12 0.5 -54.5t5.5 -99.5q1 -6 2 -9t6 -3q17 0 40.5 -1.5t44.5 -3.5q17 -2 14.5 -8.5t-18.5 -11.5q-18 -6 -39.5 -9t-37.5 -5q-9 0 -8 -10q5 -44 8 -68.5t7 -38.5t10.5 -16t20.5 1 q9 2 11.5 -3.5t1.5 -11.5q-2 -24 -18 -39t-36 -15q-12 0 -22.5 10t-16.5 39q-3 21 -8.5 60.5t-7.5 81.5q-1 5 -3 5.5t-9 0.5q-32 -1 -58.5 -3.5t-52.5 -7.5q-17 -3 -28 -8t-19 -14q-3 -3 -13 -14.5t-21.5 -27.5t-21.5 -33.5t-12 -33.5v-10.5t1 -12.5q1 -5 -1 -11.5 t-10 -12.5q-10 -8 -27 -16.5t-29 -8.5q-9 0 -16 8.5t-6 19.5q0 9 8 26t31 46q22 29 38 48.5t34 42.5q4 5 4.5 8.5t0.5 6.5t1 7t6 12q7 8 12 12t13 6t12.5 6t10.5 12q29 37 55 69.5t46.5 59t35.5 45.5t22 28q17 21 26 26t15 5h1zM346 236q8 0 9 2t1 7q-1 24 -2.5 44.5 t-2.5 46.5q-1 10 -4 10.5t-11 -9.5q-8 -8 -17.5 -20t-19.5 -25t-19 -26t-16 -22q-9 -14 8 -11q15 2 35.5 2.5t37.5 0.5h1z" glyph-name="A" horiz-adv-x="484" unicode="A"/>
<glyph d="M452 367q0 -10 -5.5 -20.5t-13.5 -21t-18.5 -20t-20.5 -16.5q-23 -16 -44 -28t-43 -23q-5 -3 -4.5 -4t5.5 -3l17.5 -7.5t21 -10t19.5 -11t14 -9.5q11 -10 16.5 -23.5t5.5 -27.5q0 -15 -12.5 -33t-23.5 -30q-6 -6 -19 -16.5t-29 -21t-32.5 -20t-28.5 -15.5 q-9 -4 -19.5 -7.5t-20 -6t-17.5 -4t-12 -1.5q-9 0 -18.5 6t-19.5 11q-3 2 -6.5 1.5t-10.5 -6.5q-6 -6 -14 -6q-4 0 -9 5t-8.5 17.5t-3 33.5t8.5 52q6 25 20 66t30 85t31.5 84.5t25.5 64.5q4 8 1.5 12t-19.5 5q-17 2 -7 17q5 11 18.5 16t21.5 5q6 0 11 9q4 9 11 18t16 9 q7 0 13.5 -3.5t11.5 -8.5q8 -8 5 -19q-1 -5 1 -5.5t7 -2.5q15 -3 32.5 -7t33.5 -9t29.5 -10t21.5 -10q14 -8 22 -22t8 -27v-1zM394 367q0 10 -27 23q-49 17 -86 19q-7 0 -9.5 -4t-5.5 -11q-2 -4 -9.5 -22.5t-16 -39.5t-15.5 -40t-9 -24q-5 -15 7 -15q8 0 22 2t36 11 q11 5 30 16.5t37.5 25.5t32 29.5t13.5 28.5v1zM344 138q0 9 -5 17t-25 20q-26 16 -53.5 25t-51.5 9q-11 0 -16 -10q-4 -9 -9 -21.5t-9.5 -25.5t-7.5 -25t-3 -19q-1 -16 1 -23q3 -13 1 -24q0 -5 -1 -9t-3 -8q-3 -8 11 -8q11 0 28.5 3.5t40.5 12.5q15 6 32.5 16t33 22t26 24.5 t10.5 22.5v1z" glyph-name="B" horiz-adv-x="391" unicode="B"/>
<glyph d="M386 471q19 0 36 -10t17 -33q0 -11 -5.5 -19.5t-12.5 -14.5t-14 -9t-11 -4q-9 -2 -10 2t1 8l3 7.5t1 7.5t-5 9.5t-16 4.5q-16 0 -34.5 -7.5t-36.5 -20t-35.5 -28.5t-31.5 -34q-17 -23 -33 -49t-28 -54.5t-19.5 -57.5t-7.5 -58q0 -35 16.5 -52.5t45.5 -17.5 q36 0 73.5 14.5t69.5 33t55.5 36t31.5 23.5q11 9 15 3.5t-1 -17.5q-6 -12 -38.5 -42t-86.5 -59q-38 -22 -74.5 -33.5t-71.5 -11.5q-26 0 -43.5 10.5t-29 28t-16.5 39.5t-5 46q0 44 17 94t47 97t71.5 86.5t90.5 62.5q23 11 40.5 15t33.5 4h1z" glyph-name="C" horiz-adv-x="395" unicode="C"/>
<glyph d="M519 298q0 -45 -21.5 -87.5t-51.5 -78t-61.5 -61t-52.5 -37.5q-20 -12 -41.5 -20t-41.5 -13t-37.5 -7.5t-30.5 -2.5q-6 0 -15 4t-18 12.5t-16.5 21t-10.5 29.5q-2 16 2 35t9 36q2 8 9 30t17 50t20.5 58.5t20.5 57.5t17 46.5t9 24.5q5 12 -6 10q-18 -2 -36.5 -9.5 t-26.5 -12.5t-13 3t-5 16q0 14 8 21.5t19 12.5q14 6 35 10t38 4q8 0 11 8q1 3 4.5 8t8 10t9.5 8.5t10 3.5q13 0 21.5 -10t6.5 -21q-1 -5 1.5 -5.5t5.5 -0.5q47 -3 84.5 -16.5t64 -34.5t40.5 -47.5t14 -54.5v-1zM463 302q0 30 -17.5 50t-42.5 32.5t-53.5 18t-50.5 6.5 q-7 0 -9.5 -3t-7.5 -12q-12 -29 -25.5 -64t-25.5 -70t-22 -66t-16 -52q-12 -40 -11.5 -59t5.5 -27q4 -6 13.5 -13.5t21.5 -7.5q25 0 65.5 24t79.5 62t67.5 85.5t28.5 94.5v1z" glyph-name="D" horiz-adv-x="478" unicode="D"/>
<glyph d="M383 449q26 0 47 -5t33 -16q15 -14 7 -20q-5 -5 -24 -1q-12 2 -30 2h-43q-22 0 -43.5 -2t-42.5 -4q-14 -2 -18.5 -7t-9.5 -20q-3 -8 -7.5 -23.5t-9.5 -32t-9 -31t-6 -20.5q-4 -12 6 -13q16 -3 35.5 -4t51.5 0q22 0 44.5 2.5t41.5 6.5q11 2 8.5 -5t-12.5 -16 q-12 -11 -26 -16.5t-31 -8.5q-37 -7 -125 -9q-8 0 -10.5 -2.5t-4.5 -8.5q-13 -35 -25.5 -68.5t-23.5 -64.5q-2 -7 -0.5 -10t9.5 -5q13 -2 39 -3.5t63 -1.5q30 0 51.5 1.5t39.5 4.5t34.5 8t35.5 12q11 5 13 -0.5t-9 -13.5q-24 -17 -47.5 -28t-49.5 -17.5t-57.5 -10 t-71.5 -3.5q-44 0 -86 3q-25 1 -43 6t-18 14q0 8 13 19t19 13q2 1 4.5 3t5.5 8q9 20 20.5 55t25.5 79q4 13 -5 19q-11 7 -13 19q-2 9 11 13q18 8 23 12t8 13q1 4 3.5 10.5t5.5 17.5t8 27.5t12 41.5q3 11 1.5 15t-7.5 9q-14 11 -17 16.5t2 10.5q9 7 28 13q8 4 12 10.5 t10 23.5q5 16 16 14q6 -1 12 -7t11 -16q4 -5 7.5 -6.5t13.5 -1.5h94z" glyph-name="E" horiz-adv-x="412" unicode="E"/>
<glyph d="M395 441q14 0 19 2t7 7q5 11 21 7q15 -4 32.5 -14.5t17.5 -21.5q0 -9 -19 -18q-14 -8 -24 -10t-14 0q-6 2 -16 5t-23 3q-16 0 -45 0.5t-55 -0.5q-6 0 -8.5 -4.5t-5.5 -12.5t-11 -30t-16.5 -46t-15.5 -43.5t-8 -22.5q-4 -12 7 -12q3 0 19 1t38.5 2.5t48.5 2.5t50 2 q35 1 50 0.5t21 -0.5q19 -2 10 -13l-9 -6t-17 -8t-35 -9t-51 -8q-39 -5 -69 -8t-62 -8q-15 -2 -20.5 -7t-10.5 -16q-11 -27 -20 -47t-18 -43q-8 -15 5 -21q6 -2 15.5 -3t20 -1t20.5 1.5t17 3.5q11 3 13 -1.5t-7 -13.5q-15 -16 -44.5 -27.5t-59.5 -11.5q-17 0 -34 3.5 t-26 11.5q-7 5 -8 11t3 10q6 8 25 18q6 5 9.5 9.5t6.5 11.5q1 5 5 17t7.5 26t7 27t5.5 19q2 8 -0.5 15t-7.5 13q-12 16 9 28q13 8 19.5 14t10.5 14q2 4 8.5 23.5t14.5 44t15 47.5t10 34q1 13 -7 13q-22 0 -41 -16q-13 -10 -19 -2q-9 11 -2 25q4 8 11.5 18t15.5 17 q11 10 23 10.5t23 -5.5q5 -4 7 -3t2 4q1 4 1.5 8.5t2.5 9.5q3 14 15 14q16 0 29 -12t12 -23q-1 -5 10 -5h89z" glyph-name="F" horiz-adv-x="406" unicode="F"/>
<glyph d="M85 108q0 40 13 82t38.5 82.5t62.5 77.5t85 68q44 28 80 38t59 10q15 0 29 -6t21 -12q6 -5 7.5 -12.5t-5.5 -13.5q-5 -5 -15.5 -11.5t-18.5 -8.5q-23 -6 -38 4q-8 4 -14.5 6.5t-14.5 2.5q-17 0 -55.5 -24t-85.5 -77q-42 -47 -64.5 -101t-22.5 -98q0 -40 12 -57t28 -17 q13 0 31 7.5t39 19.5t42.5 28t41.5 33q21 18 34.5 36.5t15.5 31.5q3 16 17 30q11 11 23 18t23 7q14 0 24 -13q7 -8 -5 -22q-18 -21 -28 -44.5t-18 -50.5q-12 -35 -25.5 -69.5t-18.5 -53.5q-3 -13 -6.5 -27.5t-6.5 -25.5q-4 -20 -22 -33q-8 -6 -22.5 -10t-24.5 -4 q-10 1 -12 9t6 18q10 13 17 22l14 18q9 11 20 43t21 74q2 8 -1 11t-11 -4q-12 -11 -28 -23t-32 -23.5t-30.5 -20.5t-24.5 -14q-21 -11 -41.5 -15t-34.5 -4q-17 0 -35 19t-29 40q-9 19 -11.5 32.5t-2.5 25.5v1z" glyph-name="G" horiz-adv-x="449" unicode="G"/>
<glyph d="M549 469q9 0 15 -8t8 -16q3 -16 -13 -48q-11 -23 -28 -61.5t-31 -80.5q-2 -5 -1 -6.5t7 -1.5h21t23.5 0.5t21.5 1t16 1.5q11 2 13 -2.5t-6 -11.5q-21 -12 -47 -18t-54 -9q-11 -1 -13 -8q-3 -8 -7.5 -22t-13.5 -46q-2 -9 -0.5 -11.5t6.5 -3.5q6 0 9 -5.5t-1 -15.5 q-5 -15 -13 -31t-17.5 -30t-18 -25.5t-13.5 -15.5q-9 -8 -17 -8q-11 1 -13.5 16.5t-0.5 31.5q2 8 8.5 32t14 51t14.5 49.5t9 28.5q3 10 -5 10q-5 0 -35 -1t-65.5 -1.5t-67 -1.5t-39.5 -1q-7 0 -10 -2t-7 -9q-5 -10 -11 -23.5l-12 -27t-10.5 -26t-6.5 -21.5q-2 -8 -0.5 -10.5 t6.5 -4.5q9 -2 12.5 -11t-0.5 -20q-4 -12 -13 -22.5t-14 -18.5q-7 -8 -17.5 -15.5t-21.5 -7.5q-14 0 -16 18t4 49q3 15 9.5 36.5t13 42t12.5 37t8 21.5q6 13 -3 14q-8 3 -13 7t-5 11q0 4 4 8t10 7.5t12.5 6t10.5 4.5q6 2 8.5 4.5t5.5 8.5q1 4 6.5 18t13 33.5t15.5 41 t15.5 41t13 34.5t7.5 20q5 11 11 19t15 8q5 0 12 -4t12.5 -12t6 -19.5t-6.5 -27.5q-2 -5 -11.5 -26.5t-20.5 -47t-20.5 -47.5t-11.5 -28q-3 -8 -2 -10t8 -2h35.5t64 -0.5t63.5 -0.5h34q8 0 10 1.5t4 6.5q2 7 11.5 33.5t21 58t23.5 60.5t19 41q8 13 13.5 17t14.5 4h1z" glyph-name="H" horiz-adv-x="527" unicode="H"/>
<glyph d="M295 479q10 0 17.5 -8.5t9.5 -17.5q1 -8 9 -9q7 -1 15.5 -2.5t17.5 -3t16.5 -3.5t11.5 -3q8 -2 8 -7q0 -4 -4.5 -7t-10.5 -5t-12 -3t-9 -1h-47q-8 0 -16 -16q-14 -31 -34.5 -78t-40 -95t-34.5 -91t-19 -66q-2 -7 -1 -10t7 -3q25 0 45.5 1t28.5 1q17 2 29 -2q18 -7 -8 -19 q-24 -11 -54.5 -16t-50.5 -6q-5 0 -11 -6t-14 -9q-4 -2 -10 -2q-7 0 -15 10q-5 7 -14 7q-8 0 -18.5 -3.5t-18.5 -5.5q-5 -2 -9 -0.5t-9 7.5q-6 6 -6 14t7 13q11 11 26.5 15t34.5 4q4 0 5.5 1.5t3.5 7.5q12 60 41.5 141t73.5 191q5 12 -8 11q-10 0 -22 -1t-20 -3 q-15 -3 -20 8q-5 6 -3.5 14t9.5 14t21 8q11 2 29 3t27 1q7 0 10 1.5t5 3.5q5 10 11 17.5t19 7.5h1z" glyph-name="I" horiz-adv-x="283" unicode="I"/>
<glyph d="M261 473q9 0 19 -7.5t13 -13.5q6 -16 -10 -33q-9 -11 -16 -28q-3 -8 -7.5 -22t-12 -40t-19 -68t-29.5 -106q-24 -91 -49 -154.5t-55 -95.5q-27 -29 -51.5 -40t-32.5 -14q-7 -3 -16 -7t-14 -6q-13 -5 -25 -5q-11 0 -24 4.5t-26 12.5q-10 6 -16.5 15.5t-6.5 19.5 q0 11 12.5 16.5t21.5 5.5q8 0 23.5 -5.5t22.5 -9.5q13 -8 26 -8q8 0 21.5 6.5t27.5 18.5q14 14 27 35t29 64q13 34 24 68t24 77t28.5 99.5t36.5 135.5q3 9 -5 9q-12 2 -25.5 8.5t-13.5 15.5q0 6 3.5 10t8.5 6q6 2 13 3.5t15 3.5q8 1 17 4t17 14q11 11 23 11h1z" glyph-name="J" horiz-adv-x="225" unicode="J"/>
<glyph d="M541 464q8 0 17.5 -8t8.5 -20q0 -12 -7 -20.5t-15 -13.5q-8 -4 -14.5 -8.5t-20.5 -14.5q-13 -10 -32.5 -23t-41.5 -27t-45.5 -29t-43.5 -27.5t-36 -22t-23 -14.5q-9 -6 -10.5 -12t3.5 -11q18 -16 42 -40t46 -47.5t38.5 -42t20.5 -23.5q5 -7 9.5 -5t8.5 7q10 15 20 15 q9 0 14.5 -14.5t5.5 -25.5q0 -9 -6.5 -18.5t-15.5 -17t-18.5 -12.5t-14.5 -5q-14 0 -29 19q-17 22 -38 48t-43.5 51.5t-46 48t-44.5 37.5q-10 8 -16.5 12.5t-8.5 8.5q-6 8 -11 -6q-5 -11 -11 -27.5t-15 -42.5q-5 -15 -4 -25.5t6 -14.5q9 -9 -6 -29q-7 -10 -14.5 -24 t-14.5 -27t-15.5 -20.5t-16.5 -7.5q-11 0 -15 29.5t16 89.5q7 20 20.5 56t28 74t28 72t20.5 50q11 30 11.5 44t-0.5 20q-1 5 0 10.5t6 13.5q5 7 17.5 17t23.5 10q12 0 18.5 -10.5t8.5 -20.5q2 -20 -10 -38q-2 -3 -5.5 -9.5t-10 -21.5t-16.5 -40.5t-26 -67.5q-5 -13 3 -13 q7 0 36.5 17t66 41t72.5 49t57 40q20 15 32 26.5t21 22.5q8 8 15.5 13t18.5 5h1z" glyph-name="K" horiz-adv-x="491" unicode="K"/>
<glyph d="M296 36q38 0 69 8.5t55 22.5q14 8 15 1t-8 -17q-26 -26 -67 -43t-98 -17q-37 0 -62 1.5t-38 2.5q-12 2 -19.5 3.5t-13.5 1.5q-8 0 -13.5 -3t-13.5 -6q-8 -5 -15.5 -2t-9.5 11q-3 11 -9 25q-4 5 -3 13.5t8 15.5q10 10 18 10q7 0 14 16q10 24 23.5 62t27.5 81t27 85t22 75 q4 15 -3 14q-10 1 -20.5 5t-10.5 12q0 6 7 10t15 7q29 9 44 30q8 11 20 11q11 0 21 -8.5t14 -18.5q5 -13 -7 -29q-5 -6 -9.5 -16t-7.5 -19q-3 -8 -9.5 -26.5t-15 -44t-19.5 -56t-23 -62.5q-17 -48 -29 -78.5t-17 -42.5q-7 -15 7 -19q23 -7 57 -11.5t76 -4.5h1z" glyph-name="L" horiz-adv-x="407" unicode="L"/>
<glyph d="M364 69q8 0 16 6.5t20 17.5q19 17 41 43t44 54.5t43 57t37.5 52.5t28 41t14.5 21q8 12 13.5 23.5t5.5 18.5q0 29 14 29q7 0 10.5 1.5t7.5 9.5q5 10 13 10q7 0 13 -6t9 -15t3 -20.5t-4 -22.5q-11 -24 -20.5 -63t-16.5 -78.5t-11 -74t-5 -49.5q-1 -16 -1 -29v-23 q1 -9 5 -10.5t12 1.5q35 10 35 -5q0 -11 -18.5 -30.5t-39.5 -32.5q-13 -7 -24 -7q-8 0 -16.5 4.5t-15.5 10.5q-10 10 -2 24q4 5 4.5 12.5t2.5 16.5q3 29 6 53.5t7 50.5t9.5 56.5t14.5 71.5q2 7 -0.5 7.5t-7.5 -6.5q-33 -48 -63.5 -89t-56.5 -72.5t-46 -53.5t-32 -34 q-17 -17 -32.5 -31.5t-32.5 -14.5q-15 0 -26.5 14.5t-20 35t-13.5 43.5t-7 40q-5 42 -10 76.5t-7 67.5q-3 16 -11 -3q-15 -35 -32.5 -73t-35 -73.5t-33 -64.5t-26.5 -45q-12 -17 -20 -24t-16 -7q-9 0 -17 7t-14.5 16.5t-10.5 19.5t-4 16q0 17 10 23t25 3q8 -2 15.5 2.5 t14.5 12.5q4 5 17 27.5t30.5 56.5t38 76t39.5 86q5 14 5 22t-5 15q-4 6 -7.5 13.5t-3.5 14.5q1 9 12.5 17t29.5 16q7 3 10 5.5t7 9.5q3 5 10 16t16 11q15 0 24.5 -15.5t0.5 -35.5q-10 -20 -17 -37t-7 -42q0 -18 2 -44.5t5 -56t7.5 -59t8.5 -53.5q6 -32 14.5 -44t16.5 -12h1z " glyph-name="M" horiz-adv-x="701" unicode="M"/>
<glyph d="M239 458q9 0 14.5 -5t10.5 -14q5 -10 4.5 -19.5t-4.5 -14.5q-9 -15 -9 -20q0 -9 11 -30q26 -50 59 -110.5t68 -117.5q9 -16 15 2q13 42 24 74.5t20.5 59.5t18.5 49.5t18 43.5q18 48 29.5 70t18.5 32q15 15 28 15q8 0 14 -7t9.5 -16.5t5.5 -19t2 -14.5q1 -16 -17 -18 q-12 -2 -18 -6.5t-11 -15.5q-17 -36 -31.5 -72t-26.5 -69t-20.5 -61.5t-14.5 -48.5q-8 -26 -10 -39t-2 -23q0 -11 3.5 -18t8.5 -14q4 -6 2.5 -13t-6.5 -13q-5 -5 -11 -9t-14 -4q-9 0 -17.5 6t-13.5 13q-4 7 -13 24t-34 59q-12 20 -29.5 51.5t-34.5 63t-30 56t-17 31.5 q-6 10 -13 -4q-26 -57 -44.5 -103.5t-23.5 -65.5q-4 -14 -5 -21.5t-2 -16.5q-2 -21 -3 -32t-3.5 -19t-7 -16t-13.5 -22q-6 -9 -13 -12.5t-13 -3.5q-12 0 -20.5 9.5t-8.5 26.5q0 8 3.5 19t7.5 19q17 40 35.5 86.5t34.5 87.5t27.5 71.5t14.5 38.5t2 12t-6 8q-4 3 -7 8.5 t0 13.5q5 16 18 25q7 7 6 16q-2 5 2 12t9 14q5 5 11.5 8t10.5 3h1z" glyph-name="N" horiz-adv-x="502" unicode="N"/>
<glyph d="M388 472q29 0 54 -14.5t42 -37.5q20 -29 20 -85q0 -40 -12.5 -79t-32 -73.5t-42.5 -64t-45 -49.5q-51 -45 -95.5 -61.5t-73.5 -16.5q-20 0 -43.5 9t-43.5 29q-17 16 -23.5 42t-6.5 48q0 27 9.5 62t28 72t45 73t61.5 66q19 17 38.5 28t35 17.5t26.5 9t13 2.5q7 0 15 10 q5 5 14 9t15 4h1zM339 406q-15 0 -46.5 -23.5t-69.5 -74.5q-25 -36 -40 -66.5t-23 -55t-10.5 -43t-2.5 -30.5q0 -31 13.5 -54.5t45.5 -23.5q18 0 51 14t65 42q24 22 48 53.5t43 68t31 75.5t12 75q0 34 -25 53q-11 8 -16 7.5t-3 -6.5q1 -5 0.5 -10.5t-5.5 -11.5t-13.5 -10.5 t-16.5 -4.5q-12 0 -15 12q-2 6 -8.5 10t-13.5 4h-1z" glyph-name="O" horiz-adv-x="453" unicode="O"/>
<glyph d="M460 338q0 -15 -8.5 -32t-21 -33t-27 -29t-26.5 -20q-24 -14 -53.5 -28t-57.5 -23q-11 -3 -20 -3q-5 0 -13 2.5t-8 7.5q0 3 1.5 7.5t6.5 9.5q7 7 21 15.5t31 16.5l39 19.5t39 23t29.5 29.5t11.5 40q0 20 -10 33.5t-24.5 21.5t-31.5 12t-31 4q-15 0 -20 -12 q-6 -12 -16 -38t-30 -80q-7 -19 -16 -44t-18.5 -53t-19.5 -58t-18 -60q-4 -11 -0.5 -15.5t13.5 -7.5q12 -4 33.5 -5t36.5 -3q11 -1 11.5 -6.5t-9.5 -11.5q-9 -8 -29.5 -13t-49.5 -5q-21 0 -29 -7q-4 -3 -10.5 -6.5t-15.5 -3.5q-16 0 -28.5 8.5t-18.5 19.5q-5 10 0 17.5 t25 14.5q13 4 20 25q9 30 22 68t27 80.5t28.5 86.5t28.5 86q4 15 -7 8q-27 -16 -39.5 -23t-17.5 -7q-12 0 -18 9q-9 11 7 25q19 15 38.5 25t42.5 19q10 4 12 10q4 8 11.5 19.5t16.5 11.5q14 0 30 -25q3 -4 5 -5t10 -1q13 0 31.5 -4.5t36.5 -12t33.5 -17.5t24.5 -22 q13 -17 16 -31.5t3 -28.5v-1z" glyph-name="P" horiz-adv-x="392" unicode="P"/>
<glyph d="M374 469q15 0 23 -8q2 -3 14 -3q16 0 30.5 -10.5t26 -26.5t18.5 -35t7 -37q0 -27 -7 -58t-20.5 -63.5t-32.5 -64t-42 -59.5q-9 -12 -26 -27t-35 -29t-34.5 -26t-25.5 -16q-11 -5 -13 -10t2 -13q15 -32 37 -65t50.5 -60t62.5 -44t71 -17q29 0 58.5 9t55.5 22.5t46.5 29.5 t32.5 29q5 6 8.5 6.5t4.5 -2.5t0 -8.5t-5 -10.5q-16 -23 -39.5 -43.5t-51.5 -36t-60 -25t-65 -9.5q-43 0 -80.5 15t-75.5 47q-20 17 -37 35.5t-30 36t-22 31t-13 21.5q-12 20 -13 32q-2 6 -4 8.5t-9 3.5q-14 1 -30 10.5t-30 26.5t-23.5 40t-9.5 52q0 36 11 73.5t28 71t36 61 t36 45.5q18 19 41 37.5t47 32.5t46.5 22.5t39.5 8.5h1zM146 107q0 -24 9 -42.5t25 -28.5q8 -5 13.5 -4.5t8.5 2.5q10 4 21 3t24 3.5t38 22.5q22 16 49.5 51t52.5 81q12 22 20.5 46t14 46.5t8 41t2.5 30.5q0 26 -7 40t-20 19q-10 3 -13 -4q-3 -8 -18 -7q-28 4 -61.5 -10 t-71.5 -61q-19 -24 -36.5 -52.5t-30.5 -58.5t-20.5 -60t-7.5 -57v-1z" glyph-name="Q" horiz-adv-x="439" unicode="Q"/>
<glyph d="M447 353q0 -24 -15 -44.5t-36.5 -37.5t-46.5 -30t-44 -22q-9 -4 -10.5 -8t2.5 -11q10 -16 27 -40t34.5 -48t32.5 -43.5t22 -26.5q20 -20 35 -25t26 -5t26 6.5t24 14.5q8 8 9.5 3t-3.5 -15q-11 -18 -34 -32t-48 -14q-28 0 -54.5 18t-63.5 65q-10 12 -24 31.5t-27.5 39 t-24 34.5t-13.5 18q-9 9 -22 9q-9 0 -13 -14q-11 -27 -22.5 -61t-19.5 -60q-2 -7 0 -9.5t10 -4.5q12 -3 27 -7t20 -8q9 -7 -6 -15q-10 -6 -26 -9t-33 -4q-5 -1 -9.5 -2t-9.5 -3q-9 -7 -21 -7q-11 0 -27 8t-21 18q-8 14 2 21q12 9 29 12q6 1 8.5 4t5.5 11q13 38 23 66t18 54 q2 5 1.5 9t-1.5 7q-2 4 -2.5 10.5t1.5 11.5q5 11 13 14q7 3 12 16q5 12 9.5 23.5t10.5 28.5t14.5 41t22.5 60q4 11 -5 11q-20 -3 -30.5 -9t-16.5 -14q-4 -5 -9 -10t-11 -7q-12 -3 -20 5q-9 7 -13 17q-3 8 1.5 15.5t12.5 13.5q27 20 97 29q8 1 11 3.5t6 9.5q10 25 24 25 q8 0 14 -2.5t11 -6.5q11 -9 9 -22q-2 -4 7 -4q39 -2 70 -18t45 -42q5 -11 7 -21t2 -20v-1zM392 349q0 15 -7.5 27t-19 20.5t-26 13.5t-29.5 5q-11 0 -16 -12q-5 -10 -13.5 -30.5t-17.5 -44t-17 -45t-12 -32.5q-2 -5 -2.5 -9t4.5 -4t25.5 6.5t49.5 20.5q32 17 56.5 41 t24.5 42v1z" glyph-name="R" horiz-adv-x="492" unicode="R"/>
<glyph d="M382 471q13 0 21 -9q7 -12 3 -26q-5 -13 -16 -22t-30 -8q-10 1 -21 2t-25 -1q-38 -7 -65 -33t-27 -64q0 -35 23 -98q11 -31 17.5 -61t6.5 -47q0 -23 -10.5 -42.5t-26.5 -33.5q-22 -18 -55.5 -27.5t-64.5 -9.5q-17 0 -34 2.5t-27 7.5q-19 9 -19 25q0 13 10 22q6 6 16.5 9 t19.5 -3q13 -8 29.5 -14.5t31.5 -6.5q12 0 25 4.5t23.5 13t17.5 22t7 31.5q0 16 -6.5 41.5t-19.5 57.5q-14 34 -18 53.5t-4 33.5q0 44 39.5 89t117.5 76q23 9 36.5 12.5t23.5 3.5h1z" glyph-name="S" horiz-adv-x="294" unicode="S"/>
<glyph d="M410 467q6 0 12 -6t13 -15q4 -5 7.5 -7t12.5 -3q26 -2 55 -3t44 -1q13 0 20.5 7t12.5 13q6 8 14 8q12 0 24 -14t12 -31q0 -13 -11.5 -24t-25.5 -11q-8 0 -17 4.5t-16 7.5q-8 3 -13.5 4.5t-16.5 0.5q-23 -1 -46.5 -0.5t-45.5 1.5q-10 0 -17 -15q-15 -41 -31.5 -85.5 t-32.5 -88t-30.5 -82.5t-26.5 -68q-3 -6 -1 -7.5t7 -1.5q6 0 16.5 -1t22 -2.5t21.5 -3.5t16 -3q11 -3 11 -8t-9 -10q-7 -4 -20 -7t-28.5 -5t-30.5 -3.5t-25 -1.5q-8 0 -11 -1.5l-7 -3.5q-7 -5 -21.5 -14t-25.5 -9q-10 0 -20 8.5t-10 19.5q0 10 5 17t12.5 11.5t16 7.5t15.5 5 q11 1 15 15q10 24 22.5 60.5t27 80t29.5 90.5t30 91q2 8 1 10t-6 2q-9 1 -23.5 2.5t-32 2t-36 0.5h-36.5q-32 -1 -45 -12t-19 -31q-2 -8 -7 -7.5t-9 9.5q-12 34 0 57q11 17 35 24t59 7q34 0 66.5 -2.5t59.5 -4.5q11 -1 16 7q10 20 21 20h1z" glyph-name="T" horiz-adv-x="517" unicode="T"/>
<glyph d="M547 462q8 0 16 -10.5t11 -17.5q6 -15 -7 -37q-35 -60 -60.5 -138t-36.5 -166q-2 -12 1.5 -15t15.5 5q16 9 35 18.5t40 15.5q15 4 14.5 -3.5t-10.5 -13.5q-15 -9 -33.5 -25t-35.5 -32t-30 -30t-18 -20q-7 -10 -15 -10q-10 0 -18 4q-13 6 -15 22t3 39q2 13 8.5 40t14 56.5 t14.5 56.5t11 39q3 8 -1 8.5t-9 -7.5q-3 -3 -15 -16t-29.5 -32t-40 -42t-46.5 -45t-41 -36.5t-29 -23.5t-21 -15t-17 -10q-17 -10 -34 -15.5t-29 -5.5q-16 0 -26 6q-8 5 -10 13t-2 15q-1 6 0 14t3 16q13 78 37.5 150t56.5 152q6 15 8.5 30.5t0.5 26.5q-2 9 1.5 14t11.5 12 q8 8 21.5 15.5t22.5 7.5t16.5 -13.5t-2.5 -35.5q-15 -33 -30 -69t-28.5 -71.5t-25 -68.5t-18.5 -61q-7 -27 -8.5 -43.5t1 -25t6.5 -11.5t8 -3q8 0 21.5 5t31.5 19q24 17 45.5 35.5t43 40.5t45.5 49t53 60q24 27 42 52t27 49q10 26 16 40t11 22q13 20 26 20h1z" glyph-name="U" horiz-adv-x="532" unicode="U"/>
<glyph d="M204 468q12 0 23 -15q8 -11 10 -23t-4 -30q-8 -21 -14 -47.5t-9.5 -54t-5.5 -54.5t-1 -49q1 -26 3 -48t7 -35q2 -6 5.5 -6t9.5 8q14 19 46.5 49t70.5 62t74 61.5t58 49.5q21 19 31.5 34.5t15.5 31.5q4 15 6.5 26.5t4.5 23.5t8.5 16.5t14.5 4.5q12 0 25.5 -12t13.5 -35 q0 -15 -11.5 -32.5t-25.5 -33.5q-12 -13 -35 -35t-51 -47.5t-56.5 -51.5t-52.5 -47q-40 -35 -65.5 -62.5t-40 -48.5t-20.5 -36t-7 -24q-2 -11 -12.5 -18t-17.5 -7q-11 0 -17 11t-10 21q-11 33 -17 76.5t-6.5 89.5t3 90t11.5 79q2 7 0.5 12t-3 9.5t-3 10t0.5 13.5 q7 28 18.5 50.5t23.5 22.5h1z" glyph-name="V" horiz-adv-x="494" unicode="V"/>
<glyph d="M219 464q13 0 18 -18t-4 -48q-24 -81 -30 -205q-2 -27 -1.5 -43t1.5 -24q1 -17 14 -3q14 17 40.5 46t54.5 59t51.5 55t31.5 35q17 18 22 33t7 29q5 26 16 47.5t29 21.5q6 0 14 -3.5t15.5 -9t12.5 -12.5t5 -14q0 -11 -8 -17q-8 -5 -19 -17q-5 -6 -9.5 -14t-8.5 -20.5 t-6 -32t-2 -48.5q-1 -30 -0.5 -51.5t1 -38t2.5 -30t4 -28.5q2 -9 6 -8.5t14 11.5q21 25 49 55.5t56 59.5t51.5 53.5t35.5 37.5q23 26 30.5 41t7.5 24q0 7 -1.5 15t-8.5 16q-8 9 -3.5 18t14.5 19q18 18 34 18q17 0 24.5 -15t7.5 -29q-2 -35 -32 -77q-17 -24 -33 -44.5 t-35.5 -42.5t-43.5 -48.5t-55 -61.5q-27 -31 -45 -53.5t-29 -39.5t-16.5 -29t-8.5 -22q-5 -21 -24 -21q-11 0 -21.5 12t-16.5 46q-5 26 -10 63t-5 99q0 12 -0.5 20.5t-1.5 18.5q0 19 -16 4q-10 -8 -34 -34t-51 -57t-51.5 -60.5t-34.5 -44.5q-7 -11 -9.5 -18t-4.5 -17 q-2 -11 -6.5 -16.5t-11.5 -10.5q-5 -3 -11 -3q-8 0 -18 10.5t-11 27.5v72.5t1 72.5t4 75.5t8 81.5q4 28 4 44.5t-2 30.5q-2 11 1 19.5t13 17.5q11 8 20.5 14t17.5 6h1z" glyph-name="W" horiz-adv-x="688" unicode="W"/>
<glyph d="M216 471q12 0 20 -5t17 -18q12 -20 23.5 -40.5t21 -39.5l17.5 -35l13 -26q4 -7 13 0q28 23 53.5 46t46.5 42.5t36 34.5t22 21q16 14 29 14q14 0 27.5 -9t15.5 -20q2 -7 -2 -12.5t-21 -12.5q-12 -5 -33 -19t-46.5 -34.5t-53.5 -44t-53 -45.5q-11 -9 -2 -24q6 -11 18 -35 l25 -50l24 -48l14 -28q12 -20 21 -14q8 5 13.5 4.5t9.5 -3.5q5 -3 9.5 -10.5t4.5 -15.5q0 -10 -8 -19t-17 -16q-8 -6 -18 -11t-18 -5q-9 0 -18 10t-17 26q-3 7 -14.5 32t-25.5 55t-27.5 58t-20.5 40q-5 8 -15 1q-8 -7 -29.5 -25.5t-44.5 -39t-43 -38.5t-25 -22 q-10 -11 -12.5 -17.5t0.5 -13.5q2 -7 0 -15t-14 -18q-51 -45 -79 -45q-9 0 -16.5 7t-7.5 18q0 5 4.5 13.5t18.5 22.5q33 33 69.5 68t69 64.5t57 51.5t32.5 30q5 5 6.5 9t-0.5 10q-26 54 -48 86.5t-35 44.5q-9 8 -18 14t-14 10t-1.5 11t13.5 15q16 15 32 15h1z" glyph-name="X" horiz-adv-x="505" unicode="X"/>
<glyph d="M533 429q0 -10 -10 -23t-27 -26q-16 -12 -55 -42.5t-83 -68.5q-38 -32 -55.5 -54.5t-26.5 -47.5q-7 -19 -11.5 -42t-10.5 -57q-2 -10 0 -13t9 -5q27 -5 48.5 -12t21.5 -15q0 -6 -14.5 -9.5t-35.5 -4.5q-38 -2 -52 -6.5t-21 -11.5q-4 -5 -9 -6.5t-10 -1.5q-11 0 -20.5 5 t-14.5 12t-2 18.5t24 21.5q10 5 13.5 9t5.5 15q8 31 13 51.5t8 34.5q5 23 6 40t-4 38q-3 11 -9.5 31t-14.5 44t-17.5 50t-16.5 49q-5 15 -5 26t3 18.5t8 12.5t10 8q13 10 33 10q14 0 11 -24q-2 -14 1 -39.5t9.5 -54t14.5 -55.5t16 -43q5 -8 13 0q12 11 34.5 28t47 35 t47 34.5t33.5 26.5q21 19 26.5 36.5t6.5 30.5q1 10 6 16.5t13 6.5q17 0 30 -14t13 -31v-1z" glyph-name="Y" horiz-adv-x="429" unicode="Y"/>
<glyph d="M233 460q23 1 46 -1.5t44 -6.5q16 -3 35.5 -6.5t39.5 -6.5t38.5 -5t32.5 -3q20 0 29 12q8 9 15 17.5t15 8.5q11 0 15.5 -9.5t4.5 -22.5q0 -22 -11 -36q-6 -14 -16 -14q-8 0 -24 -19q-30 -33 -66.5 -71t-75 -76.5t-76 -73.5t-68.5 -62q-8 -8 -8 -11.5t5 -5.5 q15 -2 45 -9.5t65 -17.5q34 -9 65 -14.5t55 -5.5q55 0 62 49q2 9 4.5 13t8.5 9q11 8 20 6t15 -8q14 -14 14 -27q0 -9 -6.5 -18t-16.5 -17.5t-21.5 -16t-20.5 -12.5q-19 -10 -46.5 -16.5t-47.5 -6.5q-23 0 -52 5.5t-61 13.5t-65 16t-64 14q-18 4 -28.5 -5t-17.5 -18 q-5 -9 -15 -9q-7 0 -17 12q-15 18 -2 39q8 11 20 19t17 9q10 1 46 31q13 12 39 35.5t62 58t80 79.5t93 99q14 14 0 15q-20 2 -53 5t-67 8q-23 3 -45.5 5.5t-41.5 1.5q-37 0 -56 -16.5t-33 -36.5q-5 -8 -8 -14t-8 -6t-5 7t2 16q4 19 13.5 37.5t24 32t32.5 22t39 8.5h1z" glyph-name="Z" horiz-adv-x="540" unicode="Z"/>
<glyph d="M285 512h35.5t45.5 -2q19 -2 28 -8t9 -13q-1 -4 -4 -6.5t-11 -2.5q-5 -1 -17.5 -2t-27.5 -2t-28 -2.5t-19 -2.5q-13 -2 -27.5 -15t-27.5 -54q-6 -19 -16.5 -53t-22 -72t-22 -74t-17.5 -58q-8 -23 -16.5 -50.5t-16.5 -54.5t-15 -50.5t-10 -39.5q-5 -21 -4.5 -34t4.5 -20 t10.5 -10t14.5 -4q9 -2 17 -3.5t14 -3.5q14 -2 30 -5.5t24 -11.5q4 -5 2.5 -9t-5.5 -6q-6 -5 -22 -3q-8 1 -25 2t-49 1q-15 0 -31 -0.5t-27 -1.5t-14.5 10t-1.5 23q2 10 4 16t3 13q1 8 3 20.5t11 43.5q5 17 14 46.5t20.5 66t24 79t23.5 84.5q12 43 21.5 73.5t16.5 52.5 t12.5 37.5t9.5 28.5q8 27 16 41.5t17 22.5q8 8 18.5 10.5t27.5 2.5h1z" glyph-name="bracketleft" horiz-adv-x="303" unicode="["/>
<glyph d="M174 481q11 0 15.5 -11t4.5 -25q-1 -14 1 -28.5t6 -28.5q3 -10 12.5 -45t22.5 -83t28.5 -103t30.5 -103q15 -51 23 -73t12 -30q5 -11 8.5 -19t2.5 -15q-1 -8 -9 -13.5t-20 -5.5q-16 0 -24.5 10t-15.5 31q-4 14 -10 37.5t-13.5 53.5t-16.5 63.5t-18 67.5q-18 67 -31 112.5 t-22 74.5t-14 45t-8 23q-8 20 -4 34t12 21q9 10 26 10h1z" glyph-name="backslash" horiz-adv-x="345" unicode="\"/>
<glyph d="M346 510q14 0 20 -4t11 -12t5 -16t-5 -28q-4 -19 -13 -48.5t-21 -64.5q-48 -131 -77 -225t-40 -139q-8 -35 -10.5 -59t-1.5 -29q1 -8 0 -16t-7 -13q-7 -5 -11.5 -9t-9.5 -9t-12.5 -9t-24.5 -4q-10 0 -26 2t-31.5 5t-29 6t-17.5 5q-8 3 -8 8t2 8q4 7 21 7q16 -1 41 -1 t40 4q12 2 16 8.5t5 12.5q4 34 11.5 67t20.5 75q9 30 22 70.5t28 86.5t32 95t34 96q17 51 14.5 68.5t-24.5 19.5q-14 2 -33 2.5t-50 1.5q-13 1 -19 2.5t-6 7.5q0 11 36 16q10 1 25.5 3.5t32.5 4t32.5 3t26.5 1.5h1z" glyph-name="bracketright" horiz-adv-x="312" unicode="]"/>
<glyph d="M292 472q9 0 18 -11q9 -7 10 -28q0 -9 4 -23.5t10 -31.5t13 -34.5t13 -33.5q22 -48 40 -71q6 -9 9.5 -15.5t3.5 -11.5q0 -8 -10.5 -18t-18.5 -10q-9 0 -20.5 15.5t-23.5 38.5q-5 9 -12 25t-14.5 33.5t-14 33t-9.5 23.5q-8 22 -12 22t-12.5 -11t-24.5 -31 q-7 -9 -21.5 -28.5t-30 -40.5t-29 -39t-17.5 -23q-12 -13 -21 -13q-5 0 -11.5 6t-8.5 11q-5 12 9 29q3 4 14 19t26.5 35t33 42.5t33 42.5t26.5 35t14 19q6 10 9 15.5t5 10.5q2 8 8 13t11 5h1z" glyph-name="asciicircum" horiz-adv-x="384" unicode="^"/>
<glyph d="M500 -125h-500v50h500v-50z" glyph-name="underscore" horiz-adv-x="500" unicode="_"/>
<glyph d="M217 531q15 0 24 -19q11 -22 20 -41t17 -31q8 -14 13.5 -24t7.5 -16q3 -9 -3.5 -12t-16.5 4q-17 13 -41.5 37.5t-42.5 49.5q-12 19 -3 36q4 7 11 11.5t13 4.5h1z" glyph-name="grave" horiz-adv-x="372" unicode="`"/>
<glyph d="M275 352q8 0 14.5 -7t11.5 -13q2 -7 9 -2q10 7 19 1q11 -7 12 -14t-3 -15q-23 -50 -36 -94t-13 -87q0 -34 6 -56t24 -22q16 0 37.5 15t44.5 38t45.5 50.5t40.5 52.5q5 8 10 7.5t5 -6.5q0 -14 -9 -35q-14 -27 -38.5 -58t-52.5 -56.5t-56 -42.5t-47 -17q-18 0 -36 20.5 t-21 51.5q-2 16 -2.5 34t-0.5 26q0 10 -8 2q-5 -7 -17 -21t-26.5 -29.5t-29 -30t-24.5 -23.5q-34 -30 -58 -30q-3 0 -10 2.5t-14 8t-12.5 15t-5.5 23.5q0 13 7 38.5t31 70.5q20 39 52.5 84t69.5 77q31 28 51.5 35t28.5 7h1zM246 298q-20 0 -62 -51q-36 -42 -57.5 -87.5 t-28.5 -72.5q-5 -14 -2 -24t13 -10q6 0 17 7.5t25 20.5q13 12 32.5 36.5t42.5 54.5q4 6 10 16.5t11.5 21t9.5 18.5t6 11q3 8 5 18t0 19t-6.5 15.5t-14.5 6.5h-1z" glyph-name="a" horiz-adv-x="379" unicode="a"/>
<glyph d="M328 353q12 0 21 -7t14.5 -16.5t8.5 -20t3 -17.5q0 -36 -17 -71.5t-38 -67.5q-13 -20 -30.5 -39.5t-35.5 -37t-35.5 -31.5t-30.5 -22q-23 -14 -48.5 -23t-39.5 -9t-25.5 12t-11.5 22q-2 16 -7 23q-5 5 -5.5 10.5t1.5 13.5q1 6 8.5 33.5t18 64.5t23.5 75.5t24 67.5 q10 27 20.5 53.5t20 50.5t17.5 44t14 33q14 32 17 60q1 15 15 27q6 6 16 12.5t19 6.5q11 0 14 -12.5t-3 -32.5q-4 -14 -19.5 -50t-40.5 -95q-8 -20 -17.5 -43.5t-18 -45t-15 -38t-7.5 -21.5q-8 -21 9 -3q4 3 13.5 12t21.5 19t25 20t23 16q20 12 41.5 19.5t35.5 7.5h1z M106 70q0 -15 6 -20t14 -5q25 0 75 38q24 18 45.5 46t38 56t26.5 52.5t10 36.5q0 11 -5.5 19t-17.5 8t-36 -11.5t-49 -34.5q-26 -23 -45.5 -45.5t-35.5 -51.5q-8 -15 -16.5 -38t-9.5 -49v-1z" glyph-name="b" horiz-adv-x="329" unicode="b"/>
<glyph d="M278 352q22 0 33 -12.5t11 -25.5q0 -17 -10.5 -28t-19.5 -16q-17 -9 -24 -3q-9 7 -4 19q2 17 -15 17q-8 0 -18.5 -5.5t-22 -15t-22.5 -21.5t-20 -25q-29 -42 -38 -78t-9 -59q0 -30 14 -45.5t35 -15.5q28 0 61 14t66 35t63 46t51 48q13 14 18 2q3 -11 -11 -31 q-24 -31 -57.5 -60t-70.5 -51.5t-75 -36t-69 -13.5q-14 0 -29 4.5t-27.5 15.5t-20.5 29.5t-8 46.5q0 34 17 83.5t58 97.5q15 18 33.5 33t38 26.5t38 18t33.5 6.5h1z" glyph-name="c" horiz-adv-x="315" unicode="c"/>
<glyph d="M286 337q18 0 33 -8q6 -2 8.5 -1.5t4.5 5.5q16 40 32 80.5t29.5 74t23.5 58.5t15 36t9 14.5t9 3.5q4 0 9 -3t11 -12t6.5 -17.5t-4.5 -22.5q-8 -19 -32 -73.5t-50 -124.5q-22 -60 -37 -123.5t-19 -115.5q-3 -32 3.5 -47.5t18.5 -15.5q19 0 45 20.5t52 48t48 55.5t33 43 q5 8 10 8t5 -8q0 -7 -2 -15t-7 -19q-14 -26 -38.5 -58t-54 -60t-61 -47.5t-58.5 -19.5q-25 0 -35 25.5t-8 56.5q2 29 4.5 47.5t6.5 38.5q2 7 0 6t-6 -6q-14 -19 -31.5 -38.5t-34 -36.5t-30.5 -30.5t-22 -19.5q-31 -23 -57.5 -35.5t-37.5 -12.5q-12 0 -24 11t-12 44 q0 18 7 44t19.5 55.5t31 59t41.5 54.5q41 44 79 62.5t66 18.5h1zM265 294q-12 0 -26 -8t-29.5 -22t-31 -32.5t-29.5 -39.5q-32 -48 -42.5 -77.5t-10.5 -43.5q0 -21 16 -21q11 0 32.5 13t49.5 42q16 17 34 38t33 42.5t26 40.5t14 32q6 15 -2 23q-3 4 -11 8.5t-22 4.5h-1z" glyph-name="d" horiz-adv-x="421" unicode="d"/>
<glyph d="M63 87q0 33 17 79t45 88q7 11 20 28t29 33t32 27.5t30 11.5q11 0 16 -5.5t6 -12.5q0 -6 11 -9q17 -1 29 -13t12 -35t-9.5 -46t-23.5 -39q-20 -23 -48 -40t-64 -17q-16 0 -27 9q-6 5 -10 -4q-7 -19 -7 -44q0 -30 14 -45t36 -15q28 0 61.5 14t67 35.5t64 48t52.5 50.5 q9 9 14 -1q3 -11 -11 -32q-24 -32 -56.5 -61t-69 -51.5t-74.5 -36t-71 -13.5q-15 0 -30 4.5t-27 15.5t-20 29t-8 46v1zM163 182q18 0 35 6.5t30 18t21.5 25.5t8.5 29q0 18 -8.5 27.5t-18.5 9.5t-22.5 -11t-24.5 -27.5t-22 -35t-15 -32.5q-4 -10 15 -10h1z" glyph-name="e" horiz-adv-x="315" unicode="e"/>
<glyph d="M367 588q19 0 28 -8q11 -11 -1 -30q-5 -8 -13 -13t-17 -5q-63 1 -110.5 -53.5t-76.5 -155.5q-2 -7 0 -8.5t7 -0.5q58 5 93.5 12.5t67.5 16.5q17 5 16 -2.5t-12 -15.5q-20 -12 -48 -22.5t-55 -18t-48 -12t-28 -5.5q-7 -2 -9 -5t-4 -11t-7 -27t-11.5 -41.5t-12.5 -45 l-10 -37.5q-14 -56 -26.5 -100t-24.5 -80t-23 -64.5t-22 -53.5q-10 -23 -23 -47t-29.5 -46t-36 -38.5t-42.5 -24.5q-11 -4 -25 -4q-13 0 -19 5q-10 12 6 32q12 17 20 23t16 8q21 7 38.5 19t32.5 35t29.5 59.5t31.5 92.5q6 18 16.5 58t22.5 88.5t24 99.5t20 90q2 8 -0.5 9.5 t-7.5 1.5q-19 2 -26.5 9t-7.5 12q0 11 14 18q12 6 37 8q6 0 10 11q25 73 57.5 125t78.5 88q33 26 62 40t47 14h1z" glyph-name="f" horiz-adv-x="183" unicode="f"/>
<glyph d="M317 353q16 0 26.5 -6t17 -14.5t9.5 -18t3 -15.5q0 -13 -8.5 -26t-23.5 -22q-7 -6 -4 -11q3 -8 0 -22q-3 -17 -10 -49.5t-14 -67t-13.5 -63.5t-8.5 -40q-20 -88 -54.5 -158.5t-88.5 -123.5q-14 -13 -32 -24t-37 -19t-36 -12.5t-29 -4.5q-10 0 -20.5 0.5t-18.5 2.5 t-14.5 3.5t-18.5 1.5q-15 0 -32.5 10t-17.5 23q0 6 4.5 13t11.5 13t15.5 10t15.5 4q8 0 16 -6t15 -13q8 -7 20.5 -14t34.5 -7q32 0 69.5 26t69.5 74q31 46 47.5 97.5t30.5 113.5q7 29 11 50.5t6 36.5t3 25t2 16q2 11 -2.5 7.5t-12.5 -11.5q-4 -5 -14 -16.5t-23 -25 t-27.5 -28t-27.5 -24.5q-6 -5 -15.5 -12.5t-20.5 -14.5t-22.5 -12.5t-20.5 -5.5q-17 0 -26.5 18t-9.5 40q0 35 17.5 75.5t49.5 83.5q29 41 66 70.5t67 46.5q20 11 41 18.5t33 7.5h1zM106 81q0 -9 2.5 -15t7.5 -6q10 0 25.5 11.5t31.5 27t30 30.5t20 22q23 25 39.5 50.5 t21.5 31.5q12 13 23 15q3 1 6.5 2t6.5 5q3 3 6 8t3 10q0 12 -11 18.5t-25 6.5q-16 0 -34 -7t-35.5 -19t-34 -27t-28.5 -31q-10 -13 -19.5 -30t-17.5 -35t-13 -35.5t-5 -31.5v-1z" glyph-name="g" horiz-adv-x="338" unicode="g"/>
<glyph d="M382 345q12 0 17.5 -8t-2.5 -25q-6 -13 -15 -35t-18.5 -49t-19 -56.5t-16.5 -57.5q-5 -22 -6 -35.5t1 -21t5.5 -10.5t8.5 -3q19 0 49.5 20.5t62 48t58.5 56t39 45.5q6 7 11 6.5t5 -7.5q0 -13 -11 -32q-17 -31 -49.5 -65.5t-69.5 -64t-71.5 -49t-54.5 -19.5q-9 0 -16.5 6 t-12 20.5t-4.5 39.5t7 63q4 19 8.5 38.5t9.5 37.5t10 33t8 25q9 30 -18 9q-33 -25 -61 -51.5t-50 -50.5t-37.5 -44t-22.5 -32q-10 -17 -14.5 -29t-6.5 -22q-2 -17 -12 -26.5t-24 -9.5q-11 0 -14 20t1 44q1 9 9 39.5t20 72t25.5 88t26.5 85.5q11 34 24.5 69t26.5 66t25 55.5 t21 38.5q13 23 22 31.5t15 8.5q11 0 22 -16q6 -8 7.5 -16t-6.5 -19q-30 -42 -55.5 -97t-45.5 -110t-34 -103t-22 -77q-2 -11 0.5 -13t9.5 6q9 10 28.5 29t43 41t46 42.5t37.5 32.5q23 17 39 27t39 10h1z" glyph-name="h" horiz-adv-x="431" unicode="h"/>
<glyph d="M233 527q14 0 23 -7.5t5 -21.5q-5 -18 -6.5 -38.5t-0.5 -35.5q1 -10 -5 -11.5t-16 3.5q-21 11 -26 34q-2 8 -3 18t-1 21q2 24 9.5 31t19.5 7h1zM105 -12q-9 0 -19 7.5t-21 27.5q-14 29 -4 60q2 8 7 23.5t10.5 33t11.5 35t10 28.5q3 9 4 13.5t2 9.5q1 13 8 29 q6 12 15.5 28.5t21 31.5t22.5 25.5t19 10.5q7 0 12 -7q5 -5 7 -15.5t-6 -24.5q-13 -22 -26.5 -49t-25.5 -55.5t-22 -56t-17 -51.5q-8 -28 -2.5 -38.5t17.5 -10.5q20 0 49 17t60.5 43t63 55.5t55.5 55.5q7 7 11.5 6.5t4.5 -8.5q0 -5 -2 -12t-9 -18q-17 -25 -42.5 -52 t-54.5 -52t-57 -44.5t-49 -28.5q-20 -10 -32.5 -13.5t-20.5 -3.5h-1z" glyph-name="i" horiz-adv-x="241" unicode="i"/>
<glyph d="M-76 -263q3 0 13.5 7t21.5 25q10 16 19.5 34.5t20.5 47.5t25 72t32 106q24 84 40 137t23 85q9 40 16.5 58t18.5 28q16 16 43 16q13 0 17 -11.5t-3 -20.5q-15 -20 -24 -39.5t-18 -46.5q-6 -17 -14.5 -45.5t-18.5 -62.5t-21 -71t-21 -71t-19 -63t-15 -47q-18 -54 -41.5 -94 t-55.5 -66q-16 -13 -28.5 -17t-20.5 -4q-10 0 -26.5 8t-30.5 21t-20.5 26t-6.5 20q1 9 7.5 16t15.5 7q8 0 17.5 -5t18 -11.5t14.5 -14.5t8 -14q2 -8 5 -9t7 -1h1zM220 557q3 0 9 -8.5t8 -13.5q3 -3 2.5 -8t-2.5 -14q-1 -5 -2 -13.5t-2 -17.5t-2 -17t-2 -12q0 -8 -8 -16.5 t-16 -8.5q-6 0 -13 15.5t-9 28.5q-3 14 -3.5 23t-0.5 20q0 9 4.5 15.5t12.5 13.5t12.5 10t10.5 3h1z" glyph-name="j" horiz-adv-x="160" unicode="j"/>
<glyph d="M382 352q13 0 23 -10q7 -8 5.5 -16t-12.5 -19q-6 -5 -12 -5.5t-15 -1.5q-20 -1 -42 -12.5t-42 -26.5t-36 -30.5t-23 -23.5q-8 -9 -10 -17t6 -22q6 -14 18.5 -36.5t28.5 -44t32 -37.5t30 -16q19 0 40 13.5t39.5 32.5t34.5 40t27 36q5 7 10.5 7t7.5 -5q3 -11 -9 -32 q-20 -35 -42.5 -61t-45 -43.5t-43.5 -26.5t-37 -9q-17 0 -37 14.5t-39 42.5q-15 23 -27 42.5t-25 39.5q-11 16 -20 16.5t-20 -10.5q-20 -22 -28.5 -44.5t-12.5 -52.5q-3 -17 -16 -28t-25 -11q-5 0 -9 4t-6 15q-1 9 0.5 21t7.5 37q8 31 29.5 108.5t61.5 187.5q28 77 52 128 t38 74q10 16 18 22.5t16 6.5t13.5 -3t10.5 -9q5 -8 6 -14.5t-6 -16.5q-25 -35 -49.5 -85t-45.5 -103t-37 -102t-25 -81q-5 -20 9 -5l24 24t38.5 37t46 41t45.5 35q32 22 48.5 28.5t29.5 6.5h1z" glyph-name="k" horiz-adv-x="393" unicode="k"/>
<glyph d="M60 56q0 16 16 85.5t63 184.5q27 67 47.5 113.5t35 77t23.5 46.5t14 22q7 9 16 9t14 -6q14 -16 11.5 -31t-13.5 -34q-33 -62 -60 -121.5t-47.5 -112t-35 -95t-21.5 -70.5q-7 -25 -8.5 -40.5t0.5 -23.5t6 -11t9 -3q13 0 39.5 16t57.5 41t63 55t56 59q5 5 8.5 3.5t3.5 -7.5 t-2.5 -14.5t-9.5 -19.5q-15 -23 -46.5 -55t-68 -61.5t-73.5 -50.5t-63 -21q-16 0 -25.5 18.5t-9.5 45.5v1z" glyph-name="l" horiz-adv-x="229" unicode="l"/>
<glyph d="M370 352q11 0 19.5 -15.5t-1.5 -41.5q-4 -9 -13 -34.5t-19.5 -54t-19 -52.5t-10.5 -31q-3 -17 1 -21q5 -4 20 12q16 18 36 40t40 44.5t39.5 43.5t35.5 38.5t27 29.5t14 15q18 18 29 18q10 0 19 -11.5t9 -25.5q-1 -8 -4.5 -12.5t-11.5 -10.5l-10 -10t-10 -15 q-9 -17 -21 -53.5t-20 -82.5q-7 -43 -1.5 -64t28.5 -21q30 0 74.5 37.5t111.5 124.5q12 13 17 3q3 -10 -11 -33q-30 -48 -60.5 -82.5t-58 -56t-51.5 -31.5t-42 -10q-14 0 -26.5 7.5t-21 22t-12 36.5t0.5 51q4 30 10 55t11 44q3 18 -12 1q-13 -15 -36 -41t-47.5 -53.5 t-46.5 -52t-33 -35.5q-15 -15 -23.5 -21t-16.5 -6q-13 0 -15 26.5t9 64.5q2 9 7.5 27t11.5 37t11 36t8 26q7 20 0 24q-5 3 -18 -10q-6 -4 -19 -18.5t-30.5 -35t-36.5 -44t-36.5 -45t-31.5 -39t-21 -25.5q-11 -12 -19 -19t-14 -7q-11 0 -19 16.5t-4 51.5q1 10 6 28.5 t11.5 42.5t15 52t17.5 57q2 6 2 9.5t2 8.5q0 12 7 37q2 8 4.5 18.5t6.5 19.5t9 15t13 6q9 0 18 -10q11 -11 14 -24t-6 -31q-8 -14 -16 -37.5t-15.5 -48.5t-14 -48t-10.5 -36q-6 -20 -1.5 -25t13.5 6q37 45 75.5 91.5t76.5 84.5q20 21 32 32.5t23 21.5q20 19 30 19h1z" glyph-name="m" horiz-adv-x="627" unicode="m"/>
<glyph d="M182 367q13 0 22 -15t9 -26q0 -8 -9 -10q-8 -2 -13.5 -8.5t-12.5 -18.5q-5 -10 -11.5 -26.5t-13 -36t-12 -38.5t-8.5 -34q-2 -8 1.5 -9.5t8.5 5.5q12 17 32 39t41.5 43.5t40.5 39t30 25.5q22 17 30.5 22.5t15.5 8.5q12 5 19 18q5 6 9.5 10.5t9.5 4.5q10 0 20 -13 q8 -8 7 -17.5t-6 -21.5q-6 -11 -14.5 -23t-15.5 -28q-14 -29 -26.5 -65.5t-20.5 -67.5q-7 -28 -7 -47t4.5 -31t12.5 -17t18 -5q18 0 42.5 17.5t51.5 44t52.5 56.5t44.5 55q10 14 14 3q5 -11 -10 -33q-34 -53 -64.5 -89.5t-58 -59t-51.5 -32t-43 -9.5q-33 0 -51.5 37.5 t-2.5 110.5q7 33 15.5 60.5t14.5 44.5q5 13 5.5 18t-1.5 7q-4 4 -22 -12q-34 -30 -61.5 -60t-49.5 -58.5t-37.5 -53t-25.5 -42.5q-5 -9 -13 -19.5t-16 -10.5q-9 0 -19 13q-4 5 -3 18t4 26q23 101 45 172t36 97q14 27 23.5 34t18.5 7h1z" glyph-name="n" horiz-adv-x="424" unicode="n"/>
<glyph d="M52 55q0 27 9.5 58.5t19.5 54.5q6 11 15 26t18.5 30t18 27t12.5 17q5 8 8.5 14.5t3.5 15.5q1 11 4.5 17.5t9.5 11.5q8 9 25 9q8 0 12.5 3t9.5 8q10 15 29 15q15 0 20.5 -7.5t5.5 -17.5v-8t5 -7q18 -13 33.5 -37.5t15.5 -66.5q0 -11 -4 -26.5t-10.5 -33.5t-16.5 -36 t-22 -33q-41 -52 -87 -76t-81 -24q-9 0 -18.5 5.5t-17.5 14.5t-13 20.5t-5 24.5v1zM110 70q0 -15 7.5 -24t18.5 -9q14 0 30 7t33 24q12 12 26 31t25 40.5t18.5 43t7.5 39.5q0 11 -1.5 23t-5.5 21.5t-11.5 16t-20.5 6.5q-10 0 -19.5 -8.5t-23.5 -25.5q-12 -14 -26.5 -36 t-27.5 -47.5t-21.5 -52t-8.5 -48.5v-1z" glyph-name="o" horiz-adv-x="305" unicode="o"/>
<glyph d="M323 344q11 0 18.5 -8.5t12.5 -20t7.5 -22.5t2.5 -17q0 -23 -6.5 -46t-15 -43t-17 -34.5t-13.5 -21.5q-10 -14 7 -6q15 6 39.5 20t51 32t51 37.5t41.5 36.5q12 12 14.5 0.5t-11.5 -30.5q-18 -23 -46.5 -47.5t-60.5 -46t-63 -38.5t-54 -26q-17 -7 -28 -13.5t-25 -16.5 q-8 -5 -21.5 -11.5t-28.5 -13t-29 -12t-21 -6.5q-10 -2 -14 -2t-8 1t-8 4.5t-7 7.5q-7 5 -11 -7q-1 -2 -6.5 -17.5t-13.5 -38.5t-17.5 -49.5t-17.5 -50t-14 -40.5t-7 -21q-6 -20 7 -25q7 -2 25 -3.5t48 0.5q22 1 22 -6q-1 -4 -7 -9.5t-21 -10.5q-8 -3 -23.5 -8t-32.5 -9.5 t-32 -7.5t-23 -3q-7 0 -12 2t-10 10q-9 13 2 38q2 6 15 43t32 95t42 132.5t45 155.5q7 28 12.5 47.5t9 34t6 24.5t5.5 20q5 20 9.5 31.5t11.5 20.5q9 14 21.5 21t22.5 7q14 0 24 -13q5 -6 3.5 -11t-6.5 -10q-17 -14 -28.5 -39.5t-25.5 -73.5q-3 -10 1 -10.5t9 4.5 q10 12 24.5 26.5t31 29t34.5 28t37 22.5q17 8 25.5 11t13.5 3h1zM284 283q-3 0 -15.5 -5t-36.5 -25q-56 -47 -86 -91t-46 -96q-3 -11 -0.5 -17t14.5 -6q9 0 31.5 7t45.5 18q20 10 33 20.5t23 23.5q9 12 19.5 29.5t20 37.5t16 40t6.5 37q0 9 -4.5 18t-19.5 9h-1z" glyph-name="p" horiz-adv-x="368" unicode="p"/>
<glyph d="M347 352q12 0 18.5 -5.5t11.5 -12.5q5 -8 3 -19t-8 -18q-5 -7 -6.5 -15t-3.5 -25q-1 -11 -5 -29t-9 -38t-10.5 -41t-10.5 -37l-7.5 -22.5t-13 -38t-16 -46.5t-17 -49t-15.5 -44t-12 -31q-5 -13 -6 -20.5t0 -12.5t3.5 -8.5t6.5 -6.5q8 -7 6.5 -15t-9.5 -19 q-6 -8 -15 -22.5t-18 -31.5t-18 -35.5t-15 -34.5q-5 -12 -11 -17t-11 -5q-8 0 -13 14t2 45q3 15 15.5 53.5t29 86t32.5 95t27 79.5q16 50 22.5 73.5t10.5 34.5q3 12 2.5 16.5t-3.5 4.5t-7.5 -4t-16.5 -16q-23 -26 -41 -45.5t-34 -34t-29.5 -25t-26.5 -19.5q-33 -20 -55 -20 q-14 0 -26 23t-9 60q1 21 11 46.5t25.5 51t37 50t46.5 45.5q46 38 95.5 61.5t91.5 23.5h1zM89 77q0 -8 3.5 -16.5t11.5 -8.5q6 0 21.5 8.5t38.5 28.5q63 59 97.5 103.5t45.5 68.5q10 21 3 29q-4 6 -16 6q-25 0 -60 -22.5t-72 -64.5q-38 -46 -55.5 -81t-17.5 -50v-1z" glyph-name="q" horiz-adv-x="351" unicode="q"/>
<glyph d="M333 354q16 0 23.5 -10.5t5.5 -24.5q-2 -9 -7.5 -19.5t-11.5 -16.5q-12 -14 -23 -5q-5 3 -10.5 6t-12.5 3q-11 0 -25.5 -14.5t-31.5 -34.5q-42 -49 -74 -106.5t-61 -119.5q-8 -19 -23 -19q-14 0 -23 14q-9 12 0 35q7 16 14.5 47t14.5 64.5t13 65t9 49.5q4 26 7.5 39 t10.5 20q6 7 16 16.5t18 9.5q11 0 17 -11.5t5 -20.5q0 -8 -3 -14l-6 -12q-5 -10 -10.5 -26t-10.5 -33.5t-9 -34t-5 -26.5q-3 -21 11 -2q10 15 23 33.5t28 37t30 36.5t30 32q20 20 37 31t33 11h1z" glyph-name="r" horiz-adv-x="279" unicode="r"/>
<glyph d="M255 350q22 0 35 -7q16 -10 16 -22q0 -9 -9 -13.5t-22 -4.5q-21 0 -43 -8t-40 -20.5t-29.5 -28t-11.5 -30.5t6.5 -29t18.5 -30q15 -22 26 -44.5t11 -41.5q0 -14 -7.5 -27.5t-17.5 -21.5q-11 -9 -31 -20t-36 -17q-19 -8 -34 -8q-11 0 -24.5 6.5t-15.5 18.5q1 5 3 9.5 t7 9.5q17 17 30 23q12 4 20 -1q7 -3 14 -4.5t17 0.5q8 2 16 8t8 14q0 10 -5.5 23t-13.5 26q-10 15 -20 31t-15 27q-10 20 -10 40q0 26 19 54.5t42 48.5q20 17 46.5 28t48.5 11h1z" glyph-name="s" horiz-adv-x="233" unicode="s"/>
<glyph d="M149 44q16 0 35.5 7t38 16t33.5 18.5t24 15.5q11 8 13.5 0t-5.5 -16q-13 -13 -47.5 -38.5t-95.5 -48.5q-11 -5 -20 -6t-16 -1q-8 0 -17.5 3.5t-18 10t-14.5 16t-6 22.5q0 17 12 49q4 10 11 32.5t15 47t15.5 45t10.5 28.5q4 11 -7 10q-9 -1 -23 -2.5t-22 -2.5 q-12 -1 -21 6q-5 5 -4 12t6 12q5 6 10.5 9t16.5 5t24.5 4t27.5 4q8 2 11.5 5t5.5 8t8.5 22.5t13.5 38t14 39.5t11 27q4 11 16 21t23 10q10 0 16 -11q10 -16 0 -35q-20 -40 -32.5 -71.5t-15.5 -38.5q-2 -6 1 -7t9 -1q11 0 31 1.5t43.5 2.5t48.5 2t46 1q8 0 10 -3t0.5 -6.5 t-6.5 -7.5t-11 -5q-20 -5 -64 -13t-116 -17q-8 -2 -11.5 -3.5t-6.5 -9.5q-7 -17 -14.5 -38.5t-14.5 -43.5t-12.5 -42t-7.5 -33q-9 -50 27 -50h1z" glyph-name="t" horiz-adv-x="266" unicode="t"/>
<glyph d="M357 48q15 0 40 16t54.5 41t60 54.5t54.5 55.5q13 13 15 -2q1 -6 -2.5 -15t-11.5 -19q-57 -72 -107 -112t-76 -55q-23 -13 -39 -17t-25 -4q-17 0 -27.5 22.5t0.5 73.5q4 25 10.5 48.5t10.5 36.5q2 8 -0.5 9.5t-8.5 -6.5q-20 -27 -44 -52.5t-47.5 -47.5t-45.5 -39t-39 -27 q-14 -8 -23.5 -11.5t-19.5 -3.5q-11 0 -20.5 16.5t-9.5 40.5q0 11 5.5 37.5t26.5 81.5q9 26 20 52t21.5 48t19.5 39t15 25q9 16 21 16q11 0 20.5 -8.5t9.5 -21.5q0 -5 -3.5 -13.5t-9 -18t-10.5 -18t-8 -12.5q-6 -8 -11.5 -15.5t-10.5 -16.5q-6 -12 -14.5 -34t-21.5 -62 q-13 -35 -9.5 -50t14.5 -15q20 0 46.5 25.5t72.5 76.5q18 21 35.5 44.5t32 44.5t25.5 38.5t18 28.5q12 20 19 26t13 6q11 0 20 -12.5t4 -25.5q-2 -8 -5.5 -14.5t-8.5 -17.5q-22 -45 -36 -93.5t-22 -84.5q-8 -35 -3.5 -47t14.5 -12h1z" glyph-name="u" horiz-adv-x="451" unicode="u"/>
<glyph d="M338 351q8 0 14 -5.5t9.5 -13t5.5 -16.5t3 -15q0 -8 8 -15q9 -6 26.5 -9.5t35.5 -3.5q31 0 56 8.5t40 20.5q10 7 10.5 -1.5t-7.5 -18.5q-21 -23 -53 -35t-67 -12q-19 0 -31.5 1.5t-18.5 3.5q-7 2 -11 -9q-18 -39 -43.5 -74t-53 -64t-55 -51t-49.5 -34q-21 -11 -34 -13.5 t-24 -2.5q-5 0 -12 3.5t-13 12t-9.5 22t-1.5 33.5q1 10 3.5 23.5t7 32t12.5 43t20 56.5q2 5 3 10.5t3 10.5q2 6 2.5 10.5t1.5 9.5q3 11 8 26t11.5 28t14.5 22t17 9q11 0 16 -19t5 -37q-1 -13 -5 -23t-12 -24q-15 -27 -26.5 -55.5t-22.5 -74.5q-8 -36 -2.5 -48.5t14.5 -12.5 q16 0 38 16q18 13 38.5 33t40.5 44t36.5 50.5t26.5 52.5q4 11 -2 18q-7 7 -11.5 18t-4.5 23q0 7 4 15t10 15t13.5 11.5t13.5 4.5h1z" glyph-name="v" horiz-adv-x="356" unicode="v"/>
<glyph d="M509 353q8 0 15 -5.5t12 -13t8.5 -15.5t5.5 -13q3 -9 11 -14q10 -6 30.5 -8t44.5 1t47.5 11t40.5 22q10 8 11.5 -0.5t-8.5 -19.5q-17 -18 -40 -29.5t-47.5 -17.5t-47.5 -6.5t-39 2.5q-6 1 -9 -8q-3 -8 -8.5 -22t-15.5 -34q-12 -23 -30.5 -49.5t-40 -51t-44 -45.5 t-42.5 -32q-11 -7 -22.5 -12t-22.5 -5q-17 0 -29 23t-10 65q1 22 4 43.5t9 39.5q3 10 -0.5 11.5t-14.5 -9.5q-15 -15 -33 -33.5l-36 -37t-33 -34.5t-23 -25q-37 -40 -63 -40q-11 0 -18 9.5t-11 23.5t-3 40t18 69q8 22 18.5 48t20.5 50.5t19 45t15 32.5q7 15 15.5 23t17.5 13 q5 2 9 3t9 1q8 0 14 -9.5t6 -20.5q0 -8 -3 -15.5t-12 -20.5q-7 -8 -15.5 -19t-16.5 -23q-23 -43 -36 -78t-18 -53q-5 -20 -4 -29.5t6 -12.5t13.5 2t16.5 13q7 7 24.5 26t38.5 42t42.5 46.5t38.5 41.5q27 27 36.5 42.5t12.5 25.5t9.5 16.5t12.5 10.5q13 9 23 3q8 -4 12 -13 q8 -13 -3 -30q-20 -32 -38 -78.5t-26 -92.5q-7 -42 -0.5 -55.5t14.5 -13.5q11 0 27 11.5t32 27.5q8 9 21 26t26.5 38.5t25.5 45t18 46.5q4 15 -4 22q-9 8 -16.5 20.5t-7.5 24.5q0 15 11.5 26t27.5 11h1z" glyph-name="w" horiz-adv-x="535" unicode="w"/>
<glyph d="M395 348q11 0 16.5 -4t9.5 -12q8 -11 13 -26.5t5 -28.5q0 -11 -3 -19t-9 -8q-5 0 -11.5 4.5t-13.5 14.5q-13 19 -25 19q-7 0 -20 -10t-27.5 -24.5t-29.5 -30.5t-25 -29q-17 -19 -13 -32q3 -9 9 -21.5t12.5 -25.5t13.5 -25t13 -20q9 -12 21 -22t20 -10q6 0 15.5 5t20 12 t20 14.5t15.5 13.5t8 3t1 -11q0 -11 -14 -27q-5 -6 -15.5 -16t-23.5 -19.5t-26.5 -16.5t-25.5 -7q-13 0 -30.5 17.5t-30.5 39.5q-11 22 -22.5 43t-19.5 34q-3 5 -8 7t-11 -3l-13 -13t-17 -18t-17 -22.5t-14 -25.5q-3 -14 -20 -20q-8 -4 -16 -10.5t-14 -12.5 q-14 -15 -29.5 -29t-24.5 -14q-11 0 -19 11q-5 6 -5 13.5t8 18.5q9 14 20 28t18 21q8 8 16.5 13.5t17.5 6.5q5 1 12 4t14 12q24 28 41 47t23 27q4 6 6.5 11t1.5 10q-7 18 -14 32.5t-16 34.5q-5 11 -9.5 14t-10.5 1q-23 -11 -36 -6.5t-14 11.5q0 13 21 23q22 14 27 28 q2 8 9.5 15.5t18.5 7.5t18.5 -4.5t12.5 -10.5q4 -7 5 -14.5t0 -15.5q-2 -17 5.5 -34.5t16.5 -33.5q11 -21 26 -4q18 19 32 33.5t25 25.5l19 19l15 15q11 11 23.5 18.5t26.5 7.5h1z" glyph-name="x" horiz-adv-x="394" unicode="x"/>
<glyph d="M83 239q1 16 0 23t-2 12q-2 7 -1.5 15.5t4.5 16.5l7 14t9 15.5t11 13t12 5.5q7 0 11 -9t6 -22t2 -27t-1 -24q-1 -13 -3 -34t-4.5 -44t-4.5 -44.5t-3 -33.5q-2 -28 4 -40.5t14 -12.5q16 0 45 35t69 108q16 28 18.5 40t1.5 18q-1 8 -0.5 15.5t6.5 17.5q7 11 11.5 20.5 t12.5 23.5q5 11 10.5 14.5t11.5 3.5q8 0 16.5 -12.5t8.5 -25.5q0 -8 -5 -26t-14 -38q-6 -14 -19.5 -40t-31 -55.5t-36.5 -58.5t-36 -50q-83 -101 -133.5 -167.5t-65.5 -88.5q-7 -12 -2 -13q17 -5 17 -16q0 -8 -9 -16.5t-21 -16t-23.5 -14t-17.5 -9.5q-13 -5 -19 -11t-11 -14 q-11 -17 -20.5 -27t-22.5 -10q-11 0 -17 7t-2 19q3 13 9 24t19 28q15 20 25 27t16 9q11 4 16 14q2 4 8 14t15.5 24t21 30t23.5 31q8 10 22.5 29t31 40.5t31 40.5t22.5 29q6 6 -2 4q-13 -4 -22 -4q-14 0 -20 20.5t-5 68.5z" glyph-name="y" horiz-adv-x="301" unicode="y"/>
<glyph d="M336 39q30 0 53 11t40.5 26.5t30 32t20.5 28.5q6 11 12 7t1 -15q-8 -17 -22.5 -40.5t-36 -44.5t-49 -36t-61.5 -15q-35 0 -71.5 17.5t-84.5 46.5q-8 4 -12.5 3t-10.5 -8q-4 -5 -11.5 -12t-15.5 -15t-16 -15.5t-12 -11.5q-7 -5 -13 -4.5t-9 2.5q-2 2 -5 6t-3 9q0 7 5 16.5 t12 19t14 17.5t10 13q6 6 6 20q0 17 9.5 28.5t19.5 12.5q8 0 19 -9q5 -3 8 -1.5t7 5.5q31 35 63.5 68.5t62.5 65.5q8 8 6.5 11t-9.5 4l-72 6t-33 2q-11 0 -15.5 -4t-7.5 -9q-5 -10 -5.5 -24t7.5 -34q4 -9 0 -11t-12 2q-3 1 -8.5 6.5t-11 12t-10 13.5t-7.5 13q-6 11 -5 23 t9 20q16 17 28 27t31 10q17 0 35.5 -2t49.5 -7q21 -2 37 -3.5t27 -1.5t17 2.5t9 4.5q5 2 9.5 5t12.5 3t18.5 -4.5t18.5 -12.5q8 -9 5.5 -18t-4.5 -15q-7 -11 -15 -11q-3 0 -8 0.5t-10 0.5q-11 0 -23.5 -9t-25.5 -21q-5 -5 -20.5 -21t-34 -36l-37 -40t-30.5 -34 q-8 -8 -8 -12.5t5 -8.5q10 -8 25 -18t32.5 -18t35.5 -13.5t33 -5.5h1z" glyph-name="z" horiz-adv-x="409" unicode="z"/>
<glyph d="M363 519q9 0 14.5 -4t11.5 -9q9 -8 -4 -26q-8 -10 -17 -15.5t-20 -0.5q-13 6 -26 5q-16 0 -32 -17t-24 -37t-12 -55.5t-8 -67.5q-2 -16 -6 -33t-11.5 -31.5t-19.5 -25.5t-28 -15q-17 -3 -8 -11q15 -18 22 -35t5 -37q-2 -23 -16.5 -53.5t-35.5 -62.5q-5 -8 -13 -20.5 t-15 -26t-12.5 -26t-6.5 -21.5q-2 -17 7.5 -28.5t24.5 -11.5q11 0 28.5 5.5t27.5 5.5q12 0 18.5 -5.5t6.5 -10.5q-2 -7 -10 -12q-8 -4 -21 -8t-28 -7t-29 -4.5t-24 -1.5q-20 0 -33 11q-9 6 -15 22t-4 30q1 14 4 26.5t13 34.5q9 23 25.5 48.5t31.5 51.5t18.5 41.5t4.5 27.5 q2 15 -4.5 29t-19.5 21q-4 2 -9 2.5t-10 0.5q-8 -2 -14 3.5t-6 12.5q0 6 4.5 12t11.5 10.5t15.5 7t15.5 2.5q10 1 22 4.5t21 12.5q9 10 15 40t7 62q2 31 9.5 59.5t26.5 54.5q18 24 36.5 38t38.5 23q19 9 33 12t22 3h1z" glyph-name="braceleft" horiz-adv-x="310" unicode="{"/>
<glyph d="M174 750v-1000h-48v1000h48z" glyph-name="bar" horiz-adv-x="180" unicode="|"/>
<glyph d="M294 518q23 0 42.5 -17.5t19.5 -43.5q-1 -20 -18 -55.5t-43 -77.5q-24 -41 -30.5 -63t-7.5 -35q-1 -7 -0.5 -15t3.5 -15.5t9 -12.5t16 -5q3 0 10.5 1t11.5 1q11 0 18.5 -10.5t7.5 -20.5q-1 -9 -8 -11.5t-15 -2.5q-35 0 -55 -12t-29.5 -32.5t-12.5 -46.5t-4 -54 q-1 -27 -9.5 -50t-20.5 -41.5t-26.5 -32.5t-28.5 -23q-19 -13 -47 -22.5t-46 -9.5q-14 0 -23.5 9t-9.5 18q0 8 11 19.5t23 11.5q8 0 16.5 -4.5t19.5 -4.5q14 0 29 9.5t27.5 26.5t21 41.5t9.5 54.5q1 15 2 35.5t6 38.5q6 34 25 50t37 25q8 5 10.5 7.5t-2.5 5.5t-11 10.5 t-11.5 17t-8.5 20t-2 19.5q1 18 8.5 37.5t17.5 39t21 38.5t21 36q17 29 24 44t8 29q1 15 -8.5 24.5t-28.5 9.5q-13 0 -30 -3.5t-28 -8.5q-8 -3 -13.5 1t-0.5 12q3 5 9.5 10t19.5 10q18 8 36.5 13t36.5 5h1z" glyph-name="braceright" horiz-adv-x="316" unicode="}"/>
<glyph d="M246 258q19 0 39 -9.5t46 -32.5q20 -17 36.5 -26.5t33.5 -9.5q19 0 33.5 16.5t20.5 44.5q3 16 14.5 19.5t18.5 -3.5q6 -6 9 -17.5t-2 -25.5q-13 -38 -41.5 -62t-60.5 -24q-26 0 -50 14.5t-43 30.5q-18 14 -32.5 22.5t-30.5 8.5q-20 0 -37 -19t-22 -43q-6 -19 -18 -17.5 t-18 9.5t-5.5 19.5t6.5 25.5q11 25 24 40.5t26.5 24t26.5 11.5t25 3h1z" glyph-name="asciitilde" horiz-adv-x="471" unicode="~"/>
<glyph d="M166 259q-9 0 -16 5.5t-11.5 13.5t-7 16.5t-2.5 14.5q0 17 13.5 29t30.5 12t26.5 -16t9.5 -29q0 -8 -4 -16t-10 -14.5t-13.5 -11t-14.5 -4.5h-1zM40 -120q-14 0 -23 15t-12 29q-4 21 10 37q9 7 15 15.5t17 32.5q11 23 26 59t38 99q6 16 14 21t13 5q7 0 9.5 -11.5 t-6.5 -47.5q-2 -8 -9 -32t-17 -56.5t-21.5 -69.5t-22.5 -71q-8 -25 -30 -25h-1z" glyph-name="exclamdown" horiz-adv-x="155" unicode="¡"/>
<glyph d="M90 155q0 34 27 83t82 98q32 28 63 39.5t48 15.5q8 1 12 12q10 28 16 46t10.5 29t7 17t5.5 11q6 10 11 12.5t11 2.5t15 -12.5t2 -26.5q-3 -8 -12 -28.5t-23 -54.5q-3 -9 2 -9q6 -1 15 -4t18 -7.5t15 -9.5t6 -10q-1 -9 -12 -14t-27 -7q-12 -1 -31 6q-9 3 -11 -7 q-21 -50 -43 -104.5t-42 -111.5q-4 -10 4 -8q50 12 90.5 40t71.5 63q8 8 12 6.5t2 -8.5q-2 -8 -5 -16.5t-17 -25.5q-32 -38 -76 -65.5t-92 -38.5q-8 -2 -11.5 -5t-6.5 -10q-15 -42 -20.5 -60.5t-7.5 -24.5q-2 -8 -6.5 -18t-11.5 -18q-14 -14 -22 -14q-7 0 -11 13t6 34 q3 6 13 30t24 56q2 6 0.5 8t-7.5 2q-47 0 -70.5 24t-23.5 69v1zM146 162q0 -32 17.5 -43t39.5 -12q8 0 13 11q21 54 40.5 108.5t41.5 110.5q4 10 -5 8q-17 -2 -48.5 -25t-64.5 -71q-19 -27 -26.5 -47.5t-7.5 -38.5v-1z" glyph-name="cent" unicode="¢"/>
<glyph d="M194 261q9 0 12 9q29 80 56 118.5t50 52.5q17 11 27.5 14t21.5 3q13 0 26 -4.5t23.5 -12t17.5 -18.5t7 -23q0 -5 -1.5 -11t-4.5 -9t-7.5 -3t-7.5 4q-6 10 -20.5 18.5t-31.5 8.5q-10 0 -21 -5.5t-26 -21.5q-14 -16 -29.5 -48.5t-26.5 -65.5q-4 -10 5 -11q34 -5 67 -7.5 t59 1.5q26 5 7 -19q-12 -13 -30 -18t-30 -5q-18 0 -49 3q-9 2 -20 3t-19 1q-7 1 -10 -8t-10.5 -27.5t-15.5 -38.5t-16 -37.5t-12 -25.5q-7 -8 3 -13q16 -6 35.5 -13t39.5 -12t39.5 -8.5t36.5 -3.5q35 0 67 12.5t55 41.5q8 11 12 8t3 -9q-2 -11 -13.5 -29.5t-37.5 -38.5 q-25 -19 -52.5 -26t-53.5 -7q-16 0 -36 3.5t-41.5 9.5t-42.5 14t-39 16q-7 2 -11 0t-11 -10q-16 -14 -25 -19t-17 -5q-16 0 -30 10t-14 22q0 7 6.5 15.5t17 16t22 12.5t22.5 6q7 1 10 4.5t10 15.5q4 7 10 23t13 34t13 34.5t9 25.5q3 10 -5 11q-5 1 -10 1h-12q-14 0 -26.5 -5 t-17.5 -10q-4 -4 -9 -2t-10 7t-4.5 13t5.5 13q10 11 28 18t44 7h26z" glyph-name="sterling" horiz-adv-x="458" unicode="£"/>
<glyph d="M303 379q20 0 39 -10.5t27 -15.5q6 -5 10.5 -6t10.5 3q4 3 12.5 10.5t17 16t16 16.5t10.5 11q7 10 15 10q11 0 18 -7q8 -8 7.5 -17.5t-7.5 -17.5q-9 -11 -27.5 -26t-34.5 -29q-8 -7 -9 -11.5t1 -9.5q2 -7 2.5 -15t0.5 -17q0 -7 -2.5 -18.5t-8 -24t-12.5 -25.5t-16 -23 q-5 -8 -5 -13t5 -14q3 -6 11.5 -17t17.5 -22.5t17 -21.5t11 -14q10 -18 -4 -29q-4 -3 -9.5 -4t-13.5 4q-6 3 -29.5 23t-48.5 51q-4 5 -9 3.5t-10 -3.5q-29 -14 -53 -20.5t-33 -6.5q-7 0 -14.5 2t-14.5 4q-4 2 -10 1t-15 -8q-3 -2 -11.5 -9t-19 -15.5t-19 -16t-11.5 -9.5 q-9 -7 -19 -3q-4 3 -8 9t-4 12q0 12 12 24l15 12.5t17.5 15t15.5 13.5t9 8q4 6 -4 19q-5 7 -9 21t-4 31q0 21 4.5 37.5t11.5 29t14.5 22t13.5 16.5q10 12 4 19q-5 8 -13.5 19.5t-13.5 19.5q-6 11 -8 22t8 22q4 5 8.5 5t8.5 -2q3 -2 10.5 -10.5t16.5 -18t16.5 -17.5t9.5 -11 q5 -5 10 -1q9 6 30.5 16.5t44.5 10.5h1zM292 328q-24 0 -44.5 -10t-35.5 -26.5t-24 -38.5t-9 -45q0 -19 6.5 -32t16.5 -20.5t21 -11t19 -3.5q10 0 27.5 4t30.5 14q23 17 40 45t16 54q1 30 -17 50t-46 20h-1z" glyph-name="currency" horiz-adv-x="427" unicode="¤"/>
<glyph d="M312 157q23 0 36.5 1.5t22.5 4.5q9 2 13.5 -4.5t4.5 -15.5t-3.5 -13t-9.5 -7q-4 -1 -17 -1.5t-30.5 -0.5t-37.5 0.5t-37 0.5q-7 0 -12 -9q-6 -16 -11.5 -36t-6.5 -30q-1 -14 11 -14q10 0 23 -0.5t25 -0.5q18 -1 18 -9q0 -11 -34 -17q-35 -8 -71.5 -13t-68.5 -5 q-13 0 -24.5 4t-11.5 11q0 3 5.5 8.5t19.5 9.5q11 3 21 4t17 3q9 1 13 15q5 14 11.5 33t12.5 36q2 8 -6 8q-48 -3 -69 -9t-27 -9q-4 -2 -9.5 -3t-7.5 3q-4 5 -4 11q0 11 6 17.5t13 10.5q22 13 110 15q10 0 11 7q4 10 8 21t6 19q3 10 -8 9q-42 -5 -62 -9t-28 -7t-12.5 -3 t-8.5 2q-8 3 -10 7t-2 9t4.5 11t14.5 11q8 3 22 5.5t30 4.5t31.5 3t26.5 2q6 1 7.5 2t2.5 6q1 12 2 32.5t0 40.5q0 12 -1 24.5t-4 23.5t-8.5 18t-15.5 7q-8 0 -17.5 -4t-19.5 -8q-11 -5 -23 5q-9 9 -9 20q0 8 9.5 14t23 10.5t28 6.5t24.5 2q33 0 50 -27q6 -12 8.5 -28.5 t3 -34.5t-0.5 -36.5t-2 -33.5q0 -7 2.5 -8.5t5.5 3.5q6 8 19.5 24t30.5 34.5t34.5 37t30.5 30.5q8 7 19.5 16t24.5 17t26.5 13t26.5 5t26 -8t13 -19q0 -5 -5 -11t-12 -9q-10 -5 -19 -6t-21 0q-11 1 -19.5 -2.5t-22.5 -14.5q-8 -7 -24.5 -24t-34.5 -36.5t-34.5 -38.5 t-24.5 -30q-5 -7 5 -7q16 0 33 1.5t32 3.5t27 4t17 3q8 4 13.5 -3.5t4.5 -13.5q-1 -10 -7.5 -17.5t-20.5 -8.5q-6 0 -19.5 -0.5t-30 -1.5t-35 -1.5t-36.5 -1.5q-16 -2 -20 -9q-5 -8 -9 -18t-11 -25q-4 -9 4 -9h45z" glyph-name="yen" horiz-adv-x="410" unicode="¥"/>
<glyph d="M174 675v-350h-48v350h48zM126 175h48v-350h-48v350z" glyph-name="brokenbar" horiz-adv-x="180" unicode="¦"/>
<glyph d="M241 365q0 -10 4 -19.5t16 -21.5q12 -13 33.5 -35.5t47.5 -54.5q20 -24 27.5 -47t7.5 -36q0 -31 -11 -54t-25.5 -39t-28 -25.5t-18.5 -14.5q-10 -9 -10 -15q2 -8 2 -13.5t-1 -13.5q-2 -24 -16 -46.5t-33.5 -41t-41 -31.5t-38.5 -19q-20 -6 -32.5 -7t-22.5 2t-18 3t-14 -1 q-17 -4 -29 3.5t-14 18.5q-1 5 -1.5 9t-0.5 9q-1 15 11 26q16 13 32 10q14 -2 27.5 -10t12.5 -19q0 -5 3.5 -5.5t11.5 -0.5q11 0 33 7.5t41 26.5q17 16 27 30.5t10 28.5t-7.5 31t-37.5 47q-17 17 -32.5 33.5t-27.5 34.5t-19 37t-7 42q0 42 22.5 74.5t53.5 57.5q11 7 10 12 q-1 4 -1 7.5v6.5q0 17 13.5 41t33.5 40q19 16 42.5 25.5t46.5 13.5q9 2 17 4t14 4q13 6 29 6q17 0 27 -8.5t13 -15.5q8 -17 -6 -28q-4 -3 -9 -6.5t-13 -6.5q-8 -4 -15.5 -4t-13.5 6q-8 5 -15 8.5t-15 3.5q-13 0 -29.5 -6.5t-31 -16.5t-24.5 -22t-10 -24v-1zM151 219 q0 -15 5.5 -32.5t24.5 -40.5q18 -23 38 -45.5t34 -37.5q12 -12 22 -5q18 12 34 32t16 41q0 11 -5 25t-20 35q-7 10 -20 25t-26.5 29.5t-25 26.5t-14.5 15q-7 9 -20 1q-4 -2 -11 -9t-14 -16.5t-12.5 -21t-5.5 -21.5v-1z" glyph-name="section" horiz-adv-x="381" unicode="§"/>
<glyph d="M257 483q22 0 27.5 -13t5.5 -22q0 -14 -14 -27.5t-27 -13.5q-12 0 -23 12.5t-11 26.5q0 18 12 27.5t29 9.5h1zM374 481q12 0 23.5 -11.5t11.5 -23.5q0 -17 -16.5 -28t-33.5 -11q-8 0 -18.5 8.5t-10.5 22.5t11.5 28.5t31.5 14.5h1z" glyph-name="dieresis" horiz-adv-x="372" unicode="¨"/>
<glyph d="M355 461q44 0 87 -16t76.5 -45.5t54.5 -72t21 -96.5q0 -41 -20.5 -82.5t-55.5 -74.5t-81 -53.5t-98 -20.5q-45 0 -85.5 18.5t-71 50.5t-48.5 74.5t-18 90.5q0 43 19.5 83.5t52.5 72.5t76 51.5t90 19.5h1zM346 422q-40 0 -74.5 -16t-59.5 -43t-39 -63t-14 -76 q0 -33 15.5 -66t41 -58.5t58.5 -41.5t69 -16q39 0 76 13.5t66 37t46.5 56t17.5 70.5q0 44 -14.5 81.5t-41.5 64.5t-64 42t-82 15h-1zM383 350q17 0 27 -4.5t15 -10t6.5 -11.5t1.5 -9q0 -6 -4.5 -11t-9.5 -9q-8 -5 -19 0q-6 2 -14.5 6t-19.5 4q-8 0 -19 -9.5t-21.5 -23 t-17.5 -29.5t-7 -29q0 -19 12 -33t32 -14q11 0 21 3l20 6q8 4 21.5 10.5t18.5 6.5q13 0 13 -13q0 -5 -6 -13.5t-22 -18.5q-17 -12 -40.5 -19t-39.5 -7q-11 0 -25 5.5t-26 16t-20 27t-8 38.5q0 14 5.5 29.5t14 30.5t19 28t21.5 22l20 15t15.5 9.5t15.5 5t19 1.5h1z" glyph-name="copyright" horiz-adv-x="577" unicode="©"/>
<glyph d="M295 472q5 0 10.5 -5.5l10.5 -10.5q4 -6 12 -1q8 8 16 1q15 -9 8 -23q-17 -35 -27.5 -69t-12.5 -63q-2 -22 3 -37t14 -15q11 0 22.5 7.5t23.5 18.5q8 6 13 0t-5 -17q-22 -28 -45 -42t-36 -14q-11 0 -21 14t-12 37q-1 13 -1 26.5v18.5q1 3 -1.5 4t-5.5 -4q-4 -5 -14 -14.5 t-21.5 -20.5t-23 -21t-18.5 -16q-27 -24 -50 -24q-6 0 -19 8t-13 29q0 9 5.5 28.5t23.5 52.5q16 29 42.5 63t55.5 58q24 20 39.5 25.5t25.5 5.5h1zM272 431q-5 0 -17.5 -10t-26.5 -26q-29 -32 -44 -63.5t-20 -49.5q-4 -11 -2.5 -17.5t7.5 -6.5q7 0 28 16q10 8 23 21.5 t26.5 29.5t24.5 32t16 29q5 11 5.5 18t-1.5 12t-7 10t-11 5h-1z" glyph-name="ordfeminine" horiz-adv-x="294" unicode="ª"/>
<glyph d="M140 148q0 5 7.5 16t23.5 23q7 6 26 22t40.5 34.5t41 35.5t28.5 25q8 6 12.5 9t9.5 3q7 0 8 -9t-1 -15q-3 -12 -13 -26q-3 -4 -17 -16.5t-31 -26.5t-32.5 -27.5t-21.5 -18.5q-8 -8 -8 -13t8 -12q4 -3 13 -12t19 -20.5t19 -22.5t14 -18q10 -15 11.5 -31.5t-13.5 -24.5 q-13 -6 -19 8q-5 10 -15 23t-21.5 26t-24 24t-21.5 17q-15 8 -24 7q-8 -1 -13.5 4.5t-5.5 14.5v1zM295 153q1 7 10.5 18.5t21.5 21.5q18 15 29 25.5t20.5 19.5t19.5 18.5t25 22.5q11 9 18 11.5t11 2.5q8 0 11.5 -9.5t1.5 -19.5q-2 -7 -5 -10t-8 -5q-9 -3 -20.5 -11.5 t-23.5 -19.5t-23 -22l-18 -18q-12 -15 -3 -22q17 -14 35.5 -32t26.5 -30q10 -14 13.5 -22t2.5 -16q0 -10 -7 -18q-2 -4 -8.5 -3.5t-10.5 3.5q-2 2 -8 9.5t-13.5 17.5t-16 20t-16.5 18q-17 14 -26 19t-13 5q-11 0 -18.5 6.5t-7.5 18.5v1z" glyph-name="guillemotleft" horiz-adv-x="465" unicode="«"/>
<glyph d="M286 269h50t59 0.5t57.5 1t44.5 2.5q8 0 16 -5.5t11 -10.5q4 -6 3.5 -15.5t-2.5 -26.5q-1 -9 -2 -23.5t-2 -29.5t-2 -29t-1 -23q0 -4 0.5 -15.5t2.5 -18.5q3 -13 -8 -24q-5 -5 -14 -9.5t-17 -4.5q-13 0 -16 20q-2 10 0 33.5t5 46.5q4 30 4 52t-11 29q-5 4 -14 5.5 t-27 1.5q-48 0 -100.5 -2.5t-103.5 -2.5q-26 0 -47.5 5t-21.5 22q0 8 7.5 15.5t14.5 10.5q8 5 22 1q6 -2 30.5 -4t60.5 -2h1z" glyph-name="logicalnot" horiz-adv-x="552" unicode="¬"/>
<glyph d="M275 472q66 0 105 -33t39 -97q0 -29 -13.5 -54.5t-35 -45t-48.5 -31t-55 -11.5q-26 0 -49 10t-40.5 28t-28 42.5t-10.5 53.5q0 26 12.5 51t32 44.5t43.5 31t47 11.5h1zM270 442q-16 0 -33 -8.5t-31.5 -22.5t-24 -32.5t-9.5 -38.5t6.5 -40t19.5 -35.5t31 -25t41 -9.5 q22 0 43.5 8.5t37.5 23.5t25.5 36t9.5 46t-9.5 43.5t-25.5 30.5t-37 18t-43 6h-1zM273 406q23 0 41 -7.5t18 -27.5q0 -13 -9 -19.5t-16 -11.5q-3 -2 0 -7l6 -10t9 -10q5 -8 11.5 -11.5t14.5 -8.5q8 -4 -1 -8q-4 -2 -9.5 -3.5t-11.5 -1.5q-8 0 -20 6t-26 24q-9 16 -19 16 q-7 0 -8 -9q-4 -20 -5 -26.5t-4 -10.5q-6 -7 -16 -7q-8 0 -10.5 8t-0.5 18q3 14 6.5 30t5.5 30q1 8 0 14.5t-2 11.5q-2 6 6 11q5 4 10.5 5.5t8.5 2.5q7 1 11 1.5t9 0.5h1zM277 384q-3 0 -5.5 -0.5t-6.5 -2.5q-2 -1 -4 -9q-1 -4 -1.5 -10.5t-1.5 -10.5q0 -3 0.5 -4.5 t5.5 -1.5q8 0 20.5 6t12.5 18q0 4 -5 9.5t-14 5.5h-1z" glyph-name="registered" horiz-adv-x="344" unicode="®"/>
<glyph d="M271 430h-11.5t-8.5 -2q-6 -2 -14 -2q-7 0 -12.5 6t-5.5 11q0 15 11.5 23t25.5 8q25 1 47.5 -0.5t42.5 -1.5q11 0 19.5 1t12.5 2q6 2 13 2t14 -7.5t7 -13.5q0 -8 -6 -18q-4 -5 -9 -7.5t-8 -2.5q-5 0 -10.5 1t-11.5 1h-96z" glyph-name="macron" horiz-adv-x="372" unicode="¯"/>
<glyph d="M263 472q17 0 34.5 -4.5t31.5 -14.5t23 -27t9 -41t-11.5 -47.5t-30 -42t-43 -30t-49.5 -11.5q-15 0 -30.5 7t-27.5 19.5t-19.5 29t-7.5 36.5q0 21 10.5 43.5t27.5 40.5t38.5 30t43.5 12h1zM236 296q13 0 27 7.5t25.5 19t18.5 25t7 25.5q0 24 -13 40.5t-43 16.5 q-27 0 -48 -21.5t-21 -51.5q0 -10 3.5 -20.5t9.5 -19.5t14.5 -15t18.5 -6h1z" glyph-name="degree" horiz-adv-x="281" unicode="°"/>
<glyph d="M300 327q0 32 0.5 51.5t5.5 30.5q6 12 18 12q8 0 14 -3t10 -6q10 -12 6 -30q-1 -4 -2.5 -14t-2.5 -23t-2 -28t-1 -29q0 -9 1.5 -11t9.5 -2h27.5t40 0.5t38.5 0.5h23q11 0 20 -7.5t9 -18.5t-11 -16.5t-19 -5.5q-26 0 -62.5 2t-68.5 2q-8 0 -8 -11q0 -15 0.5 -32t1.5 -32 t1.5 -26.5t0.5 -15.5q0 -16 -7 -25.5t-23 -9.5q-9 0 -17 8t-7 23q2 24 2.5 53t0.5 56q0 6 -1 8t-9 2q-30 1 -59.5 0.5t-52.5 -0.5q-16 0 -24.5 6t-8.5 13q0 9 6 15t13 9t20 4t27 1q8 0 19 -0.5t22.5 -1t21.5 -1t15 -0.5q8 0 10 3t2 12v37zM484 -7q-6 0 -19.5 0.5t-31.5 1 t-39.5 1.5t-42.5 2q-22 0 -45.5 0.5t-44.5 1t-36.5 0.5h-21.5q-11 0 -21.5 -1.5t-20.5 -3.5q-11 0 -20 10.5t-9 21.5q0 13 11 17.5t32 4.5q51 0 82.5 -1t62.5 -3q18 0 38 -0.5t37.5 -1t31.5 -0.5h20q13 0 26 0.5t24 2.5q8 2 15 0.5t13 -4.5q8 -6 11 -13t3 -12 q0 -11 -16.5 -17.5t-37.5 -6.5h-1z" glyph-name="plusminus" horiz-adv-x="552" unicode="±"/>
<glyph d="M349 379q21 0 29.5 -5.5t7.5 -13.5q0 -5 -5 -10t-11.5 -9.5t-13 -8.5t-10.5 -5q-6 -2 -12 -1.5t-10 4.5q-3 3 -7.5 4t-15.5 3q-23 2 -55.5 3.5t-87.5 -3.5q-8 -1 -12 1.5t-6 6.5t0.5 9.5t12.5 14.5q7 6 14 10.5t16 10.5q5 2 16 10.5t24.5 20t27.5 24t24 23.5 q20 21 28.5 36t8.5 23q0 11 -7 18.5t-18 7.5t-23.5 -8t-32.5 -31q-8 -10 -12.5 -12.5t-10.5 -2.5q-12 0 -16 13q-2 5 -0.5 13t6.5 15q8 11 14 15.5t12 8.5q12 7 26.5 15.5t22.5 13.5q13 8 32 8q11 0 22 -6.5t20 -16t15 -22t6 -24.5q0 -16 -11.5 -34t-28 -35t-34.5 -32.5 t-31 -26.5q-8 -8 -10 -13.5t3 -7.5q6 -2 19.5 -3t32.5 -1h41z" glyph-name="twosuperior" horiz-adv-x="286" unicode="²"/>
<glyph d="M327 596q15 0 26 -5t17.5 -12.5t10 -16t3.5 -14.5q0 -20 -18 -34t-39 -25q-12 -7 -5 -11q49 -28 49 -64q0 -21 -13 -37t-32 -27.5t-41.5 -17t-41.5 -5.5q-20 0 -41 7t-32 15q-15 12 -15 28q1 5 3.5 10t7.5 10q12 10 25 -4q9 -8 28.5 -15.5t39.5 -7.5q26 0 42.5 12.5 t16.5 26.5t-16 27t-39 14q-7 1 -13.5 2.5t-14.5 7.5t-5.5 12t11.5 12q9 5 18 9t22 11q46 19 46 36q0 8 -7.5 14.5t-21.5 6.5q-6 0 -13.5 -3t-11.5 -6q-8 -6 -14.5 -9t-16.5 -3t-17.5 8t-7.5 15q0 6 8 15t19 15q12 9 25 1q8 -6 25 -2q8 2 14.5 3t17.5 1h1z" glyph-name="threesuperior" horiz-adv-x="286" unicode="³"/>
<glyph d="M244 392q0 5 10 16q16 14 39 38t57 67q8 9 14.5 14t15.5 5q15 0 27 -14t-5 -29q-58 -56 -94 -77t-45 -25q-8 -2 -13.5 -1.5t-5.5 5.5v1z" glyph-name="acute" horiz-adv-x="372" unicode="´"/>
<glyph d="M409 346q5 0 11.5 -7t8.5 -11q2 -5 0.5 -11.5t-8.5 -18.5q-24 -44 -39 -89.5t-26 -97.5q-10 -41 -3.5 -53t15.5 -12q14 0 39 16.5t54 41t59.5 53.5t55.5 53q4 5 7.5 4.5t5 -4.5t0.5 -10.5t-5 -13.5q-28 -39 -56 -68.5t-52.5 -51t-45 -35t-32.5 -20.5q-29 -16 -47.5 -20.5 t-26.5 -4.5q-16 0 -24.5 26.5t3.5 77.5q3 11 8.5 31.5t7.5 32.5q3 19 -12 2q-5 -6 -13.5 -16.5t-18.5 -22.5t-20.5 -24.5t-19.5 -22.5q-8 -9 -21.5 -23t-29 -27t-31.5 -22t-29 -9q-10 0 -16 6t-9.5 14.5t-5 17.5t-1.5 15q-2 14 -8 1q-5 -11 -13.5 -28t-17.5 -37t-17.5 -40.5 t-14.5 -37.5t-14 -39t-15.5 -42.5t-13.5 -36t-7 -19.5q-5 -14 -15.5 -24t-23.5 0q-8 5 -14 16.5t2 34.5q3 11 11.5 31t25 55.5t42.5 89t64 131.5q8 17 15 34.5t12 31.5q2 6 10 26l18 45t21 51t20 45q5 10 12 16.5t12 6.5q7 0 13 -5t10 -12q4 -8 5 -18t-4 -17q-3 -5 -12 -22 t-19 -37t-19 -39t-12 -28q-17 -49 -17 -84q-1 -20 6.5 -27.5t15.5 -7.5q15 0 40.5 21t51.5 52q42 49 75 100.5t62 95.5q13 21 29 21h1z" glyph-name="mu" horiz-adv-x="460" unicode="µ"/>
<glyph d="M108 218q0 25 11 47t29 40.5t40 32.5t43 23q29 11 60 18t61 7q7 0 11 9q11 29 26.5 58.5t35.5 45.5q15 15 34 15q10 0 16.5 -6.5t6.5 -14.5q-2 -18 -15 -23q-8 -5 -23.5 -27t-26.5 -49q-5 -10 3 -10q14 -2 29 -5t23 -9q6 -5 4.5 -12t-12.5 -15q-6 -4 -13.5 -5t-14.5 0 t-14 3t-13 4q-10 1 -12 -7q-5 -11 -12.5 -30.5t-16.5 -45t-18.5 -54.5t-18.5 -59q-4 -10 4 -10q3 0 12.5 0.5t21 2t23.5 3.5t20 5t12 1t0 -9q-4 -6 -10 -11t-12 -8q-5 -3 -14.5 -6.5t-20.5 -7t-21 -6t-17 -3.5q-9 -1 -12.5 -3t-6.5 -9l-6 -18t-8.5 -25t-8.5 -24.5t-5 -17.5 q-2 -9 1 -14t8 -7q5 -4 8.5 -7t1.5 -12q-4 -14 -21 -35q-24 -32 -43 -32q-8 0 -12 11t-2 26q1 5 7 28t13.5 48.5t14 47.5t7.5 26q4 12 -6 12q-5 0 -16.5 0.5t-26.5 3.5t-31 9t-29 16q-17 12 -32.5 33.5t-15.5 59.5v1zM228 221q0 -32 14 -53t32 -25q6 -1 10 8q2 8 10 33.5 t17.5 55.5t18.5 57.5t13 39.5q4 11 -3 11q-10 0 -23.5 -3.5t-30.5 -11.5q-26 -14 -42 -45t-16 -66v-1z" glyph-name="paragraph" horiz-adv-x="436" unicode="¶"/>
<glyph d="M210 9q7 0 7 -6.5t-8 -17.5q-8 -8 -16.5 -22.5t-8.5 -21.5q0 -8 8.5 -17t19.5 -18q9 -8 12 -18t3 -19q-1 -11 -9 -24t-22 -26q-9 -7 -20.5 -11t-23 -6t-20.5 -2h-12q-5 1 -8 0.5t-11 -2.5q-12 -3 -26 8q-9 11 -9 18q0 6 4.5 12.5t11.5 11.5t14 8.5t12 3.5q6 0 12 -6 t9 -11q2 -5 7 -6t10 -1q7 0 19.5 5.5t12.5 14.5q1 8 -4.5 15.5t-21.5 18.5q-8 8 -13 14.5t-5 14.5q0 10 8 25t19 29.5t24 25t24 10.5h1z" glyph-name="cedilla" horiz-adv-x="372" unicode="¸"/>
<glyph d="M364 602q12 0 20 -11q11 -12 0 -33q-8 -14 -15 -26.5t-13.5 -26.5t-13.5 -31t-14 -39q-7 -23 -8.5 -33.5t2.5 -22.5q5 -19 -12 -31q-11 -8 -21 -11.5t-17 -3.5t-11 7.5t-2 24.5q2 10 9.5 33t16.5 48t18 48t14 34q6 12 -9 6q-21 -9 -32 -13.5t-27 -9.5q-11 -2 -23 -2.5 t-20 1.5q-9 2 -9.5 7t9.5 10q10 4 27 11.5t36 16t37.5 17.5t31.5 18q8 5 13.5 8.5t11.5 3.5h1z" glyph-name="onesuperior" horiz-adv-x="286" unicode="¹"/>
<glyph d="M278 472q15 0 25 -10q7 -8 4 -18q-2 -3 0 -6t4 -5q11 -8 19.5 -21t8.5 -32q0 -35 -18.5 -70.5t-45.5 -61.5q-30 -26 -53.5 -36.5t-43.5 -10.5q-26 0 -46 18.5t-20 43.5q0 13 9.5 44.5t29.5 66.5q9 17 24.5 34.5t33.5 31.5t36 23t32 9h1zM256 415q-14 0 -27.5 -11 t-33.5 -41q-10 -15 -21 -43t-11 -53q0 -16 5 -21t12 -5t14 1.5t17 8.5q23 16 41 37t29 50q5 10 6 19t1 18q0 18 -9.5 29t-21.5 11h-1z" glyph-name="ordmasculine" horiz-adv-x="256" unicode="º"/>
<glyph d="M411 171q0 -13 -15 -20q-21 -12 -33 -20t-22 -16t-21.5 -18.5t-31.5 -26.5q-10 -10 -12 -15q-2 -3 -5.5 -7t-8.5 -8t-12 -8t-16 -9q-8 -5 -13.5 -3.5t-10.5 4.5q-10 8 -8 19q1 9 10 17.5t19 14.5q18 13 31.5 23t25.5 20t23 20.5t24 23.5q5 6 7 10.5t-3 9.5 q-2 3 -8.5 11.5t-15 19.5t-18 23t-16.5 21q-10 14 -13 21.5t-3 11.5q0 8 9.5 13.5t17.5 5.5q11 0 17.5 -8t13.5 -21q14 -26 24 -40.5t22 -25.5q17 -19 26 -20q8 -1 12 -8.5t4 -13.5v-1zM266 168q0 -8 -10.5 -14t-24.5 -12t-24.5 -12t-28.5 -17q-17 -12 -22 -18.5t-7 -14.5 t-7 -13.5t-14 -13.5q-8 -6 -13 -8.5t-12 -2.5t-15 6.5t-8 14.5q0 9 9.5 18.5t20.5 18.5q6 4 18.5 14.5t25.5 21.5t24 20t13 11q6 5 4.5 10t-6.5 9q-2 3 -11.5 14t-20 24t-20.5 24.5t-14 14.5q-7 6 -6.5 14t9.5 15q7 6 10 8t8 2q7 0 14 -8q6 -7 20 -27t30 -38 q12 -14 24 -22.5t20 -16.5q8 -5 11 -10.5t3 -10.5v-1z" glyph-name="guillemotright" horiz-adv-x="404" unicode="»"/>
<glyph d="M327 472q12 0 20 -11q11 -12 0 -33q-8 -14 -15 -26.5t-13.5 -26.5t-13.5 -31t-14 -39q-8 -23 -9 -33.5t3 -22.5q5 -19 -12 -31q-11 -8 -21 -11.5t-17 -3.5t-11 7.5t-2 24.5q2 10 9.5 33t16.5 48t18 48t14 34q6 12 -9 6q-21 -9 -32 -13.5t-27 -9.5q-11 -2 -23 -2.5 t-20 1.5q-9 2 -9.5 7t9.5 10q10 4 27 11.5t36 16t37.5 17.5t31.5 18q8 5 13.5 8.5t11.5 3.5h1zM617 464q8 0 16 -11.5t8 -22.5q0 -12 -10 -16q-5 -2 -13.5 -7.5t-23.5 -17.5q-7 -6 -34.5 -33.5t-66.5 -67t-85.5 -87t-92.5 -93.5q-8 -8 -13 -14t-7.5 -11.5t-4 -10t-2.5 -10.5 q-1 -5 -6.5 -13.5t-13 -18t-15.5 -18.5t-14 -15q-10 -10 -17 -13.5t-14 -3.5q-6 0 -10 3t-10 14q-5 11 -3 18.5t10 16.5q3 3 19 20t40 42t54 56.5l60 63t58 61t49 51.5q32 36 52.5 58.5t33.5 36.5t20 21t13 12q7 5 11.5 7.5t10.5 2.5h1zM556 -50q-8 0 -11 12t0 29q5 18 8 31 t6 24q5 13 -5 13q-9 0 -21.5 1t-24.5 2.5t-22.5 2.5t-14.5 2q-18 3 -26 13t-12 22q-4 16 26 30q16 9 35 20t36.5 22t30.5 19t18 11q14 9 21 14t9 16q2 9 7 12t12 -1q13 -13 29 -1q11 6 17 -6q8 -17 -6 -28q-8 -6 -12 -10.5t-6.5 -9t-5 -11t-6.5 -17.5q-2 -9 -5.5 -21.5 t-8.5 -31.5q-2 -8 -0.5 -10.5t9.5 -2.5q20 0 32.5 2t17.5 8q7 11 23 -5q16 -13 8 -26q-6 -9 -27.5 -12.5t-67.5 -3.5q-10 0 -13 -10q-2 -3 -3.5 -8t-2.5 -10q-2 -9 1 -14t8 -11q4 -5 1.5 -11t-11.5 -17q-24 -28 -42 -28h-1zM559 96q9 0 12.5 2.5t6.5 11.5q8 21 12 33t6 22 q3 11 -1.5 9.5t-15.5 -7.5q-8 -4 -14 -7.5t-14 -8t-18 -11t-25 -16.5q-14 -9 -14.5 -14t9.5 -8q8 -2 24.5 -4t30.5 -2h1z" glyph-name="onequarter" horiz-adv-x="717" unicode="¼"/>
<glyph d="M615 474q2 0 7.5 -2t11 -5t9.5 -7.5t4 -8.5q0 -8 -12 -21q-3 -2 -18 -16.5t-37 -35t-49 -46.5t-54.5 -51.5t-53 -49t-44.5 -39.5q-58 -51 -87 -77.5t-39 -37.5t-14 -18t-6 -15q-1 -8 -2 -14t-3 -12q-7 -13 -21 -13q-5 0 -14 -9t-15 -14q-10 -6 -23 2q-5 5 -9 10t-5 12 q0 10 6 20t14 18q9 11 32 32.5t45 41.5q7 6 23.5 21t40 36t52 47t58.5 55q30 28 60 58t54.5 56t41.5 44t21 23q8 9 13 12.5t12 3.5h1zM319 472q12 0 20 -11q11 -12 0 -33q-8 -14 -15 -26.5t-13.5 -26.5t-13.5 -31t-14 -39q-8 -23 -9 -33t3 -23q5 -19 -12 -30q-11 -8 -21 -12 t-17 -4t-11 7.5t-2 24.5q2 10 9.5 33t16.5 48t18 48t14 34q6 12 -9 6q-21 -9 -32 -13.5t-27 -9.5q-11 -2 -23 -2.5t-20 1.5q-9 2 -9.5 7t9.5 10t27 12.5t36 16t37.5 17.5t31.5 17q8 5 13.5 8.5t11.5 3.5h1zM628 37q21 0 29.5 -5.5t7.5 -13.5q0 -5 -5 -10t-11.5 -9.5 t-13 -8.5t-10.5 -5q-6 -2 -12 -1.5t-10 4.5q-3 3 -7.5 4.5t-15.5 2.5q-23 2 -55.5 3.5t-87.5 -3.5q-13 0 -18 8q-2 4 0.5 9.5t12.5 14.5q7 6 14 11t16 10q5 2 16 10.5t24.5 20t27.5 24t24 23.5q20 22 28.5 36.5t8.5 22.5q0 11 -7 19t-18 8t-24 -8t-32 -31q-8 -9 -12.5 -12.5 t-10.5 -3.5q-12 0 -16 14q-2 5 -0.5 13t6.5 15q8 11 14 16t12 8q15 8 28 16t21 13q13 8 32 8q11 0 22 -6.5t20 -16t15 -22t6 -24.5q0 -17 -11.5 -35t-28 -35t-34.5 -32.5t-30 -26.5q-8 -8 -10.5 -13t2.5 -7q13 -5 52 -5h41z" glyph-name="onehalf" horiz-adv-x="717" unicode="½"/>
<glyph d="M639 470q7 0 11 -8t9 -14q5 -7 6.5 -16t-3.5 -17t-13.5 -11.5t-15.5 -1.5q-7 4 -14.5 0t-18.5 -12q-7 -5 -16.5 -14t-25.5 -24t-38.5 -37.5l-55.5 -55.5q-64 -66 -98 -101.5t-50 -53.5q-12 -13 -13 -23t3 -15q6 -7 3.5 -13t-7.5 -11q-8 -7 -19.5 -17t-25.5 -22 q-20 -17 -32 -23.5t-18 -6.5q-11 0 -11 18q0 9 9.5 26.5t23.5 33.5q7 9 13.5 17.5t14 18t17 22t23.5 29.5q27 33 95.5 103.5t187.5 190.5q19 20 34 29t24 9h1zM282 465q15 0 26 -5t17.5 -12.5t10 -16t3.5 -14.5q0 -20 -18 -33.5t-40 -24.5q-12 -7 -5 -11q49 -28 49 -64 q0 -21 -13 -37t-32 -27.5t-41.5 -17t-41.5 -5.5q-20 0 -41 7t-32 15q-8 8 -11.5 13.5t-3.5 14.5q1 5 3.5 10t7.5 10q12 10 25 -4q9 -8 28.5 -15.5t39.5 -7.5q26 0 42.5 12.5t16.5 26.5t-16 27t-39 14q-7 1 -13.5 2.5t-14.5 7.5t-5.5 12t11.5 11q9 6 18 10t23 10 q22 9 34 17.5t12 19.5q0 7 -7.5 13.5t-21.5 6.5q-6 0 -13.5 -3t-11.5 -6q-8 -6 -14.5 -9t-16.5 -3t-17.5 8t-7.5 15q0 6 8 15t19 15q12 9 25 1q8 -6 25 -2q8 2 14.5 3t17.5 1h1zM553 -50q-8 0 -11.5 11.5t0.5 29.5t7.5 31t6.5 24q4 13 -6 13q-9 0 -21.5 1t-24.5 2.5t-22 2.5 t-14 2q-18 3 -26.5 13t-12.5 22q-4 16 26 30q16 9 35 20t36.5 22t30.5 19t18 11q14 9 21 14t9 16q2 9 7.5 12t11.5 -1q13 -13 29 -1q11 6 17 -6q9 -16 -6 -28q-8 -6 -12 -10.5t-7 -9t-5 -11t-5 -17.5q-2 -9 -6 -21.5t-9 -31.5q-2 -8 0 -10.5t10 -2.5q17 0 31 2t18 8 q3 5 8 4.5t16 -9.5q16 -13 5 -27q-6 -9 -26 -12t-67 -3q-11 0 -14 -10q-1 -3 -2.5 -8.5t-2.5 -10.5q-2 -8 1 -13t8 -11q4 -5 1.5 -11t-11.5 -17q-24 -28 -41 -28h-1zM556 96q8 0 12 2.5t6 11.5q8 21 12 33t7 22q3 11 -1.5 10t-13.5 -6q-8 -5 -15 -8.5t-15 -8.5t-18 -11.5 t-25 -16.5q-14 -9 -14.5 -14t9.5 -8q8 -2 24 -4t31 -2h1z" glyph-name="threequarters" horiz-adv-x="717" unicode="¾"/>
<glyph d="M209 350q11 0 24.5 -13t13.5 -38q-1 -17 -13.5 -30.5t-26.5 -13.5q-17 0 -30.5 14.5t-13.5 34.5q0 9 4.5 17t11 14.5t14.5 10.5t15 4h1zM87 -126q-13 0 -29 4.5t-29.5 12.5t-23 20t-9.5 27q0 20 17.5 40t38.5 35q9 6 25.5 16t33.5 20.5t32 19.5t21 12q27 16 27 33 q1 10 -3 18.5t-9.5 14.5t-12 9t-10.5 3t-7.5 -2.5t-11.5 -7.5q-8 -6 -18 -12t-20 -6q-11 0 -19.5 7t-8.5 15q0 6 6.5 13t15.5 13t19 10.5t16 5.5q18 5 35 2q17 -2 36 -10.5t33 -26.5q12 -15 15.5 -25.5t3.5 -19.5q0 -14 -15.5 -34.5t-35.5 -34.5q-9 -6 -24 -15t-31.5 -18 t-32.5 -18t-27 -15q-18 -10 -25.5 -19t-7.5 -19q0 -12 10.5 -18.5t19.5 -6.5q6 0 10.5 3t9.5 8t9.5 8.5t13.5 3.5q6 0 15.5 -1.5t19 -5t16 -8.5t6.5 -12q0 -10 -13 -18t-25 -11q-10 -3 -27.5 -6.5t-28.5 -3.5h-1z" glyph-name="questiondown" horiz-adv-x="248" unicode="¿"/>
<glyph d="M407 474q5 0 11 -6.5t10 -13.5q2 -6 1.5 -11.5t-6.5 -11.5q-11 -9 -16 -14.5t-6 -13.5q-1 -12 0.5 -54.5t5.5 -99.5q1 -6 2 -9t6 -3q17 0 40.5 -1.5t44.5 -3.5q17 -2 14.5 -8.5t-18.5 -11.5q-18 -6 -39.5 -9t-37.5 -5q-9 0 -8 -10q5 -44 8 -68.5t7 -38.5t10.5 -16t20.5 1 q9 2 11.5 -3.5t1.5 -11.5q-2 -24 -18 -39t-36 -15q-12 0 -22.5 10t-16.5 39q-3 21 -8.5 60.5t-7.5 81.5q-1 5 -3 5.5t-9 0.5q-32 -1 -58.5 -3.5t-52.5 -7.5q-17 -3 -28 -8t-19 -14q-3 -3 -13 -14.5t-21.5 -27.5t-21.5 -33.5t-12 -33.5v-10.5t1 -12.5q1 -5 -1 -11.5 t-10 -12.5q-10 -8 -27 -16.5t-29 -8.5q-9 0 -16 8.5t-6 19.5q0 9 8 26t31 46q22 29 38 48.5t34 42.5q4 5 4.5 8.5t0.5 6.5t1 7t6 12q7 8 12 12t13 6t12.5 6t10.5 12q29 37 55 69.5t46.5 59t35.5 45.5t22 28q17 21 26 26t15 5h1zM346 236q8 0 9 2t1 7q-1 24 -2.5 44.5 t-2.5 46.5q-1 10 -4 10.5t-11 -9.5q-8 -8 -17.5 -20t-19.5 -25t-19 -26t-16 -22q-9 -14 8 -11q15 2 35.5 2.5t37.5 0.5h1zM352 618q6 0 13 -4t13 -13q5 -8 17 -26t21 -30q10 -14 16.5 -23.5t8.5 -15.5q3 -8 -4.5 -10.5t-15.5 2.5q-21 13 -48 33t-42 38q-14 15 -5 34 q7 15 25 15h1z" glyph-name="Agrave" horiz-adv-x="484" unicode="À"/>
<glyph d="M407 474q5 0 11 -6.5t10 -13.5q2 -6 1.5 -11.5t-6.5 -11.5q-11 -9 -16 -14.5t-6 -13.5q-1 -12 0.5 -54.5t5.5 -99.5q1 -6 2 -9t6 -3q17 0 40.5 -1.5t44.5 -3.5q17 -2 14.5 -8.5t-18.5 -11.5q-18 -6 -39.5 -9t-37.5 -5q-9 0 -8 -10q5 -44 8 -68.5t7 -38.5t10.5 -16t20.5 1 q9 2 11.5 -3.5t1.5 -11.5q-2 -24 -18 -39t-36 -15q-12 0 -22.5 10t-16.5 39q-3 21 -8.5 60.5t-7.5 81.5q-1 5 -3 5.5t-9 0.5q-32 -1 -58.5 -3.5t-52.5 -7.5q-17 -3 -28 -8t-19 -14q-3 -3 -13 -14.5t-21.5 -27.5t-21.5 -33.5t-12 -33.5v-10.5t1 -12.5q1 -5 -1 -11.5 t-10 -12.5q-10 -8 -27 -16.5t-29 -8.5q-9 0 -16 8.5t-6 19.5q0 9 8 26t31 46q22 29 38 48.5t34 42.5q4 5 4.5 8.5t0.5 6.5t1 7t6 12q7 8 12 12t13 6t12.5 6t10.5 12q29 37 55 69.5t46.5 59t35.5 45.5t22 28q17 21 26 26t15 5h1zM346 236q8 0 9 2t1 7q-1 24 -2.5 44.5 t-2.5 46.5q-1 10 -4 10.5t-11 -9.5q-8 -8 -17.5 -20t-19.5 -25t-19 -26t-16 -22q-9 -14 8 -11q15 2 35.5 2.5t37.5 0.5h1zM364 501q0 5 2 9.5t10 10.5l35.5 35.5t38.5 42.5q15 19 29 19q16 0 28 -14q8 -10 5 -18.5t-12 -17.5q-41 -35 -73 -51.5t-42 -19.5q-6 -2 -13.5 -2 t-7.5 5v1z" glyph-name="Aacute" horiz-adv-x="484" unicode="Á"/>
<glyph d="M407 474q5 0 11 -6.5t10 -13.5q2 -6 1.5 -11.5t-6.5 -11.5q-11 -9 -16 -14.5t-6 -13.5q-1 -12 0.5 -54.5t5.5 -99.5q1 -6 2 -9t6 -3q17 0 40.5 -1.5t44.5 -3.5q17 -2 14.5 -8.5t-18.5 -11.5q-18 -6 -39.5 -9t-37.5 -5q-9 0 -8 -10q5 -44 8 -68.5t7 -38.5t10.5 -16t20.5 1 q9 2 11.5 -3.5t1.5 -11.5q-2 -24 -18 -39t-36 -15q-12 0 -22.5 10t-16.5 39q-3 21 -8.5 60.5t-7.5 81.5q-1 5 -3 5.5t-9 0.5q-32 -1 -58.5 -3.5t-52.5 -7.5q-17 -3 -28 -8t-19 -14q-3 -3 -13 -14.5t-21.5 -27.5t-21.5 -33.5t-12 -33.5v-10.5t1 -12.5q1 -5 -1 -11.5 t-10 -12.5q-10 -8 -27 -16.5t-29 -8.5q-9 0 -16 8.5t-6 19.5q0 9 8 26t31 46q22 29 38 48.5t34 42.5q4 5 4.5 8.5t0.5 6.5t1 7t6 12q7 8 12 12t13 6t12.5 6t10.5 12q29 37 55 69.5t46.5 59t35.5 45.5t22 28q17 21 26 26t15 5h1zM346 236q8 0 9 2t1 7q-1 24 -2.5 44.5 t-2.5 46.5q-1 10 -4 10.5t-11 -9.5q-8 -8 -17.5 -20t-19.5 -25t-19 -26t-16 -22q-9 -14 8 -11q15 2 35.5 2.5t37.5 0.5h1zM435 611q6 0 9.5 -5.5t5.5 -11.5q5 -16 17 -39t25 -37q9 -11 -5 -22q-3 -3 -8.5 -4t-10.5 -1q-14 0 -25.5 18t-20.5 36q-2 4 -5 4t-8 -5 q-14 -15 -27 -25.5t-22 -17.5q-10 -7 -20.5 -11t-21.5 -4q-6 0 -15 7q-4 4 -3.5 10t8.5 12q23 16 51.5 38.5t47.5 45.5q11 12 27 12h1z" glyph-name="Acircumflex" horiz-adv-x="484" unicode="Â"/>
<glyph d="M407 474q5 0 11 -6.5t10 -13.5q2 -6 1.5 -11.5t-6.5 -11.5q-11 -9 -16 -14.5t-6 -13.5q-1 -12 0.5 -54.5t5.5 -99.5q1 -6 2 -9t6 -3q17 0 40.5 -1.5t44.5 -3.5q17 -2 14.5 -8.5t-18.5 -11.5q-18 -6 -39.5 -9t-37.5 -5q-9 0 -8 -10q5 -44 8 -68.5t7 -38.5t10.5 -16t20.5 1 q9 2 11.5 -3.5t1.5 -11.5q-2 -24 -18 -39t-36 -15q-12 0 -22.5 10t-16.5 39q-3 21 -8.5 60.5t-7.5 81.5q-1 5 -3 5.5t-9 0.5q-32 -1 -58.5 -3.5t-52.5 -7.5q-17 -3 -28 -8t-19 -14q-3 -3 -13 -14.5t-21.5 -27.5t-21.5 -33.5t-12 -33.5v-10.5t1 -12.5q1 -5 -1 -11.5 t-10 -12.5q-10 -8 -27 -16.5t-29 -8.5q-9 0 -16 8.5t-6 19.5q0 9 8 26t31 46q22 29 38 48.5t34 42.5q4 5 4.5 8.5t0.5 6.5t1 7t6 12q7 8 12 12t13 6t12.5 6t10.5 12q29 37 55 69.5t46.5 59t35.5 45.5t22 28q17 21 26 26t15 5h1zM346 236q8 0 9 2t1 7q-1 24 -2.5 44.5 t-2.5 46.5q-1 10 -4 10.5t-11 -9.5q-8 -8 -17.5 -20t-19.5 -25t-19 -26t-16 -22q-9 -14 8 -11q15 2 35.5 2.5t37.5 0.5h1zM373 600q11 0 21.5 -9t20.5 -20t18.5 -19t15.5 -8q10 0 16 15t8 25q2 5 6 9.5t11 4.5q13 0 16 -11t1 -22q-1 -11 -6.5 -23t-14 -21.5t-19 -16 t-21.5 -7.5q-15 -1 -26.5 8t-25.5 25q-20 21 -28 21q-11 -1 -17.5 -16.5t-8.5 -25.5q-2 -11 -14 -11q-8 0 -15 7t-5 25q1 9 7 21.5t15.5 23t20.5 18t23 7.5h1z" glyph-name="Atilde" horiz-adv-x="484" unicode="Ã"/>
<glyph d="M407 474q5 0 11 -6.5t10 -13.5q2 -6 1.5 -11.5t-6.5 -11.5q-11 -9 -16 -14.5t-6 -13.5q-1 -12 0.5 -54.5t5.5 -99.5q1 -6 2 -9t6 -3q17 0 40.5 -1.5t44.5 -3.5q17 -2 14.5 -8.5t-18.5 -11.5q-18 -6 -39.5 -9t-37.5 -5q-9 0 -8 -10q5 -44 8 -68.5t7 -38.5t10.5 -16t20.5 1 q9 2 11.5 -3.5t1.5 -11.5q-2 -24 -18 -39t-36 -15q-12 0 -22.5 10t-16.5 39q-3 21 -8.5 60.5t-7.5 81.5q-1 5 -3 5.5t-9 0.5q-32 -1 -58.5 -3.5t-52.5 -7.5q-17 -3 -28 -8t-19 -14q-3 -3 -13 -14.5t-21.5 -27.5t-21.5 -33.5t-12 -33.5v-10.5t1 -12.5q1 -5 -1 -11.5 t-10 -12.5q-10 -8 -27 -16.5t-29 -8.5q-9 0 -16 8.5t-6 19.5q0 9 8 26t31 46q22 29 38 48.5t34 42.5q4 5 4.5 8.5t0.5 6.5t1 7t6 12q7 8 12 12t13 6t12.5 6t10.5 12q29 37 55 69.5t46.5 59t35.5 45.5t22 28q17 21 26 26t15 5h1zM346 236q8 0 9 2t1 7q-1 24 -2.5 44.5 t-2.5 46.5q-1 10 -4 10.5t-11 -9.5q-8 -8 -17.5 -20t-19.5 -25t-19 -26t-16 -22q-9 -14 8 -11q15 2 35.5 2.5t37.5 0.5h1zM352 572q22 0 27.5 -13t5.5 -21q0 -14 -14 -28t-27 -14q-12 0 -23 12.5t-11 27.5q0 18 12 27t29 9h1zM470 571q12 0 23.5 -12t11.5 -24 q0 -17 -16.5 -28t-33.5 -11q-8 0 -18.5 8.5t-10.5 22.5t11.5 29t31.5 15h1z" glyph-name="Adieresis" horiz-adv-x="484" unicode="Ä"/>
<glyph d="M407 474q5 0 11 -6.5t10 -13.5q2 -6 2 -11.5t-7 -11.5q-11 -9 -16 -14.5t-6 -13.5q-1 -12 0.5 -54.5t5.5 -99.5q1 -6 2 -9t6 -3q18 0 41 -1.5t44 -3.5q16 -2 13.5 -8.5t-17.5 -11.5q-19 -6 -40 -9t-37 -5q-6 0 -7.5 -2t-0.5 -8q5 -44 8 -68.5t7 -38.5t10.5 -16t20.5 1 q9 2 11 -3.5t2 -11.5q-3 -24 -18.5 -39t-35.5 -15q-12 0 -22.5 10t-16.5 39q-3 21 -8.5 60.5t-7.5 81.5q-1 5 -3 5.5t-9 0.5q-32 -1 -58.5 -3.5t-52.5 -7.5q-17 -3 -28 -8t-19 -14q-3 -3 -13 -14.5t-21.5 -27.5t-21.5 -33.5t-12 -33.5v-10.5t1 -12.5q1 -5 -1 -11.5 t-10 -12.5q-10 -8 -27 -16.5t-29 -8.5q-9 0 -16 8.5t-6 19.5q0 9 8 26t31 46q22 29 38 48.5t34 42.5q4 5 4.5 8.5t0.5 6.5t1 7t6 12q7 8 12 12t13 6t12.5 6t10.5 12q29 37 55 69.5t46.5 59t35.5 45.5t22 28q17 21 26 26t15 5h1zM346 236q8 0 9 2t1 7q-1 24 -2.5 44.5 t-2.5 46.5q-1 10 -4 10.5t-11 -9.5q-8 -8 -17.5 -20t-19.5 -25t-19 -26t-16 -22q-9 -14 8 -11q15 2 35.5 2.5t37.5 0.5h1zM419 646q34 0 53.5 -18t19.5 -52q0 -15 -9.5 -30t-24 -26.5t-31 -18.5t-30.5 -7q-12 0 -23.5 6.5t-20 16.5t-13.5 22t-5 24q0 15 7.5 29.5t19.5 26.5 t26.5 19.5t29.5 7.5h1zM412 608q-10 0 -24.5 -9.5t-14.5 -28.5q0 -13 8 -25.5t25 -12.5q20 0 34 13.5t14 27.5q0 17 -12 26t-29 9h-1z" glyph-name="Aring" horiz-adv-x="484" unicode="Å"/>
<glyph d="M616 245q57 0 54 -12q0 -2 -6.5 -5t-15 -6t-18 -5.5t-15.5 -3.5q-42 -5 -78 -7.5t-81 -5.5q-8 0 -11 -2.5t-5 -10.5q-11 -35 -17.5 -57t-11.5 -45q-5 -21 1.5 -30t20.5 -13q19 -4 40.5 -5.5t45.5 -1.5q46 0 78 4t46 10q14 5 19.5 6.5t5.5 -3.5q0 -10 -14 -19 q-24 -17 -55 -26t-58 -13q-13 -2 -29 -2.5t-41 -0.5q-54 0 -86 6.5t-36 9.5q-5 5 -8.5 16.5t-0.5 23.5q3 13 8.5 31t12 37t12.5 37.5t11 33.5q2 7 0 8.5t-7 0.5q-11 -2 -30.5 -3.5t-38.5 -1.5q-20 0 -40 11q-5 2 -9.5 -0.5t-14.5 -12.5q-17 -16 -43 -42t-50 -49 q-12 -13 -15.5 -20.5t-1.5 -13.5q2 -7 2 -14t-2 -14q-3 -9 -12 -17t-20.5 -14.5t-22.5 -10.5t-18 -4q-6 0 -12.5 2.5t-9.5 8.5q-2 6 -2 15t4 17q6 12 17.5 24t23.5 24q6 5 14.5 13.5t22.5 25.5q31 34 75 80.5t90.5 93.5t90 90.5l73.5 73.5q22 22 30 27t13 5q10 0 18 -14 q6 -12 4 -25q0 -5 10 -6q14 -2 54.5 -2h103.5q12 0 16 -4.5t4 -9.5q0 -9 -13 -21.5t-21 -16.5q-15 -7 -27 1q-2 2 -9.5 5.5t-19.5 4.5q-13 0 -39.5 0.5t-57.5 -2.5q-8 -1 -10 -3t-4 -8q-14 -39 -23 -70t-19 -62q-3 -11 8 -11h150zM341 239q8 0 25 0.5t27 2.5q10 3 14 17 q1 5 5.5 18t9.5 28.5l10 31t8 24.5q8 25 2 28q-5 3 -24 -15q-13 -12 -29.5 -29.5t-32 -34t-28.5 -30.5t-18 -20q-9 -12 -1 -16q6 -3 14.5 -4t16.5 -1h1z" glyph-name="AE" horiz-adv-x="648" unicode="Æ"/>
<glyph d="M85 113q0 44 17 94t47 96.5t71.5 86t90.5 62.5q23 11 40.5 15t33.5 4q20 0 37 -10t17 -33q0 -11 -5.5 -19.5t-12.5 -14.5t-14 -9.5t-11 -3.5q-9 -2 -10 2t1 8l3 7.5t1 7.5t-5 9.5t-16 4.5q-16 0 -34.5 -7.5t-36.5 -20t-35.5 -28.5t-31.5 -34q-17 -23 -33 -49.5t-28 -54.5 t-19.5 -57t-7.5 -58q0 -36 16.5 -53.5t45.5 -17.5q36 0 73.5 15t72 36t63 43.5t46.5 38.5q11 9 15 4t-1 -14q-9 -13 -24 -29.5t-34.5 -33.5t-43 -34t-48.5 -32q-48 -28 -90 -38q-10 -12 -19.5 -26.5t-9.5 -22.5t9.5 -16.5t19.5 -19.5q9 -9 12 -18t3 -18q0 -12 -8.5 -25.5 t-22.5 -26.5q-9 -7 -20.5 -10.5t-23 -5.5t-20.5 -2.5t-12 -0.5q-5 2 -8.5 1.5t-10.5 -2.5q-11 -4 -27 8q-9 11 -9 18q0 6 4.5 12.5t11.5 11.5t14 8.5t12 3.5q7 0 13 -6t9 -11q2 -5 6.5 -6t10.5 -1q7 0 19.5 5.5t13.5 14.5q0 5 -4.5 13t-18.5 20q-11 9 -16.5 15.5t-5.5 16.5 q0 14 12 33t23 30q-29 -3 -49 6t-33 26.5t-19 41t-6 49.5v1z" glyph-name="Ccedilla" horiz-adv-x="395" unicode="Ç"/>
<glyph d="M383 449q26 0 47 -5t33 -16q15 -14 7 -20q-5 -5 -24 -1q-12 2 -30 2h-43q-22 0 -43.5 -2t-42.5 -4q-14 -2 -18.5 -7t-9.5 -20q-3 -8 -7.5 -23.5t-9.5 -32t-9 -31t-6 -20.5q-4 -12 6 -13q16 -3 35.5 -4t51.5 0q22 0 44.5 2.5t41.5 6.5q11 2 8.5 -5t-12.5 -16 q-12 -11 -26 -16.5t-31 -8.5q-37 -7 -125 -9q-8 0 -10.5 -2.5t-4.5 -8.5q-13 -35 -25.5 -68.5t-23.5 -64.5q-2 -7 -0.5 -10t9.5 -5q13 -2 39 -3.5t63 -1.5q30 0 51.5 1.5t39.5 4.5t34.5 8t35.5 12q11 5 13 -0.5t-9 -13.5q-24 -17 -47.5 -28t-49.5 -17.5t-57.5 -10 t-71.5 -3.5q-44 0 -86 3q-25 1 -43 6t-18 14q0 8 13 19t19 13q2 1 4.5 3t5.5 8q9 20 20.5 55t25.5 79q4 13 -5 19q-11 7 -13 19q-2 9 11 13q18 8 23 12t8 13q1 4 3.5 10.5t5.5 17.5t8 27.5t12 41.5q3 11 1.5 15t-7.5 9q-14 11 -17 16.5t2 10.5q9 7 28 13q8 4 12 10.5 t10 23.5q5 16 16 14q6 -1 12 -7t11 -16q4 -5 7.5 -6.5t13.5 -1.5h94zM290 614q15 0 26 -17q6 -8 18 -26l20 -30q11 -14 17.5 -23.5t8.5 -15.5q3 -8 -4.5 -10.5t-16.5 2.5q-21 13 -48 33t-42 38q-14 15 -5 33q10 16 25 16h1z" glyph-name="Egrave" horiz-adv-x="412" unicode="È"/>
<glyph d="M383 449q26 0 47 -5t33 -16q15 -14 7 -20q-5 -5 -24 -1q-12 2 -30 2h-43q-22 0 -43.5 -2t-42.5 -4q-14 -2 -18.5 -7t-9.5 -20q-3 -8 -7.5 -23.5t-9.5 -32t-9 -31t-6 -20.5q-4 -12 6 -13q16 -3 35.5 -4t51.5 0q22 0 44.5 2.5t41.5 6.5q11 2 8.5 -5t-12.5 -16 q-12 -11 -26 -16.5t-31 -8.5q-37 -7 -125 -9q-8 0 -10.5 -2.5t-4.5 -8.5q-13 -35 -25.5 -68.5t-23.5 -64.5q-2 -7 -0.5 -10t9.5 -5q13 -2 39 -3.5t63 -1.5q30 0 51.5 1.5t39.5 4.5t34.5 8t35.5 12q11 5 13 -0.5t-9 -13.5q-24 -17 -47.5 -28t-49.5 -17.5t-57.5 -10 t-71.5 -3.5q-44 0 -86 3q-25 1 -43 6t-18 14q0 8 13 19t19 13q2 1 4.5 3t5.5 8q9 20 20.5 55t25.5 79q4 13 -5 19q-11 7 -13 19q-2 9 11 13q18 8 23 12t8 13q1 4 3.5 10.5t5.5 17.5t8 27.5t12 41.5q3 11 1.5 15t-7.5 9q-14 11 -17 16.5t2 10.5q9 7 28 13q8 4 12 10.5 t10 23.5q5 16 16 14q6 -1 12 -7t11 -16q4 -5 7.5 -6.5t13.5 -1.5h94zM319 493q0 4 2 8.5t10 11.5q15 14 35.5 35t38.5 42q15 19 29 19q17 0 28 -14q13 -16 -7 -36q-41 -35 -73 -51t-42 -20q-6 -2 -13.5 -1.5t-7.5 5.5v1z" glyph-name="Eacute" horiz-adv-x="412" unicode="É"/>
<glyph d="M383 449q26 0 47 -5t33 -16q15 -14 7 -20q-5 -5 -24 -1q-12 2 -30 2h-43q-22 0 -43.5 -2t-42.5 -4q-14 -2 -18.5 -7t-9.5 -20q-3 -8 -7.5 -23.5t-9.5 -32t-9 -31t-6 -20.5q-4 -12 6 -13q16 -3 35.5 -4t51.5 0q22 0 44.5 2.5t41.5 6.5q11 2 8.5 -5t-12.5 -16 q-12 -11 -26 -16.5t-31 -8.5q-37 -7 -125 -9q-8 0 -10.5 -2.5t-4.5 -8.5q-13 -35 -25.5 -68.5t-23.5 -64.5q-2 -7 -0.5 -10t9.5 -5q13 -2 39 -3.5t63 -1.5q30 0 51.5 1.5t39.5 4.5t34.5 8t35.5 12q11 5 13 -0.5t-9 -13.5q-24 -17 -47.5 -28t-49.5 -17.5t-57.5 -10 t-71.5 -3.5q-44 0 -86 3q-25 1 -43 6t-18 14q0 8 13 19t19 13q2 1 4.5 3t5.5 8q9 20 20.5 55t25.5 79q4 13 -5 19q-11 7 -13 19q-2 9 11 13q18 8 23 12t8 13q1 4 3.5 10.5t5.5 17.5t8 27.5t12 41.5q3 11 1.5 15t-7.5 9q-14 11 -17 16.5t2 10.5q9 7 28 13q8 4 12 10.5 t10 23.5q5 16 16 14q6 -1 12 -7t11 -16q4 -5 7.5 -6.5t13.5 -1.5h94zM396 625q6 0 9.5 -5.5t5.5 -11.5q4 -16 16.5 -39t24.5 -37q5 -5 3 -11t-7 -11q-6 -5 -19 -5q-15 0 -26 18t-20 36q-5 8 -13 -1q-14 -15 -27.5 -25.5l-22.5 -17.5q-10 -7 -20.5 -11t-21.5 -4q-7 0 -14 7 q-4 4 -4 10t9 12q23 16 51 38.5t48 45.5q9 12 27 12h1z" glyph-name="Ecircumflex" horiz-adv-x="412" unicode="Ê"/>
<glyph d="M382 449q26 0 47 -5t33 -16q15 -14 7 -20q-5 -5 -24 -1q-11 2 -29.5 2h-42.5q-23 0 -44 -2l-42 -4q-14 -2 -18.5 -7t-9.5 -20q-3 -8 -7.5 -23.5t-9.5 -32t-9 -31t-6 -20.5q-4 -12 6 -13q16 -3 35.5 -4t51.5 0q21 0 44 2.5t41 6.5q11 2 9 -5t-12 -16q-13 -11 -27 -16.5 t-31 -8.5q-19 -4 -50.5 -6t-73.5 -3q-8 0 -10.5 -2.5t-4.5 -8.5q-13 -35 -25.5 -68.5t-23.5 -64.5q-2 -7 -0.5 -10t9.5 -5q13 -2 39 -3.5t63 -1.5q30 0 51.5 1.5t39.5 4.5t34.5 8t34.5 12q12 5 13.5 -0.5t-9.5 -13.5q-24 -17 -47 -28t-49 -17.5t-57.5 -10t-71.5 -3.5 q-44 0 -86 3q-25 1 -43 6t-18 14q0 8 13 19t19 13q2 1 4.5 3t5.5 8q9 20 20.5 55t25.5 79q4 13 -5 19q-11 7 -13 19q-2 9 11 13q18 8 23 12t8 13q1 4 3.5 10.5t5.5 17.5t8 27.5t12 41.5q3 11 1.5 15t-7.5 9q-14 11 -17 16.5t2 10.5q9 7 28 13q8 4 12 10.5t10 23.5 q5 16 16 13q12 -1 23 -22q4 -5 7.5 -6.5t14.5 -1.5h92zM304 577q22 0 27.5 -13t5.5 -21q0 -14 -14 -28t-27 -14q-12 0 -23 12.5t-11 27.5q0 18 12 27t29 9h1zM421 576q12 0 23.5 -12t11.5 -24q0 -17 -16.5 -28t-33.5 -11q-8 0 -18.5 8.5t-10.5 22.5t11.5 29t31.5 15h1z" glyph-name="Edieresis" horiz-adv-x="412" unicode="Ë"/>
<glyph d="M295 479q10 0 17.5 -8.5t9.5 -17.5q1 -8 9 -9q7 -1 15.5 -2.5t17.5 -3t16.5 -3.5t11.5 -3q8 -2 8 -7q0 -4 -4.5 -7t-10.5 -5t-12 -3t-9 -1h-47q-8 0 -16 -16q-14 -31 -34.5 -78t-40 -95t-34.5 -91t-19 -66q-2 -7 -1 -10t7 -3q25 0 45.5 1t28.5 1q17 2 29 -2q18 -7 -8 -19 q-24 -11 -54.5 -16t-50.5 -6q-5 0 -11 -6t-14 -9q-4 -2 -10 -2q-7 0 -15 10q-5 7 -14 7q-8 0 -18.5 -3.5t-18.5 -5.5q-5 -2 -9 -0.5t-9 7.5q-6 6 -6 14t7 13q11 11 26.5 15t34.5 4q4 0 5.5 1.5t3.5 7.5q12 60 41.5 141t73.5 191q5 12 -8 11q-10 0 -22 -1t-20 -3 q-15 -3 -20 8q-5 6 -3.5 14t9.5 14t21 8q11 2 29 3t27 1q7 0 10 1.5t5 3.5q5 10 11 17.5t19 7.5h1zM246 616q6 0 13 -4t13 -13q5 -8 17.5 -26t20.5 -30q10 -14 16.5 -24t9.5 -15q3 -8 -4.5 -10.5t-16.5 2.5q-21 13 -48 33t-42 38q-14 15 -5 33q8 16 25 16h1z" glyph-name="Igrave" horiz-adv-x="283" unicode="Ì"/>
<glyph d="M295 479q10 0 17.5 -8.5t9.5 -17.5q1 -8 9 -9q7 -1 15.5 -2.5t17.5 -3t16.5 -3.5t11.5 -3q8 -2 8 -7q0 -4 -4.5 -7t-10.5 -5t-12 -3t-9 -1h-47q-8 0 -16 -16q-14 -31 -34.5 -78t-40 -95t-34.5 -91t-19 -66q-2 -7 -1 -10t7 -3q25 0 45.5 1t28.5 1q17 2 29 -2q18 -7 -8 -19 q-24 -11 -54.5 -16t-50.5 -6q-5 0 -11 -6t-14 -9q-4 -2 -10 -2q-7 0 -15 10q-5 7 -14 7q-8 0 -18.5 -3.5t-18.5 -5.5q-5 -2 -9 -0.5t-9 7.5q-6 6 -6 14t7 13q11 11 26.5 15t34.5 4q4 0 5.5 1.5t3.5 7.5q12 60 41.5 141t73.5 191q5 12 -8 11q-10 0 -22 -1t-20 -3 q-15 -3 -20 8q-5 6 -3.5 14t9.5 14t21 8q11 2 29 3t27 1q7 0 10 1.5t5 3.5q5 10 11 17.5t19 7.5h1zM269 505q0 9 12 20l35.5 35.5t38.5 41.5q14 20 29 20q16 0 28 -15q8 -9 5 -18t-12 -17q-41 -35 -72.5 -51.5t-42.5 -20.5q-6 -2 -13.5 -1.5t-7.5 5.5v1z" glyph-name="Iacute" horiz-adv-x="283" unicode="Í"/>
<glyph d="M295 479q10 0 17.5 -8.5t9.5 -17.5q1 -8 9 -9q7 -1 15.5 -2.5t17.5 -3t16.5 -3.5t11.5 -3q8 -2 8 -7q0 -4 -4.5 -7t-10.5 -5t-12 -3t-9 -1h-47q-8 0 -16 -16q-14 -31 -34.5 -78t-40 -95t-34.5 -91t-19 -66q-2 -7 -1 -10t7 -3q25 0 45.5 1t28.5 1q17 2 29 -2q18 -7 -8 -19 q-24 -11 -54.5 -16t-50.5 -6q-5 0 -11 -6t-14 -9q-4 -2 -10 -2q-7 0 -15 10q-5 7 -14 7q-8 0 -18.5 -3.5t-18.5 -5.5q-5 -2 -9 -0.5t-9 7.5q-6 6 -6 14t7 13q11 11 26.5 15t34.5 4q4 0 5.5 1.5t3.5 7.5q12 60 41.5 141t73.5 191q5 12 -8 11q-10 0 -22 -1t-20 -3 q-15 -3 -20 8q-5 6 -3.5 14t9.5 14t21 8q11 2 29 3t27 1q7 0 10 1.5t5 3.5q5 10 11 17.5t19 7.5h1zM341 613q6 0 9.5 -5.5t5.5 -11.5q4 -16 16.5 -39t25.5 -37q4 -5 2.5 -11t-7.5 -10q-8 -6 -19 -6q-15 0 -26 18t-20 36q-5 8 -13 -1q-14 -15 -27 -25.5t-22 -17.5 q-23 -15 -42 -15q-8 0 -15 7q-4 4 -3.5 10t8.5 12q23 16 51 38.5t48 45.5q11 12 27 12h1z" glyph-name="Icircumflex" horiz-adv-x="283" unicode="Î"/>
<glyph d="M295 479q10 0 17.5 -8.5t9.5 -17.5q1 -8 8 -9q14 -2 34 -6t28 -6t8 -7q0 -4 -4.5 -7t-10 -5t-11.5 -3t-9 -1h-47q-6 0 -9 -3.5t-8 -12.5q-14 -31 -34.5 -78t-40 -95t-34.5 -91t-19 -66q-2 -7 -1 -10t7 -3q25 0 45.5 1t28.5 1q16 1 30 -2q8 -3 6.5 -8t-15.5 -11 q-24 -11 -54.5 -16t-50.5 -6q-5 0 -11 -6t-14 -9q-4 -2 -10 -2q-7 0 -15 10q-5 7 -14 7q-8 0 -18.5 -3.5t-18.5 -5.5q-5 -2 -9 -0.5t-9 7.5q-6 6 -6 14t7 13q11 11 26.5 15t34.5 4q4 0 5.5 1.5t3.5 7.5q12 60 41.5 141t73.5 191q5 12 -8 11q-9 0 -21.5 -1t-20.5 -3 q-15 -3 -20 8q-5 6 -3.5 14t9.5 14q9 7 21 8q11 2 29 3t28 1q11 0 13 5q5 10 11.5 17.5t19.5 7.5h1zM263 577q22 0 27.5 -13t5.5 -21q0 -14 -14 -28t-27 -14q-12 0 -23 12.5t-11 27.5q0 18 12 27t29 9h1zM381 576q12 0 23.5 -12t11.5 -24q0 -17 -16.5 -28t-33.5 -11 q-8 0 -18.5 8.5t-10.5 22.5t11.5 29t31.5 15h1z" glyph-name="Idieresis" horiz-adv-x="283" unicode="Ï"/>
<glyph d="M550 298q0 -45 -21.5 -87.5t-51 -78t-61 -61t-51.5 -37.5q-40 -23 -81 -33t-70 -10q-12 0 -23 7.5t-19.5 19.5t-13.5 25.5t-5 25.5q0 11 5 30.5t11.5 40.5t13.5 40t11 31q5 13 -3 13h-29t-27 -5q-9 -3 -20 8q-5 5 -6.5 9t-1.5 7q0 11 9.5 18.5t20.5 7.5t24.5 -3t40.5 -3 q6 0 9 1.5t5 7.5q16 46 28 80t15 45q3 8 1.5 9.5t-6.5 1.5q-20 -1 -43 -11.5t-40 -19.5q-6 -5 -12.5 2.5t-6.5 16.5q0 14 13 23t27 14q25 10 47.5 14t31.5 5q8 0 12 10q8 14 14 22t15 14q8 5 16 5q9 0 15 -5q9 -8 8.5 -18t-6.5 -22q-3 -5 -2 -5.5t6 -0.5q48 -2 85.5 -15.5 t63 -34.5t39 -47.5t13.5 -55.5v-1zM497 303q0 33 -17 53.5t-41.5 32.5t-53.5 16.5t-53 5.5q-8 0 -11 -2t-6 -9q-13 -33 -25 -65.5t-20 -61.5q-4 -11 7 -11q31 0 59 -1.5t40 -3.5q18 -3 18 -16q0 -7 -8.5 -12.5t-20 -9t-22 -5.5t-14.5 -2q-10 0 -16 5q-5 3 -10 5t-17 2h-26 q-5 0 -7 -2.5t-4 -8.5q-5 -14 -10.5 -31.5t-10.5 -35.5t-8.5 -35.5t-3.5 -30.5q0 -20 12 -33t33 -13q16 0 40 10.5t50.5 29t52.5 44t46.5 55t33.5 62.5t13 67v1z" glyph-name="Eth" horiz-adv-x="511" unicode="Ð"/>
<glyph d="M239 458q9 0 14.5 -5t10.5 -14q5 -10 4.5 -19.5t-4.5 -14.5q-9 -15 -9 -20q0 -9 11 -30q26 -50 59 -110.5t68 -117.5q9 -16 15 2q13 42 24 74.5t20.5 59.5t18.5 49.5t18 43.5q18 48 29.5 70t18.5 32q15 15 28 15q8 0 14 -7t9.5 -16.5t5.5 -19t2 -14.5q1 -16 -17 -18 q-12 -2 -18 -6.5t-11 -15.5q-17 -36 -31.5 -72t-26.5 -69t-20.5 -61.5t-14.5 -48.5q-8 -26 -10 -39t-2 -23q0 -11 3.5 -18t8.5 -14q4 -6 2.5 -13t-6.5 -13q-5 -5 -11 -9t-14 -4q-9 0 -17.5 6t-13.5 13q-4 7 -13 24t-34 59q-12 20 -29.5 51.5t-34.5 63t-30 56t-17 31.5 q-6 10 -13 -4q-26 -57 -44.5 -103.5t-23.5 -65.5q-4 -14 -5 -21.5t-2 -16.5q-2 -21 -3 -32t-3.5 -19t-7 -16t-13.5 -22q-6 -9 -13 -12.5t-13 -3.5q-12 0 -20.5 9.5t-8.5 26.5q0 8 3.5 19t7.5 19q17 40 35.5 86.5t34.5 87.5t27.5 71.5t14.5 38.5t2 12t-6 8q-4 3 -7 8.5 t0 13.5q5 16 18 25q7 7 6 16q-2 5 2 12t9 14q5 5 11.5 8t10.5 3h1zM363 572q11 0 21.5 -8.5t20.5 -19.5q10 -12 18.5 -19.5t15.5 -7.5q10 0 16 15t8 25q2 5 6 9.5t11 4.5q13 0 16 -11t1 -22q-1 -11 -6.5 -23t-14 -21.5t-19 -16t-21.5 -7.5q-15 -1 -26.5 8t-26.5 24 q-20 21 -27 21q-11 -1 -18 -16t-9 -26q-2 -10 -14 -10q-8 -1 -15 6.5t-5 24.5q1 9 7.5 21.5t16 23t20.5 18t23 7.5h1z" glyph-name="Ntilde" horiz-adv-x="502" unicode="Ñ"/>
<glyph d="M388 472q29 0 54 -14.5t42 -37.5q20 -29 20 -85q0 -40 -12.5 -79t-32 -73.5t-42.5 -64t-45 -49.5q-51 -45 -95.5 -61.5t-73.5 -16.5q-20 0 -43.5 9t-43.5 29q-17 16 -23.5 42t-6.5 48q0 27 9.5 62t28 72t45 73t61.5 66q19 17 38.5 28t35 17.5t26.5 9t13 2.5q7 0 15 10 q5 5 14 9t15 4h1zM339 406q-15 0 -46.5 -23.5t-69.5 -74.5q-25 -36 -40 -66.5t-23 -55t-10.5 -43t-2.5 -30.5q0 -31 13.5 -54.5t45.5 -23.5q18 0 51 14t65 42q24 22 48 53.5t43 68t31 75.5t12 75q0 34 -25 53q-11 8 -16 7.5t-3 -6.5q1 -5 0.5 -10.5t-5.5 -11.5t-13.5 -10.5 t-16.5 -4.5q-12 0 -15 12q-2 6 -8.5 10t-13.5 4h-1zM340 620q14 0 26 -16l18 -27l20 -30q11 -14 17.5 -23.5t8.5 -15.5q3 -8 -4.5 -10.5t-16.5 2.5q-21 13 -48 33t-42 38q-14 15 -5 34q7 15 25 15h1z" glyph-name="Ograve" horiz-adv-x="453" unicode="Ò"/>
<glyph d="M388 472q29 0 54 -14.5t42 -37.5q20 -29 20 -85q0 -40 -12.5 -79t-32 -73.5t-42.5 -64t-45 -49.5q-51 -45 -95.5 -61.5t-73.5 -16.5q-20 0 -43.5 9t-43.5 29q-17 16 -23.5 42t-6.5 48q0 27 9.5 62t28 72t45 73t61.5 66q19 17 38.5 28t35 17.5t26.5 9t13 2.5q7 0 15 10 q5 5 14 9t15 4h1zM339 406q-15 0 -46.5 -23.5t-69.5 -74.5q-25 -36 -40 -66.5t-23 -55t-10.5 -43t-2.5 -30.5q0 -31 13.5 -54.5t45.5 -23.5q18 0 51 14t65 42q24 22 48 53.5t43 68t31 75.5t12 75q0 34 -25 53q-11 8 -16 7.5t-3 -6.5q1 -5 0.5 -10.5t-5.5 -11.5t-13.5 -10.5 t-16.5 -4.5q-12 0 -15 12q-2 6 -8.5 10t-13.5 4h-1zM362 502q0 8 12 20q16 14 36 35t38 42q16 19 30 19q17 0 28 -14q13 -17 -8 -36q-41 -35 -72.5 -51t-42.5 -20q-6 -2 -13.5 -1.5t-7.5 5.5v1z" glyph-name="Oacute" horiz-adv-x="453" unicode="Ó"/>
<glyph d="M388 472q29 0 54 -14.5t42 -37.5q20 -29 20 -85q0 -40 -12.5 -79t-32 -73.5t-42.5 -64t-45 -49.5q-51 -45 -95.5 -61.5t-73.5 -16.5q-20 0 -43.5 9t-43.5 29q-17 16 -23.5 42t-6.5 48q0 27 9.5 62t28 72t45 73t61.5 66q19 17 38.5 28t35 17.5t26.5 9t13 2.5q7 0 15 10 q5 5 14 9t15 4h1zM339 406q-15 0 -46.5 -23.5t-69.5 -74.5q-25 -36 -40 -66.5t-23 -55t-10.5 -43t-2.5 -30.5q0 -31 13.5 -54.5t45.5 -23.5q18 0 51 14t65 42q24 22 48 53.5t43 68t31 75.5t12 75q0 34 -25 53q-11 8 -16 7.5t-3 -6.5q1 -5 0.5 -10.5t-5.5 -11.5t-13.5 -10.5 t-16.5 -4.5q-12 0 -15 12q-2 6 -8.5 10t-13.5 4h-1zM431 613q5 0 9 -5.5t6 -11.5q4 -16 16.5 -39t24.5 -37q5 -5 3.5 -11t-7.5 -11t-19 -5q-15 0 -26 18t-21 36q-5 8 -12 -1q-14 -15 -27.5 -25.5l-22.5 -17.5q-10 -7 -20.5 -11t-21.5 -4q-5 0 -8 2t-7 5q-4 4 -3.5 10t8.5 12 q23 16 51.5 38.5t48.5 45.5q9 12 27 12h1z" glyph-name="Ocircumflex" horiz-adv-x="453" unicode="Ô"/>
<glyph d="M388 472q29 0 54 -14.5t42 -37.5q20 -29 20 -85q0 -40 -12.5 -79t-32 -73.5t-42.5 -64t-45 -49.5q-51 -45 -95.5 -61.5t-73.5 -16.5q-20 0 -43.5 9t-43.5 29q-17 16 -23.5 42t-6.5 48q0 27 9.5 62t28 72t45 73t61.5 66q19 17 38.5 28t35 17.5t26.5 9t13 2.5q7 0 15 10 q5 5 14 9t15 4h1zM339 406q-15 0 -46.5 -23.5t-69.5 -74.5q-25 -36 -40 -66.5t-23 -55t-10.5 -43t-2.5 -30.5q0 -31 13.5 -54.5t45.5 -23.5q18 0 51 14t65 42q24 22 48 53.5t43 68t31 75.5t12 75q0 34 -25 53q-11 8 -16 7.5t-3 -6.5q1 -5 0.5 -10.5t-5.5 -11.5t-13.5 -10.5 t-16.5 -4.5q-12 0 -15 12q-2 6 -8.5 10t-13.5 4h-1zM364 603q11 0 21.5 -8.5t20.5 -19.5q11 -11 19.5 -19t14.5 -8q10 0 16.5 15t8.5 25q2 5 6 9.5t11 4.5q12 0 15.5 -11t1.5 -22q-3 -23 -21 -44.5t-40 -23.5q-16 -1 -27.5 8t-25.5 24q-20 21 -28 21q-11 -1 -18 -16t-9 -26 q-2 -10 -14 -10q-8 -1 -15 6.5t-5 24.5q1 9 7.5 21.5t16 23t20.5 18t23 7.5h1z" glyph-name="Otilde" horiz-adv-x="453" unicode="Õ"/>
<glyph d="M388 472q29 0 54 -14.5t42 -37.5q20 -29 20 -85q0 -40 -12.5 -79t-32 -73.5t-42.5 -64t-45 -49.5q-50 -45 -95 -61.5t-74 -16.5q-20 0 -43.5 9t-43.5 29q-17 16 -23.5 42t-6.5 48q0 27 9.5 62t28 72t45.5 73t62 66q19 17 38 28t35 17.5t26.5 9t12.5 2.5q7 0 15 10 q5 5 14 9t15 4h1zM340 406q-15 0 -47 -23.5t-70 -74.5q-25 -36 -40 -66.5t-23 -55t-10.5 -43t-2.5 -30.5q0 -31 13.5 -54.5t45.5 -23.5q18 0 51 14t65 42q24 22 48 53.5t43 68t31 75.5t12 75q0 34 -25 53q-11 8 -16 7.5t-3 -6.5q1 -5 0.5 -10.5t-5.5 -11.5t-13.5 -10.5 t-16.5 -4.5q-12 0 -15 12q-5 14 -21 14h-1zM355 581q22 0 27.5 -13t5.5 -21q0 -14 -14 -28t-27 -14q-12 0 -23 12.5t-11 27.5q0 18 12 27t29 9h1zM472 580q12 0 23.5 -12t11.5 -24q0 -17 -16.5 -28t-33.5 -11q-8 0 -18.5 8.5t-10.5 22.5t11.5 29t31.5 15h1z" glyph-name="Odieresis" horiz-adv-x="453" unicode="Ö"/>
<glyph d="M506 332q8 0 18.5 -8t10.5 -16q0 -6 -9 -14t-27 -22q-11 -7 -27 -19.5t-32.5 -25.5t-30.5 -25l-21 -18q-13 -12 -5 -20q48 -51 76 -77.5t36 -34.5q7 -7 11 -12.5t4 -11.5q0 -8 -11 -16.5t-19 -8.5q-12 0 -36 27q-20 22 -46 50.5t-46 49.5q-6 7 -11 6.5t-12 -6.5 q-27 -24 -53 -50.5t-56 -56.5q-8 -8 -15 -14t-12 -6q-10 0 -19.5 7t-9.5 16q0 5 2 9.5t10 11.5q13 11 29.5 26.5t33.5 31.5t32.5 30.5t26.5 24.5q7 6 6 10.5t-6 10.5q-40 46 -63 70t-36 39q-14 16 -6 31q5 13 13 15t15 0q10 -2 19 -12t16 -19q10 -11 29 -34.5t51 -57.5 q6 -6 10 -6t12 7q12 9 31 25.5t37.5 33.5t34.5 30.5t22 18.5q8 7 13 8.5t9 1.5h1z" glyph-name="multiply" horiz-adv-x="552" unicode="×"/>
<glyph d="M375 472q10 0 15.5 -2t9.5 -5t14 -3q7 0 15.5 -0.5t14.5 -2.5q4 -1 7 0t8 6q45 55 68 83.5t31 39.5q16 19 27 19q8 0 13.5 -5t7.5 -12q5 -14 -6 -26q-4 -4 -11 -11.5t-19.5 -21.5t-31.5 -35.5t-46 -51.5q-3 -5 -3.5 -6.5t3.5 -5.5q15 -15 23.5 -37t8.5 -45 q0 -17 -4 -37.5t-9 -32.5q-30 -81 -83.5 -146.5t-113.5 -106.5q-31 -20 -61.5 -29t-48.5 -9q-11 0 -22.5 3.5t-22.5 11.5q-5 2 -7.5 1.5t-6.5 -5.5q-13 -18 -25.5 -36t-21.5 -32q-11 -17 -13.5 -27.5t-0.5 -16.5q2 -8 0 -15t-10 -17q-20 -28 -37 -28q-9 0 -16.5 12t-3.5 30 q2 13 7 20.5t11 11.5q12 9 22 26q3 3 9 13t14.5 23t19 28t21.5 30q4 8 -1 14q-14 19 -20.5 49t-6.5 56q0 29 11 67.5t37 80.5q19 32 49 64.5t62.5 59t65 43t56.5 16.5h1zM369 423q-20 -1 -50.5 -24t-66.5 -60q-22 -22 -41.5 -48t-34 -54t-23 -56t-8.5 -55q0 -14 2.5 -26 t6.5 -20q3 -7 9 -1q11 15 29 40t41 56t48.5 65t50.5 66.5t47.5 62t40.5 50.5q3 3 2 4t-4 3q-4 2 -9.5 3t-10.5 1t-9 -2q-8 -5 -19 -5h-1zM211 32q18 0 45 9.5t63 40.5q25 21 51.5 57t48.5 76t36.5 78.5t14.5 63.5q0 11 -2 21.5t-7 16.5q-4 7 -11 -2q-19 -23 -44 -54 t-52.5 -65.5t-54.5 -69t-50 -65t-40.5 -53.5t-24.5 -34q-4 -7 2 -13q5 -3 12 -5t12 -2h1z" glyph-name="Oslash" horiz-adv-x="466" unicode="Ø"/>
<glyph d="M547 462q8 0 16 -10.5t11 -17.5q6 -15 -7 -37q-35 -60 -60.5 -138t-36.5 -166q-2 -12 1.5 -15t15.5 5q16 9 35 18.5t40 15.5q15 4 14.5 -3.5t-10.5 -13.5q-15 -9 -33.5 -25t-35.5 -32t-30 -30t-18 -20q-7 -10 -15 -10q-10 0 -18 4q-13 6 -15 22t3 39q2 13 8.5 40t14 56.5 t14.5 56.5t11 39q3 8 -1 8.5t-9 -7.5q-3 -3 -15 -16t-29.5 -32t-40 -42t-46.5 -45t-41 -36.5t-29 -23.5t-21 -15t-17 -10q-17 -10 -34 -15.5t-29 -5.5q-16 0 -26 6q-8 5 -10 13t-2 15q-1 6 0 14t3 16q13 78 37.5 150t56.5 152q6 15 8.5 30.5t0.5 26.5q-2 9 1.5 14t11.5 12 q8 8 21.5 15.5t22.5 7.5t16.5 -13.5t-2.5 -35.5q-15 -33 -30 -69t-28.5 -71.5t-25 -68.5t-18.5 -61q-7 -27 -8.5 -43.5t1 -25t6.5 -11.5t8 -3q8 0 21.5 5t31.5 19q24 17 45.5 35.5t43 40.5t45.5 49t53 60q24 27 42 52t27 49q10 26 16 40t11 22q13 20 26 20h1zM350 601 q15 0 26 -17q6 -8 18 -26t20 -31q22 -28 26 -38q3 -8 -4.5 -10.5t-16.5 2.5q-10 6 -22.5 14.5t-25 17.5t-24 19t-18.5 19q-14 16 -5 34q10 16 25 16h1z" glyph-name="Ugrave" horiz-adv-x="532" unicode="Ù"/>
<glyph d="M547 462q8 0 16 -10.5t11 -17.5q6 -15 -7 -37q-35 -60 -60.5 -138t-36.5 -166q-2 -12 1.5 -15t15.5 5q16 9 35 18.5t40 15.5q15 4 14.5 -3.5t-10.5 -13.5q-15 -9 -33.5 -25t-35.5 -32t-30 -30t-18 -20q-7 -10 -15 -10q-10 0 -18 4q-13 6 -15 22t3 39q2 13 8.5 40t14 56.5 t14.5 56.5t11 39q3 8 -1 8.5t-9 -7.5q-3 -3 -15 -16t-29.5 -32t-40 -42t-46.5 -45t-41 -36.5t-29 -23.5t-21 -15t-17 -10q-17 -10 -34 -15.5t-29 -5.5q-16 0 -26 6q-8 5 -10 13t-2 15q-1 6 0 14t3 16q13 78 37.5 150t56.5 152q6 15 8.5 30.5t0.5 26.5q-2 9 1.5 14t11.5 12 q8 8 21.5 15.5t22.5 7.5t16.5 -13.5t-2.5 -35.5q-15 -33 -30 -69t-28.5 -71.5t-25 -68.5t-18.5 -61q-7 -27 -8.5 -43.5t1 -25t6.5 -11.5t8 -3q8 0 21.5 5t31.5 19q24 17 45.5 35.5t43 40.5t45.5 49t53 60q24 27 42 52t27 49q10 26 16 40t11 22q13 20 26 20h1zM356 479 q0 8 12 20q16 14 36.5 35t37.5 42q16 19 29 19q17 0 29 -14q13 -17 -8 -36q-41 -35 -72.5 -51t-41.5 -20q-7 -2 -14.5 -1.5t-7.5 5.5v1z" glyph-name="Uacute" horiz-adv-x="532" unicode="Ú"/>
<glyph d="M547 462q8 0 16 -10.5t11 -17.5q6 -15 -7 -37q-35 -60 -60.5 -138t-36.5 -166q-2 -12 1.5 -15t15.5 5q16 9 35 18.5t40 15.5q15 4 14.5 -3.5t-10.5 -13.5q-15 -9 -33.5 -25t-35.5 -32t-30 -30t-18 -20q-7 -10 -15 -10q-10 0 -18 4q-13 6 -15 22t3 39q2 13 8.5 40t14 56.5 t14.5 56.5t11 39q3 8 -1 8.5t-9 -7.5q-3 -3 -15 -16t-30 -32t-40.5 -42t-46.5 -45t-40.5 -36.5t-28.5 -23.5t-21 -15t-17 -10q-17 -10 -34 -15.5t-29 -5.5q-16 0 -26 6q-8 5 -10 13t-2 15q-1 6 0 14t3 16q13 78 37.5 150t56.5 152q6 15 8.5 30.5t0.5 26.5q-2 9 1.5 14 t11.5 12q8 8 21.5 15.5t22.5 7.5t16.5 -13.5t-2.5 -35.5q-15 -33 -30 -69t-28.5 -71.5t-25 -68.5t-18.5 -61q-7 -27 -8.5 -43.5t1 -25t6.5 -11.5t8 -3q8 0 21.5 5t31.5 19q24 17 45.5 35.5t43 40.5t45.5 49t53 60q24 27 42 52t27 49q10 26 16 40t11 22q13 20 26 20h1z M451 612q5 0 9 -5.5t6 -12.5q4 -16 16 -39t25 -37q5 -5 3 -11t-8 -10q-6 -6 -19 -6q-14 0 -25.5 18t-20.5 36q-4 8 -12 -1q-14 -15 -27.5 -25.5t-22.5 -16.5q-20 -15 -43 -15q-8 0 -14 6q-4 4 -4 10t9 12q23 16 51.5 38.5t48.5 46.5q9 12 27 12h1z" glyph-name="Ucircumflex" horiz-adv-x="532" unicode="Û"/>
<glyph d="M547 462q8 0 16 -10.5t11 -17.5q6 -15 -7 -37q-35 -60 -60.5 -138t-36.5 -166q-2 -12 1.5 -15t15.5 5q16 9 35 18.5t40 15.5q15 4 14.5 -3.5t-10.5 -13.5q-15 -9 -33.5 -25t-35.5 -32t-30 -30t-18 -20q-7 -10 -15 -10q-10 0 -18 4q-13 6 -15 22t3 39q2 13 8.5 40t14 56.5 t14.5 56.5t11 39q3 8 -1 8.5t-9 -7.5q-3 -3 -15 -16t-29.5 -32t-40 -42t-46.5 -45t-41 -36.5t-29 -23.5t-21 -15t-17 -10q-17 -10 -34 -15.5t-29 -5.5q-16 0 -26 6q-8 5 -10 13t-2 15q-1 6 0 14t3 16q13 78 37.5 150t56.5 152q6 15 8.5 30.5t0.5 26.5q-2 9 1.5 14t11.5 12 q8 8 21.5 15.5t22.5 7.5t16.5 -13.5t-2.5 -35.5q-15 -33 -30 -69t-28.5 -71.5t-25 -68.5t-18.5 -61q-7 -27 -8.5 -43.5t1 -25t6.5 -11.5t8 -3q8 0 21.5 5t31.5 19q24 17 45.5 35.5t43 40.5t45.5 49t53 60q24 27 42 52t27 49q10 26 16 40t11 22q13 20 26 20h1zM358 576 q22 0 27.5 -13t5.5 -21q0 -14 -14 -28t-27 -14q-12 0 -23 12.5t-11 27.5q0 18 12 27t29 9h1zM475 575q12 0 23.5 -12t11.5 -24q0 -17 -16.5 -28t-33.5 -11q-8 0 -18.5 8.5t-10.5 22.5t11.5 29t31.5 15h1z" glyph-name="Udieresis" horiz-adv-x="532" unicode="Ü"/>
<glyph d="M533 429q0 -10 -10 -23t-27 -26q-16 -12 -55 -42.5t-83 -68.5q-38 -32 -55.5 -54.5t-26.5 -47.5q-7 -19 -11.5 -42t-10.5 -57q-2 -10 0 -13t9 -5q27 -5 48.5 -12t21.5 -15q0 -6 -14.5 -9.5t-35.5 -4.5q-38 -2 -52 -6.5t-21 -11.5q-4 -5 -9 -6.5t-10 -1.5q-11 0 -20.5 5 t-14.5 12t-2 18.5t24 21.5q10 5 13.5 9t5.5 15q8 31 13 51.5t8 34.5q5 23 6 40t-4 38q-3 11 -9.5 31t-14.5 44t-17.5 50t-16.5 49q-5 15 -5 26t3 18.5t8 12.5t10 8q13 10 33 10q14 0 11 -24q-2 -14 1 -39.5t9.5 -54t14.5 -55.5t16 -43q5 -8 13 0q12 11 34.5 28t47 35 t47 34.5t33.5 26.5q21 19 26.5 36.5t6.5 30.5q1 10 6 16.5t13 6.5q17 0 30 -14t13 -31v-1zM297 472q0 8 12 20q16 15 36 35.5t38 41.5q16 20 30 20q15 0 28 -15q13 -17 -8 -35q-41 -36 -72.5 -52t-41.5 -20q-7 -2 -14.5 -1.5t-7.5 5.5v1z" glyph-name="Yacute" horiz-adv-x="429" unicode="Ý"/>
<glyph d="M437 269q0 -16 -9 -33.5t-22.5 -33.5t-29.5 -29.5t-30 -20.5q-20 -11 -43 -18.5t-33 -7.5q-8 0 -17 1t-17.5 3.5t-16 7.5t-11.5 13q-4 9 -9 -1q-2 -3 -7 -17t-10.5 -30t-10.5 -30t-5 -17q0 -10 6.5 -13t20.5 -3q45 0 65 6q14 4 16 -1.5t-6 -14.5q-9 -9 -25.5 -17 t-34.5 -13t-35 -8t-27 -3q-15 0 -30 7q-18 10 -21.5 17t-3.5 12q1 5 10 10.5t16 8.5q4 2 5 5.5l3 10.5q3 21 6.5 37.5t8.5 33t11.5 34t15.5 41.5q17 46 27 71t15 37q8 17 -3 13q-14 -5 -26.5 -11.5t-20.5 -16.5q-6 -6 -8 -7t-6 -1q-6 0 -14 5t-8 14q0 5 1 9.5t5 7.5 q17 15 45 26.5t50 15.5q9 1 12 8q2 5 8 20.5t10 25.5t1.5 12t-6.5 2q-3 0 -10.5 1t-14.5 3t-12.5 5t-5.5 7q0 10 19 13q21 3 35 6.5t28 13.5q8 7 17 7q7 0 12.5 -6t9.5 -14q6 -13 -3 -24q-6 -8 -11 -18t-9 -19.5t-7 -18t-4 -12.5q-2 -5 0.5 -5.5t7.5 -0.5q28 0 58 -6t52 -25 q14 -14 20 -33.5t6 -40.5v-1zM381 278q0 21 -18.5 39t-55.5 18q-18 0 -25 -3q-9 -1 -16 -15q-5 -9 -11.5 -26t-14 -35.5t-13.5 -34.5l-9 -24q-1 -5 -1.5 -6.5t2.5 -1.5q3 1 6 1.5t8 0.5q4 0 7.5 -3t7.5 -7q3 -4 11 -8.5t19 -4.5q8 0 19 3t27 12q7 4 16.5 12t18.5 20 t15.5 27.5t6.5 34.5v1z" glyph-name="Thorn" horiz-adv-x="389" unicode="Þ"/>
<glyph d="M417 598q35 0 56.5 -19t21.5 -46q0 -29 -21 -51.5t-44 -39.5q-29 -20 -47 -34.5t-29 -27t-15.5 -23t-4.5 -20.5q-1 -20 5 -41.5t15.5 -42t20 -39t17.5 -31.5q5 -7 16 -4l4 1q20 9 21.5 2t-6.5 -21q-5 -9 -15 -17q-5 -5 -5 -15q-2 -35 -17 -57t-43 -42q-13 -9 -28.5 -16 t-30.5 -12.5t-28 -8t-22 -2.5q-8 0 -14.5 2t-12.5 8q-6 7 -6.5 18t3.5 22q7 19 37.5 50.5t90.5 60.5q8 4 4 11q-8 15 -18.5 34t-19.5 39t-15.5 40.5t-6.5 40.5q0 27 13.5 50.5t33 44t42.5 37.5t41 29q14 10 22.5 20.5t8.5 18.5q0 10 -8 19.5t-30 9.5q-9 0 -20.5 -5 t-24.5 -13q-35 -26 -63.5 -54.5t-53.5 -70t-48.5 -100t-49.5 -145.5q-30 -98 -45.5 -163t-24.5 -92q-7 -21 -8 -30.5t0 -16.5q1 -5 0.5 -11.5t-3.5 -16.5q-2 -8 -8 -19.5t-16 -24.5q-29 -35 -49 -65.5t-28 -47.5q-13 -21 -24 -21q-12 0 -18 15q-4 8 -4 15.5t5 20.5 q3 7 11.5 19.5t18 24.5t18 22t11.5 13q6 8 11.5 16.5t10.5 20.5q9 20 15.5 42t12.5 48t12.5 57.5t15.5 72.5q12 55 26.5 115t42.5 132q38 97 83.5 162t114.5 106q30 17 40 17q7 0 11 9q4 6 14 13t27 7h1zM264 47q0 -11 13 -11q6 0 19.5 5.5t27.5 15t24.5 23t10.5 30.5 q0 6 -2.5 6.5t-8.5 -1.5q-50 -23 -67 -40.5t-17 -26.5v-1z" glyph-name="germandbls" horiz-adv-x="414" unicode="ß"/>
<glyph d="M275 352q8 0 14.5 -7t11.5 -13q2 -7 9 -2q10 7 19 1q11 -7 12 -14t-3 -15q-23 -50 -36 -94t-13 -87q0 -34 6 -56t24 -22q16 0 37.5 15.5t44 38.5t44 49.5t38.5 49.5q6 7 11 7t7 -5t-0.5 -13.5t-7.5 -19.5q-14 -27 -38.5 -58t-52.5 -56.5t-56 -42.5t-47 -17 q-18 0 -36 20.5t-21 51.5q-2 16 -2.5 34t-0.5 26q0 10 -8 2q-5 -7 -17 -21t-26.5 -29.5t-29 -30t-24.5 -23.5q-34 -30 -58 -30q-3 0 -10 2.5t-14 8t-12.5 15t-5.5 23.5q0 13 7 38.5t31 70.5q20 39 52.5 84t69.5 77q31 28 51.5 35t28.5 7h1zM246 298q-20 0 -62 -51 q-36 -42 -57.5 -87.5t-28.5 -72.5q-5 -14 -2 -24t13 -10q6 0 17 7.5t25 20.5q13 12 32.5 36.5t42.5 54.5q4 6 10 16.5t11.5 21t9.5 18.5t6 11q3 8 5 18t0 19t-6.5 15.5t-14.5 6.5h-1zM215 531q15 0 24 -19q11 -22 20 -41t16 -31q8 -14 13.5 -24.5t7.5 -15.5q3 -9 -3 -12 t-16 4q-17 13 -41.5 37t-42.5 50q-12 19 -3 36q4 7 11 11.5t13 4.5h1z" glyph-name="agrave" horiz-adv-x="383" unicode="à"/>
<glyph d="M275 352q8 0 14.5 -7t11.5 -13q2 -7 9 -2q10 7 19 1q11 -7 12 -14t-3 -15q-23 -50 -36 -94t-13 -87q0 -34 6 -56t24 -22q16 0 37.5 15.5t44 38.5t44 49.5t38.5 49.5q6 7 11 7t7 -5t-0.5 -13.5t-7.5 -19.5q-14 -27 -38.5 -58t-52.5 -56.5t-56 -42.5t-47 -17 q-18 0 -36 20.5t-21 51.5q-2 16 -2.5 34t-0.5 26q0 10 -8 2q-5 -7 -17 -21t-26.5 -29.5t-29 -30t-24.5 -23.5q-34 -30 -58 -30q-3 0 -10 2.5t-14 8t-12.5 15t-5.5 23.5q0 13 7 38.5t31 70.5q20 39 52.5 84t69.5 77q31 28 51.5 35t28.5 7h1zM246 298q-20 0 -62 -51 q-36 -42 -57.5 -87.5t-28.5 -72.5q-5 -14 -2 -24t13 -10q6 0 17 7.5t25 20.5q13 12 32.5 36.5t42.5 54.5q4 6 10 16.5t11.5 21t9.5 18.5t6 11q3 8 5 18t0 19t-6.5 15.5t-14.5 6.5h-1zM243 392q0 6 10 16q16 14 38.5 38.5t57.5 66.5q8 9 14.5 14t15.5 5q15 0 27 -14 q11 -14 -5 -29q-58 -56 -94 -77t-45 -24q-8 -3 -13.5 -2.5t-5.5 5.5v1z" glyph-name="aacute" horiz-adv-x="383" unicode="á"/>
<glyph d="M275 352q8 0 14.5 -7t11.5 -13q2 -7 9 -2q10 7 19 1q11 -7 12 -14t-3 -15q-23 -50 -36 -94t-13 -87q0 -34 6 -56t24 -22q16 0 37.5 15.5t44 38.5t44 49.5t38.5 49.5q6 7 11 7t7 -5t-0.5 -13.5t-7.5 -19.5q-14 -27 -38.5 -58t-52.5 -56.5t-56 -42.5t-47 -17 q-18 0 -36 20.5t-21 51.5q-2 16 -2.5 34t-0.5 26q0 10 -8 2q-5 -7 -17 -21t-26.5 -29.5t-29 -30t-24.5 -23.5q-34 -30 -58 -30q-3 0 -10 2.5t-14 8t-12.5 15t-5.5 23.5q0 13 7 38.5t31 70.5q20 39 52.5 84t69.5 77q31 28 51.5 35t28.5 7h1zM246 298q-20 0 -62 -51 q-36 -42 -57.5 -87.5t-28.5 -72.5q-5 -14 -2 -24t13 -10q6 0 17 7.5t25 20.5q13 12 32.5 36.5t42.5 54.5q4 6 10 16.5t11.5 21t9.5 18.5t6 11q3 8 5 18t0 19t-6.5 15.5t-14.5 6.5h-1zM298 529q7 0 10.5 -6t5.5 -13q2 -9 6 -21.5t9.5 -25.5t10.5 -24t9 -15q7 -8 5.5 -15.5 t-6.5 -11.5q-7 -5 -17 -5q-11 0 -18 11q-3 4 -7 11.5t-7.5 16t-6 16l-3.5 10.5q-4 10 -13 -1q-14 -18 -27 -31.5t-21 -20.5q-9 -8 -19 -12.5t-18 -4.5q-9 0 -14 7q-3 4 -1.5 10t9.5 13q20 19 46 45t44 54q8 13 22 13h1z" glyph-name="acircumflex" horiz-adv-x="383" unicode="â"/>
<glyph d="M275 352q8 0 14.5 -7t11.5 -13q2 -7 9 -2q10 7 19 1q11 -7 12 -14t-3 -15q-23 -50 -36 -94t-13 -87q0 -34 6 -56t24 -22q16 0 37.5 15.5t44 38.5t44 49.5t38.5 49.5q6 7 11 7t7 -5t-0.5 -13.5t-7.5 -19.5q-14 -27 -38.5 -58t-52.5 -56.5t-56 -42.5t-47 -17 q-18 0 -36 20.5t-21 51.5q-2 16 -2.5 34t-0.5 26q0 10 -8 2q-5 -7 -17 -21t-26.5 -29.5t-29 -30t-24.5 -23.5q-34 -30 -58 -30q-3 0 -10 2.5t-14 8t-12.5 15t-5.5 23.5q0 13 7 38.5t31 70.5q20 39 52.5 84t69.5 77q31 28 51.5 35t28.5 7h1zM246 298q-20 0 -62 -51 q-36 -42 -57.5 -87.5t-28.5 -72.5q-5 -14 -2 -24t13 -10q6 0 17 7.5t25 20.5q13 12 32.5 36.5t42.5 54.5q4 6 10 16.5t11.5 21t9.5 18.5t6 11q3 8 5 18t0 19t-6.5 15.5t-14.5 6.5h-1zM246 498q12 0 22 -8.5t20 -19.5q10 -12 18.5 -19.5t15.5 -7.5q10 0 16 15t8 25q2 5 6 9.5 t11 4.5q13 0 16 -11t1 -22q-1 -11 -6.5 -23t-14 -21.5t-19 -16t-21.5 -7.5q-15 -1 -26.5 8t-25.5 24q-20 21 -28 21q-11 -1 -17.5 -16t-8.5 -26q-2 -10 -16 -10q-6 0 -13 7t-5 24q1 9 7 21.5t15.5 23t20.5 18t23 7.5h1z" glyph-name="atilde" horiz-adv-x="383" unicode="ã"/>
<glyph d="M275 352q8 0 14.5 -7t11.5 -13q2 -7 9 -2q10 7 19 1q11 -7 12 -14t-3 -15q-23 -50 -36 -94t-13 -87q0 -34 6 -56t24 -22q16 0 37.5 15.5t44 38.5t44 49.5t38.5 49.5q6 7 11 7t7 -5t-0.5 -13.5t-7.5 -19.5q-14 -27 -38.5 -58t-52.5 -56.5t-56 -42.5t-47 -17 q-18 0 -36 20.5t-21 51.5q-2 16 -2.5 34t-0.5 26q0 10 -8 2q-5 -7 -17 -21t-26.5 -29.5t-29 -30t-24.5 -23.5q-34 -30 -58 -30q-3 0 -10 2.5t-14 8t-12.5 15t-5.5 23.5q0 13 7 38.5t31 70.5q20 39 52.5 84t69.5 77q31 28 51.5 35t28.5 7h1zM245 298q-20 0 -62 -51 q-35 -42 -56.5 -87.5t-28.5 -72.5q-5 -14 -2 -24t13 -10q6 0 16.5 7.5t24.5 20.5q13 12 32.5 36.5t42.5 54.5q5 6 11 16.5t11.5 21t9.5 18.5t5 11q4 8 6 18t0 19t-7 15.5t-15 6.5h-1zM225 479q22 0 27.5 -13t5.5 -22q0 -14 -14 -27.5t-27 -13.5q-12 0 -23 12.5t-11 26.5 q0 19 12 28t29 9h1zM343 477q12 0 23.5 -11.5t11.5 -23.5q0 -17 -16.5 -28t-33.5 -11q-8 0 -18.5 8.5t-10.5 22.5t11.5 28.5t31.5 14.5h1z" glyph-name="adieresis" horiz-adv-x="383" unicode="ä"/>
<glyph d="M275 352q8 0 14.5 -7t11.5 -13q2 -7 10 -2q8 7 19 1q11 -7 11.5 -14t-3.5 -15q-23 -50 -36 -94t-13 -87q0 -34 6 -56t24 -22q16 0 37.5 15.5t44 38.5t44.5 49.5t38 49.5q6 7 11 7t7 -5q3 -11 -8 -33q-14 -27 -38.5 -58t-52 -56.5t-55.5 -42.5t-47 -17t-37 20.5t-21 51.5 q-2 16 -2.5 34t-0.5 26q0 10 -8 2q-5 -7 -17 -21t-26.5 -29.5t-29 -30t-24.5 -23.5q-34 -30 -58 -30q-3 0 -10 2.5t-14 8t-12.5 15t-5.5 23.5q0 13 7 38.5t31 70.5q20 39 52.5 84t68.5 77q31 28 51.5 35t29.5 7h1zM245 298q-20 0 -62 -51q-35 -42 -56.5 -87.5t-28.5 -72.5 q-5 -14 -2 -24t13 -10q6 0 17 7.5t25 20.5q12 12 31.5 36.5t42.5 54.5q5 6 11 16.5t11.5 21t9.5 18.5t5 11q4 8 6 18t0 19t-7 15.5t-15 6.5h-1zM293 544q34 0 53.5 -18t19.5 -52q0 -15 -9.5 -30t-24 -26.5t-31 -18.5t-30.5 -7q-12 0 -23.5 6.5t-20 16.5t-13.5 22t-5 24 q0 15 7.5 29.5t19.5 26.5t26.5 19.5t29.5 7.5h1zM286 506q-10 0 -24.5 -9.5t-14.5 -28.5q0 -13 8 -25.5t25 -12.5q20 0 34 13.5t14 27.5q0 17 -12 26t-29 9h-1z" glyph-name="aring" horiz-adv-x="383" unicode="å"/>
<glyph d="M305 319q7 0 15 -2.5t13 -7.5q3 -2 6.5 4t8.5 13q18 27 39 27q20 0 11 -20q-2 -7 -7 -17t-8 -15q-1 -2 3.5 -1t11.5 8q4 4 14.5 10.5t23.5 13t26 11t22 4.5q12 0 23 -10t12 -32q1 -32 -14.5 -60t-39 -50t-50 -34.5t-48.5 -12.5q-16 0 -26 3q-9 3 -14 8q-4 3 -7 -4 q-8 -17 -13 -36.5t-5 -40.5q0 -18 12 -27t28 -9q20 0 43.5 8.5t45 21.5t40.5 27.5t30 25.5q10 8 11.5 -3t-4.5 -23q-8 -12 -27.5 -30.5t-46.5 -36t-58.5 -29.5t-63.5 -12q-14 0 -26 6.5t-20 16.5t-12.5 22t-4.5 23q0 10 2 21.5t5 24.5q3 16 -11 0q-15 -15 -31.5 -29 t-32.5 -26.5t-29 -22t-21 -14.5q-14 -10 -29.5 -16t-24.5 -6q-12 0 -28 13t-16 41q0 15 5 31.5t13 34t18 34t21 30.5q16 21 30.5 37t28 28.5t27.5 22.5t29 20q12 9 27 15.5t29 11t25.5 7t17.5 2.5h1zM354 193q8 0 22.5 3t28.5 10q8 4 17.5 12t18 17.5t14 21t5.5 22.5 q0 16 -18 16q-13 0 -29 -9t-31 -22t-26.5 -29t-16.5 -30q-7 -12 14 -12h1zM96 73q0 -8 4.5 -14.5t13.5 -6.5q8 0 23 8.5t38 28.5q17 14 36.5 33t37.5 38.5t32.5 37.5t21.5 31q9 16 9.5 24.5t-3.5 12.5q-9 9 -25 9q-8 0 -21.5 -5.5t-30.5 -16.5t-36 -27.5t-37 -38.5 q-33 -39 -48 -69t-15 -44v-1z" glyph-name="ae" horiz-adv-x="489" unicode="æ"/>
<glyph d="M59 88q0 33 17 82.5t58 97.5q15 18 33.5 33t38 26.5t38 18t33.5 6.5q21 0 32 -12.5t11 -24.5q0 -16 -10.5 -27t-20.5 -17q-14 -8 -22 -3q-7 7 -3 19q2 16 -15 16q-8 0 -18.5 -5.5t-22 -15t-22.5 -21.5t-20 -25q-29 -42 -38 -78t-9 -59q0 -30 14 -45.5t35 -15.5 q28 0 60 14t63.5 35t60 46t49.5 48q5 7 10 7t7 -3q5 -9 -7 -26q-21 -27 -48 -53t-56.5 -47.5t-60.5 -38t-59 -23.5q0 -1 -4.5 -7t-9.5 -13.5t-9.5 -15.5t-4.5 -14q0 -8 8.5 -16.5t19.5 -17.5q9 -8 12 -18t3 -19q-1 -11 -9 -24t-22 -26q-9 -7 -20.5 -11t-22.5 -6t-20 -2h-12 q-5 1 -8.5 0.5t-11.5 -2.5q-11 -3 -25 8q-4 5 -7 9t-3 9q0 6 4.5 12.5t11.5 11.5t14 8.5t12 3.5q6 0 12.5 -6t8.5 -11q3 -5 7.5 -6t9.5 -1q8 0 20 5.5t12 14.5q1 8 -4.5 15.5t-21.5 18.5q-8 8 -13 14t-5 15q0 7 4 16.5t9.5 18.5t12 17t11.5 13q-12 0 -27 3.5t-28.5 14 t-22.5 29.5t-9 49v1z" glyph-name="ccedilla" horiz-adv-x="313" unicode="ç"/>
<glyph d="M63 80q0 29 18 77.5t47 96.5q6 9 18.5 26t28 33.5t31.5 28.5t30 12q11 0 16 -5.5t6 -12.5q0 -6 11 -9q17 -1 29 -13t12 -35t-9.5 -46t-23.5 -39q-20 -23 -48.5 -40t-66.5 -17q-12 0 -23 9q-3 2 -5 1.5t-4 -5.5q-4 -8 -8 -24.5t-4 -30.5q0 -24 12 -35.5t32 -11.5 q35 0 78 23t78 57q5 5 11.5 6t10.5 -1q3 -11 -12 -32q-13 -16 -34 -34t-46.5 -33.5t-54 -25.5t-56.5 -10q-27 0 -50.5 23t-23.5 66v1zM163 182q18 0 35.5 6.5t30.5 18t21 25.5t8 29q0 18 -8.5 27.5t-18.5 9.5q-9 0 -21 -11t-23 -27.5t-21 -35t-16 -32.5q-2 -5 0 -7.5 t12 -2.5h1zM194 531q15 0 23 -19q11 -22 20.5 -41.5t16.5 -30.5q8 -14 13.5 -24.5t7.5 -15.5q3 -10 -3 -12.5t-16 4.5q-17 12 -41.5 36.5t-42.5 49.5q-14 20 -4 36q10 17 25 17h1z" glyph-name="egrave" horiz-adv-x="314" unicode="è"/>
<glyph d="M63 80q0 29 18 77.5t47 96.5q6 9 18.5 26t28 33.5t31.5 28.5t30 12q11 0 16 -5.5t6 -12.5q0 -6 11 -9q17 -1 29 -13t12 -35t-9.5 -46t-23.5 -39q-20 -23 -48.5 -40t-66.5 -17q-12 0 -23 9q-3 2 -5 1.5t-4 -5.5q-4 -8 -8 -24.5t-4 -30.5q0 -24 12 -35.5t32 -11.5 q35 0 78 23t78 57q5 5 11.5 6t10.5 -1q3 -11 -12 -32q-13 -16 -34 -34t-46.5 -33.5t-54 -25.5t-56.5 -10q-27 0 -50.5 23t-23.5 66v1zM163 182q18 0 35.5 6.5t30.5 18t21 25.5t8 29q0 18 -8.5 27.5t-18.5 9.5q-9 0 -21 -11t-23 -27.5t-21 -35t-16 -32.5q-2 -5 0 -7.5 t12 -2.5h1zM198 397q0 6 11 17q15 14 38 38t58 66q15 20 29 20q15 0 27 -15q12 -13 -5 -28q-58 -56 -93.5 -77.5t-45.5 -24.5q-8 -2 -13.5 -2t-5.5 5v1z" glyph-name="eacute" horiz-adv-x="314" unicode="é"/>
<glyph d="M63 80q0 29 18 77.5t47 96.5q6 9 18.5 26t28 33.5t31.5 28.5t30 12q11 0 16 -5.5t6 -12.5q0 -6 11 -9q17 -1 29 -13t12 -35t-9.5 -46t-23.5 -39q-20 -23 -48.5 -40t-66.5 -17q-12 0 -23 9q-3 2 -5 1.5t-4 -5.5q-4 -8 -8 -24.5t-4 -30.5q0 -24 12 -35.5t32 -11.5 q35 0 78 23t78 57q5 5 11.5 6t10.5 -1q3 -11 -12 -32q-13 -16 -34 -34t-46.5 -33.5t-54 -25.5t-56.5 -10q-27 0 -50.5 23t-23.5 66v1zM163 182q18 0 35.5 6.5t30.5 18t21 25.5t8 29q0 18 -8.5 27.5t-18.5 9.5q-9 0 -21 -11t-23 -27.5t-21 -35t-16 -32.5q-2 -5 0 -7.5 t12 -2.5h1zM270 523q7 0 10.5 -6t5.5 -13q2 -9 6 -21.5t9.5 -25.5t10.5 -23.5t9 -15.5q6 -8 4.5 -15t-5.5 -12q-7 -5 -18 -5q-10 0 -17 11q-3 4 -7 11.5t-7.5 16t-6 16l-3.5 10.5q-4 11 -13 -1q-14 -17 -27 -30.5t-21 -20.5q-20 -18 -38 -18q-7 0 -14 7q-2 4 -1 10.5t9 12.5 q21 20 46.5 45.5t44.5 54.5q8 12 22 12h1z" glyph-name="ecircumflex" horiz-adv-x="314" unicode="ê"/>
<glyph d="M63 80q0 29 18 77.5t47 96.5q6 9 18.5 26t28 33.5t31.5 28.5t30 12q11 0 16 -5.5t6 -12.5q0 -6 11 -9q17 -1 29 -13t12 -35t-9.5 -46t-23.5 -39q-20 -23 -48.5 -40t-66.5 -17q-12 0 -23 9q-3 2 -5 1.5t-4 -5.5q-4 -8 -8 -24.5t-4 -30.5q0 -24 12 -35.5t32 -11.5 q35 0 78 23t78 57q5 5 11.5 6t10.5 -1q3 -11 -12 -32q-13 -16 -34 -34t-46.5 -33.5t-54 -25.5t-56.5 -10q-27 0 -50.5 23t-23.5 66v1zM163 182q18 0 35.5 6.5t30.5 18t21 25.5t8 29q0 18 -8.5 27.5t-18.5 9.5q-9 0 -21 -11t-23 -27.5t-21 -35t-16 -32.5q-2 -5 0 -7.5 t12 -2.5h1zM193 479q22 0 27.5 -13t5.5 -22q0 -14 -14 -27.5t-27 -13.5q-12 0 -23 12.5t-11 26.5q0 19 12 28t29 9h1zM310 477q12 0 23.5 -11.5t11.5 -23.5q0 -17 -16.5 -28t-33.5 -11q-8 0 -18.5 8.5t-10.5 22.5t11.5 28.5t31.5 14.5h1z" glyph-name="edieresis" horiz-adv-x="314" unicode="ë"/>
<glyph d="M107 -12q-11 0 -21 7.5t-20 27.5q-15 27 -4 60q2 8 7 23.5t10.5 33l11 35t9.5 28.5q5 16 4 24q-1 6 -0.5 13t5.5 17t14.5 25t21 29.5t23 25t20.5 13.5t18 -5q3 -5 5 -15.5t-6 -24.5q-13 -22 -26.5 -49.5t-25.5 -56t-22 -56t-17 -51.5q-8 -28 -2.5 -38.5t17.5 -10.5 q21 0 51 17.5t62.5 44t63.5 58.5t54 61q12 15 18 4q3 -11 -9 -32q-17 -28 -43.5 -57.5t-56.5 -56.5t-59.5 -47.5t-50.5 -30.5q-20 -9 -31.5 -12.5t-19.5 -3.5h-1zM147 541q15 0 24 -19q11 -22 20 -41t16 -31q8 -14 13.5 -24.5t7.5 -15.5q3 -10 -3 -12.5t-16 4.5 q-17 13 -41.5 37t-42.5 50q-13 19 -4 36q5 7 11.5 11.5t13.5 4.5h1z" glyph-name="igrave" horiz-adv-x="234" unicode="ì"/>
<glyph d="M107 -12q-11 0 -21 7.5t-20 27.5q-15 27 -4 60q2 8 7 23.5t10.5 33l11 35t9.5 28.5q5 16 4 24q-1 6 -0.5 13t5.5 17t14.5 25t21 29.5t23 25t20.5 13.5t18 -5q3 -5 5 -15.5t-6 -24.5q-13 -22 -26.5 -49.5t-25.5 -56t-22 -56t-17 -51.5q-8 -28 -2.5 -38.5t17.5 -10.5 q21 0 51 17.5t62.5 44t63.5 58.5t54 61q12 15 18 4q3 -11 -9 -32q-17 -28 -43.5 -57.5t-56.5 -56.5t-59.5 -47.5t-50.5 -30.5q-20 -9 -31.5 -12.5t-19.5 -3.5h-1zM155 405q0 7 10 17q15 14 38 38t58 66q8 10 14.5 14.5t15.5 4.5q16 0 27 -14t-5 -28q-58 -56 -94 -77.5 t-46 -24.5q-8 -3 -13 -2.5t-5 5.5v1z" glyph-name="iacute" horiz-adv-x="234" unicode="í"/>
<glyph d="M107 -12q-11 0 -21 7.5t-20 27.5q-15 27 -4 60q2 8 7 23.5t10.5 33l11 35t9.5 28.5q5 16 4 24q-1 6 -0.5 13t5.5 17t14.5 25t21 29.5t23 25t20.5 13.5t18 -5q3 -5 5 -15.5t-6 -24.5q-13 -22 -26.5 -49.5t-25.5 -56t-22 -56t-17 -51.5q-8 -28 -2.5 -38.5t17.5 -10.5 q21 0 51 17.5t62.5 44t63.5 58.5t54 61q12 15 18 4q3 -11 -9 -32q-17 -28 -43.5 -57.5t-56.5 -56.5t-59.5 -47.5t-50.5 -30.5q-20 -9 -31.5 -12.5t-19.5 -3.5h-1zM229 542q7 0 10.5 -6t5.5 -13q2 -9 6 -21.5t9.5 -25.5t10.5 -24t9 -15q7 -8 5.5 -15t-6.5 -12q-7 -5 -17 -5 q-11 0 -18 11q-3 4 -7 11.5t-7.5 16t-6 16l-3.5 10.5q-4 11 -13 -1q-14 -17 -27 -31t-21 -20q-20 -18 -38 -18q-7 0 -14 7q-2 4 -1 10t9 13q21 20 46.5 45.5t44.5 54.5q8 12 22 12h1z" glyph-name="icircumflex" horiz-adv-x="234" unicode="î"/>
<glyph d="M107 -12q-11 0 -21 7.5t-20 27.5q-15 27 -4 60q2 8 7 23.5t10.5 33l11 35t9.5 28.5q5 16 4 24q-1 6 -0.5 13t5.5 17t14.5 25t21 29.5t23 25t20.5 13.5q10 3 18 -5q3 -5 5 -15.5t-6 -24.5q-13 -22 -26.5 -49.5t-25.5 -56t-22 -56t-17 -51.5q-8 -28 -2.5 -38.5t17.5 -10.5 q21 0 51 17.5t62.5 44t63.5 58.5t54 61q13 14 18 4q4 -11 -9 -32q-17 -28 -43.5 -57.5t-56.5 -56.5t-59.5 -47.5t-50.5 -30.5q-20 -9 -31.5 -12.5t-19.5 -3.5h-1zM147 492q22 0 27.5 -13t5.5 -22q0 -14 -14 -27.5t-27 -13.5q-12 0 -23 12.5t-11 26.5q0 19 12 28t29 9h1z M265 490q12 0 23.5 -11.5t11.5 -23.5q0 -17 -16.5 -28t-33.5 -11q-8 0 -18.5 8.5t-10.5 22.5t11.5 28.5t31.5 14.5h1z" glyph-name="idieresis" horiz-adv-x="234" unicode="ï"/>
<glyph d="M182 630q22 0 43 -8.5t39.5 -22t33 -30t24.5 -32.5q2 -4 4.5 -4t7.5 2q21 11 32.5 17t27.5 15q8 6 16 9t13 3t10.5 -3t5.5 -11q0 -11 -9 -22t-17 -15q-14 -8 -30 -15t-30 -15q-6 -4 -3 -12q9 -27 13 -47.5t6 -38t2 -32v-29.5q0 -40 -11.5 -83.5t-28.5 -84.5 q-9 -21 -22 -41.5t-27.5 -38.5t-29 -33t-26.5 -25q-21 -17 -44 -29.5t-51 -12.5t-47 26t-19 60q0 17 7.5 47t24.5 62q18 39 45 69t55 50q10 7 22.5 14t25.5 13t25 10t20 4q13 0 20 -9q4 -4 7 -6t5 3q1 5 1 11v16q0 23 -4 50.5t-14 54.5q-2 5 -4.5 5.5t-9.5 -3.5 q-30 -16 -54.5 -30t-47.5 -31q-10 -9 -18 -5q-6 4 -4 17q1 8 4.5 15.5t8.5 13.5q6 7 18 15t26 15.5l28 15t24 12.5q7 3 3 11q-12 21 -31.5 39.5t-37.5 26.5q-15 8 -29 9.5t-26 -0.5q-14 -3 -14 7q0 8 13 19.5t27 11.5h1zM144 32q8 0 22.5 6.5t27.5 16.5q6 5 21.5 22t33.5 45 t36 67t29 88q3 13 -2 13q-7 0 -17 4q-14 8 -31 2q-20 -6 -45.5 -28.5t-48.5 -56.5q-11 -17 -20.5 -35.5t-17 -36.5t-11.5 -35t-4 -30q0 -16 6.5 -29t19.5 -13h1z" glyph-name="eth" horiz-adv-x="328" unicode="ð"/>
<glyph d="M182 367q6 0 12 -4.5t10 -11t6.5 -13.5t2.5 -12q0 -8 -9 -10q-8 -2 -13.5 -8.5t-12.5 -18.5q-5 -10 -11.5 -26.5t-13 -36t-12 -38.5t-8.5 -34q-2 -8 1.5 -9.5t8.5 5.5q12 17 32 39t41.5 43.5t40.5 39t30 25.5q22 17 30.5 22.5t15.5 8.5q12 5 19 18q5 6 9.5 10.5t9.5 4.5 q10 0 20 -13q8 -8 7 -17.5t-6 -21.5q-6 -11 -14.5 -23t-15.5 -27q-14 -30 -26.5 -66.5t-20.5 -67.5q-7 -28 -7 -47t4.5 -31t12.5 -17t18 -5q18 0 42.5 18t51.5 44t52.5 56.5t44.5 54.5q10 14 14 3q5 -11 -10 -32q-34 -54 -64.5 -90.5t-58 -59t-51.5 -32t-43 -9.5 q-17 0 -30 9.5t-21 28t-9.5 46t6.5 63.5q7 33 15.5 61t14.5 45q5 13 5.5 18t-1.5 7q-4 4 -22 -12q-34 -30 -61.5 -60.5t-49.5 -58.5t-37.5 -52t-24.5 -41q-5 -9 -13.5 -19.5t-16.5 -10.5q-9 0 -19 12q-4 5 -2.5 18.5t4.5 25.5q22 99 44 170.5t36 97.5q14 27 23.5 34t18.5 7 h1zM254 507q12 0 22 -8.5t20 -19.5q11 -11 19.5 -19t14.5 -8q11 0 17 15t8 25q2 5 5.5 9.5t10.5 4.5q13 0 16 -11t1 -22q-2 -23 -20 -44.5t-40 -23.5q-16 -1 -27.5 8t-25.5 24q-20 21 -28 21q-11 -1 -17.5 -16t-8.5 -26q-2 -10 -16 -10q-6 -1 -13 6.5t-5 24.5q1 9 7 21.5 t15.5 23t20.5 18t23 7.5h1z" glyph-name="ntilde" horiz-adv-x="424" unicode="ñ"/>
<glyph d="M52 55q0 27 9.5 58.5t19.5 54.5q6 11 15 26t18.5 30t18 27t12.5 17q5 8 8.5 14.5t3.5 15.5q1 11 4.5 17.5t9.5 11.5q8 9 25 9q8 0 12.5 3t9.5 8q10 15 29 15q15 0 20.5 -7.5t5.5 -17.5v-8t5 -7q18 -13 33.5 -37.5t15.5 -66.5q0 -11 -4 -26.5t-10.5 -33.5t-16.5 -36 t-22 -33q-41 -52 -87 -76t-81 -24q-9 0 -18.5 5.5t-17.5 14.5t-13 20.5t-5 24.5v1zM110 70q0 -15 7.5 -24t18.5 -9q14 0 30 7t33 24q12 12 26 31t25 40.5t18.5 43t7.5 39.5q0 11 -1.5 23t-5.5 21.5t-11.5 16t-20.5 6.5q-10 0 -19.5 -8.5t-23.5 -25.5q-12 -14 -26.5 -36 t-27.5 -47.5t-21.5 -52t-8.5 -48.5v-1zM194 532q15 0 24 -18q11 -23 20.5 -42t16.5 -31q8 -14 13.5 -24t7.5 -16q3 -9 -3 -12t-17 4q-17 13 -41.5 37.5t-42.5 49.5q-12 19 -3 36q4 7 11 11.5t13 4.5h1z" glyph-name="ograve" horiz-adv-x="308" unicode="ò"/>
<glyph d="M52 55q0 27 9.5 58.5t19.5 54.5q6 11 15 26t18.5 30t18 27t12.5 17q5 8 8.5 14.5t3.5 15.5q1 11 4.5 17.5t9.5 11.5q8 9 25 9q8 0 12.5 3t9.5 8q10 15 29 15q15 0 20.5 -7.5t5.5 -17.5v-8t5 -7q18 -13 33.5 -37.5t15.5 -66.5q0 -11 -4 -26.5t-10.5 -33.5t-16.5 -36 t-22 -33q-41 -52 -87 -76t-81 -24q-9 0 -18.5 5.5t-17.5 14.5t-13 20.5t-5 24.5v1zM110 70q0 -15 7.5 -24t18.5 -9q14 0 30 7t33 24q12 12 26 31t25 40.5t18.5 43t7.5 39.5q0 11 -1.5 23t-5.5 21.5t-11.5 16t-20.5 6.5q-10 0 -19.5 -8.5t-23.5 -25.5q-12 -14 -26.5 -36 t-27.5 -47.5t-21.5 -52t-8.5 -48.5v-1zM209 397q0 5 10 16q16 14 39 38t58 67q8 9 14.5 14t14.5 5q14 0 28 -14q11 -14 -6 -29q-58 -56 -93.5 -77t-45.5 -24q-8 -3 -13.5 -2.5t-5.5 5.5v1z" glyph-name="oacute" horiz-adv-x="308" unicode="ó"/>
<glyph d="M52 55q0 27 9.5 58.5t19.5 54.5q6 11 15 26t18.5 30t18 27t12.5 17q5 8 8.5 14.5t3.5 15.5q1 11 4.5 17.5t9.5 11.5q8 9 25 9q8 0 12.5 3t9.5 8q10 15 29 15q15 0 20.5 -7.5t5.5 -17.5v-8t5 -7q18 -13 33.5 -37.5t15.5 -66.5q0 -11 -4 -26.5t-10.5 -33.5t-16.5 -36 t-22 -33q-41 -52 -87 -76t-81 -24q-9 0 -18.5 5.5t-17.5 14.5t-13 20.5t-5 24.5v1zM110 70q0 -15 7.5 -24t18.5 -9q14 0 30 7t33 24q12 12 26 31t25 40.5t18.5 43t7.5 39.5q0 11 -1.5 23t-5.5 21.5t-11.5 16t-20.5 6.5q-10 0 -19.5 -8.5t-23.5 -25.5q-12 -14 -26.5 -36 t-27.5 -47.5t-21.5 -52t-8.5 -48.5v-1zM289 528q6 0 9.5 -6t5.5 -13q2 -9 6.5 -21.5t9.5 -25.5t10.5 -23.5t9.5 -15.5q6 -8 4.5 -15t-5.5 -12q-8 -5 -18 -5t-18 11q-3 4 -6.5 11.5t-7 16t-6 16l-3.5 10.5q-4 11 -13 -1q-15 -17 -28 -30.5t-21 -20.5q-20 -18 -37 -18 q-9 0 -14 7q-3 4 -1.5 10.5t9.5 13.5q21 19 46.5 44.5t44.5 54.5q8 12 22 12h1z" glyph-name="ocircumflex" horiz-adv-x="308" unicode="ô"/>
<glyph d="M52 55q0 27 9.5 58.5t19.5 54.5q6 11 15 26t18.5 30t18 27t12.5 17q5 8 8.5 14.5t3.5 15.5q1 11 4.5 17.5t9.5 11.5q8 9 25 9q8 0 12.5 3t9.5 8q10 15 29 15q15 0 20.5 -7.5t5.5 -17.5v-8t5 -7q18 -13 33.5 -37.5t15.5 -66.5q0 -11 -4 -26.5t-10.5 -33.5t-16.5 -36 t-22 -33q-41 -52 -87 -76t-81 -24q-9 0 -18.5 5.5t-17.5 14.5t-13 20.5t-5 24.5v1zM110 70q0 -15 7.5 -24t18.5 -9q14 0 30 7t33 24q12 12 26 31t25 40.5t18.5 43t7.5 39.5q0 11 -1.5 23t-5.5 21.5t-11.5 16t-20.5 6.5q-10 0 -19.5 -8.5t-23.5 -25.5q-12 -14 -26.5 -36 t-27.5 -47.5t-21.5 -52t-8.5 -48.5v-1zM228 502q12 0 22 -9t20 -20q11 -11 19.5 -19t14.5 -8q11 0 17 15.5t8 24.5q2 5 6 10t11 5q12 0 15.5 -11t1.5 -23q-3 -23 -21 -44.5t-40 -23.5q-15 -1 -26.5 8t-26.5 25q-20 21 -28 21q-11 -1 -17.5 -16.5t-8.5 -25.5t-16 -10 q-6 -1 -13 6t-5 24q1 9 7 21.5t15.5 23.5t20.5 18.5t23 7.5h1z" glyph-name="otilde" horiz-adv-x="308" unicode="õ"/>
<glyph d="M52 55q0 27 9.5 58.5t19.5 54.5q6 11 15 26t18.5 30t18 27t12.5 17q5 8 8.5 14.5t3.5 15.5q1 11 4.5 17.5t9.5 11.5q8 9 25 9q8 0 12.5 3t9.5 8q10 15 29 15q15 0 20.5 -7.5t5.5 -17.5v-8t5 -7q18 -13 33.5 -37.5t15.5 -66.5q0 -11 -4 -26.5t-10.5 -33.5t-16.5 -36 t-22 -33q-41 -52 -87 -76t-81 -24q-9 0 -18.5 5.5t-17.5 14.5t-13 20.5t-5 24.5v1zM110 70q0 -15 7.5 -24t18.5 -9q14 0 30 7t33 24q12 12 26 31t25 40.5t18.5 43t7.5 39.5q0 11 -1.5 23t-5.5 21.5t-11.5 16t-20.5 6.5q-10 0 -19.5 -8.5t-23.5 -25.5q-12 -14 -26.5 -36 t-27.5 -47.5t-21.5 -52t-8.5 -48.5v-1zM206 478q22 0 27.5 -13t5.5 -22q0 -14 -14 -27.5t-27 -13.5q-12 0 -23 12.5t-11 26.5q0 18 12 27.5t29 9.5h1zM323 476q12 0 23.5 -11.5t11.5 -23.5q0 -17 -16.5 -28t-33.5 -11q-8 0 -18.5 8.5t-10.5 22.5t11.5 28.5t31.5 14.5h1z" glyph-name="odieresis" horiz-adv-x="308" unicode="ö"/>
<glyph d="M366 359q6 0 11.5 -4.5t10 -11t7 -13.5t2.5 -12q0 -19 -9.5 -31.5t-24.5 -12.5q-7 0 -15.5 3.5t-15.5 9.5t-11.5 13.5t-4.5 15.5q0 17 16 30t33 13h1zM243 217q29 0 61.5 -1t62.5 -2t55 -2t39 -1q17 -1 29.5 -0.5t26.5 2.5q5 1 10.5 1.5t10.5 0.5q8 0 16.5 -7.5 t8.5 -18.5q0 -15 -17 -20.5t-47 -5.5q-53 0 -107 2t-111 3q-36 1 -55.5 -0.5t-30.5 -5.5q-12 -4 -20 2q-8 5 -10.5 13.5t-0.5 16.5q2 11 20.5 17t57.5 6h1zM357 100q7 0 14.5 -5.5t13.5 -13.5t10 -17.5t4 -17.5q0 -7 -5 -13t-12 -10.5t-14.5 -7t-13.5 -2.5q-14 0 -25 15 t-11 32q0 15 11.5 27.5t26.5 12.5h1z" glyph-name="divide" horiz-adv-x="552" unicode="÷"/>
<glyph d="M257 353q11 0 19 -4.5t15 -9.5q4 -3 9 4q34 52 56 78.5t39 38.5q11 7 17 4t8 -8t0.5 -11t-9.5 -14q-6 -8 -27.5 -33t-45.5 -58q-5 -7 -1 -10q14 -12 18.5 -35t3.5 -40q-2 -41 -16.5 -76.5t-34.5 -65t-41 -50.5t-34 -31q-26 -21 -51.5 -32t-41.5 -11q-8 0 -18 5 q-4 2 -6 2.5t-6 -6.5q-15 -23 -26.5 -42t-21.5 -35.5t-18.5 -32.5t-18.5 -32q-7 -12 -14 -13t-12 3q-13 8 -7 25q1 4 6.5 13t16 26t27.5 44t43 66q8 9 3 15q-16 21 -18.5 42.5t-2.5 34.5q1 36 17 71.5t38 66t44.5 53.5t35.5 33q20 15 31.5 20t22.5 5h1zM110 96q0 -7 1 -14.5 t3 -12.5q1 -4 3.5 -4t4.5 5q44 67 81.5 125t66.5 101q4 7 -3 5q-5 -3 -10 -3h-13q-14 0 -30.5 -16.5t-33.5 -39.5q-8 -10 -20 -27t-23 -37.5t-19 -41.5t-8 -39v-1zM148 33q10 0 25.5 6.5t30.5 21.5q13 13 31.5 37t35.5 51.5t29.5 56t13.5 51.5q1 8 0.5 17t-2.5 13 q-3 10 -10 2q-13 -18 -33 -48t-42 -64.5t-44 -69.5t-39 -62q-8 -12 3 -12h1z" glyph-name="oslash" horiz-adv-x="330" unicode="ø"/>
<glyph d="M357 48q14 0 39.5 17t54.5 43t59 55.5t53 55.5q11 13 16 1q5 -14 -12 -35q-57 -74 -107.5 -115.5t-76.5 -56.5q-23 -14 -38.5 -18t-24.5 -4q-17 0 -27.5 22.5t0.5 73.5q4 25 10.5 48.5t10.5 36.5q2 8 -0.5 9.5t-8.5 -6.5q-20 -27 -44 -52.5t-47.5 -47.5t-45.5 -39 t-39 -27q-14 -8 -23.5 -11.5t-19.5 -3.5q-11 0 -20.5 16.5t-9.5 39.5q0 12 5.5 38.5t26.5 81.5q9 26 20 51.5t21.5 47.5t19.5 38t14 24q9 17 22 17q11 0 21 -8.5t10 -20.5q0 -5 -4 -14t-9 -19t-10.5 -18.5t-8.5 -12.5q-6 -8 -11.5 -14t-10.5 -15q-6 -12 -14.5 -34t-21.5 -62 q-13 -35 -9.5 -50t14.5 -15q20 0 46.5 25.5t72.5 76.5q18 21 35.5 44.5t32 44.5t25.5 38.5t18 28.5q12 20 19 26t13 6q11 0 20 -12.5t4 -25.5q-2 -8 -5.5 -14.5t-8.5 -17.5q-22 -45 -36 -93.5t-22 -84.5q-8 -35 -3.5 -47t14.5 -12h1zM246 534q15 0 24 -19q11 -22 20 -41.5 t17 -30.5q8 -14 13 -24.5t7 -15.5q3 -10 -3 -12.5t-16 4.5q-17 13 -41.5 37t-42.5 49q-14 21 -3 36q4 8 11 12.5t13 4.5h1z" glyph-name="ugrave" horiz-adv-x="442" unicode="ù"/>
<glyph d="M357 48q14 0 39.5 17t54.5 43t59 55.5t53 55.5q11 13 16 1q5 -14 -12 -35q-57 -74 -107.5 -115.5t-76.5 -56.5q-23 -14 -38.5 -18t-24.5 -4q-17 0 -27.5 22.5t0.5 73.5q4 25 10.5 48.5t10.5 36.5q2 8 -0.5 9.5t-8.5 -6.5q-20 -27 -44 -52.5t-47.5 -47.5t-45.5 -39 t-39 -27q-14 -8 -23.5 -11.5t-19.5 -3.5q-11 0 -20.5 16.5t-9.5 39.5q0 12 5.5 38.5t26.5 81.5q9 26 20 51.5t21.5 47.5t19.5 38t14 24q9 17 22 17q11 0 21 -8.5t10 -20.5q0 -5 -4 -14t-9 -19t-10.5 -18.5t-8.5 -12.5q-6 -8 -11.5 -14t-10.5 -15q-6 -12 -14.5 -34t-21.5 -62 q-13 -35 -9.5 -50t14.5 -15q20 0 46.5 25.5t72.5 76.5q18 21 35.5 44.5t32 44.5t25.5 38.5t18 28.5q12 20 19 26t13 6q11 0 20 -12.5t4 -25.5q-2 -8 -5.5 -14.5t-8.5 -17.5q-22 -45 -36 -93.5t-22 -84.5q-8 -35 -3.5 -47t14.5 -12h1zM254 393q0 6 11 16q15 14 38 38t58 67 q8 9 14.5 14t14.5 5q16 0 28 -14q10 -14 -5 -29q-58 -56 -94 -77t-46 -24q-8 -3 -13.5 -2.5t-5.5 5.5v1z" glyph-name="uacute" horiz-adv-x="442" unicode="ú"/>
<glyph d="M357 48q14 0 39.5 17t54.5 43t59 55.5t53 55.5q11 13 16 1q5 -14 -12 -35q-57 -74 -107.5 -115.5t-76.5 -56.5q-23 -14 -38.5 -18t-24.5 -4q-17 0 -27.5 22.5t0.5 73.5q4 25 10.5 48.5t10.5 36.5q2 8 -0.5 9.5t-8.5 -6.5q-20 -27 -44 -52.5t-47.5 -47.5t-45.5 -39 t-39 -27q-14 -8 -23.5 -11.5t-19.5 -3.5q-11 0 -20.5 16.5t-9.5 39.5q0 12 5.5 38.5t26.5 81.5q9 26 20 51.5t21.5 47.5t19.5 38t14 24q9 17 22 17q11 0 21 -8.5t10 -20.5q0 -5 -4 -14t-9 -19t-10.5 -18.5t-8.5 -12.5q-6 -8 -11.5 -14t-10.5 -15q-6 -12 -14.5 -34t-21.5 -62 q-13 -35 -9.5 -50t14.5 -15q20 0 46.5 25.5t72.5 76.5q18 21 35.5 44.5t32 44.5t25.5 38.5t18 28.5q12 20 19 26t13 6q11 0 20 -12.5t4 -25.5q-2 -8 -5.5 -14.5t-8.5 -17.5q-22 -45 -36 -93.5t-22 -84.5q-8 -35 -3.5 -47t14.5 -12h1zM334 541q6 0 9.5 -5.5t5.5 -13.5 q2 -9 6.5 -21.5t9.5 -25t10 -23.5t9 -15q7 -9 5.5 -16t-5.5 -11q-8 -5 -18 -5q-9 0 -18 10q-3 4 -6.5 12t-7 16.5t-6 16l-3.5 10.5q-4 10 -13 -1q-31 -37 -49 -52q-9 -8 -19 -12.5t-18 -4.5t-14 6q-8 11 8 24q20 19 46 44.5t45 54.5q8 12 22 12h1z" glyph-name="ucircumflex" horiz-adv-x="442" unicode="û"/>
<glyph d="M357 48q14 0 39.5 17t54.5 43t59 55.5t53 55.5q11 13 16 1q5 -14 -12 -35q-57 -74 -107.5 -115.5t-76.5 -56.5q-23 -14 -38.5 -18t-24.5 -4q-17 0 -27.5 22.5t0.5 73.5q4 25 10.5 48.5t10.5 36.5q2 8 -0.5 9.5t-8.5 -6.5q-20 -27 -44 -52.5t-47.5 -47.5t-45.5 -39 t-39 -27q-14 -8 -23.5 -11.5t-19.5 -3.5q-11 0 -20.5 16.5t-9.5 39.5q0 12 5.5 38.5t26.5 81.5q9 26 20 51.5t21.5 47.5t19.5 38t14 24q9 17 22 17q11 0 21 -8.5t10 -20.5q0 -5 -4 -14t-9 -19t-10.5 -18.5t-8.5 -12.5q-6 -8 -11.5 -14t-10.5 -15q-6 -12 -14.5 -34t-21.5 -62 q-13 -35 -9.5 -50t14.5 -15q20 0 46.5 25.5t72.5 76.5q18 21 35.5 44.5t32 44.5t25.5 38.5t18 28.5q12 20 19 26t13 6q11 0 20 -12.5t4 -25.5q-2 -8 -5.5 -14.5t-8.5 -17.5q-22 -45 -36 -93.5t-22 -84.5q-8 -35 -3.5 -47t14.5 -12h1zM250 490q22 0 27.5 -13t5.5 -22 q0 -14 -14 -27.5t-27 -13.5q-12 0 -23 12.5t-11 26.5q0 19 12 28t29 9h1zM367 488q12 0 23.5 -11.5t11.5 -23.5q0 -17 -16.5 -28t-33.5 -11q-8 0 -18.5 8.5t-10.5 22.5t11.5 28.5t31.5 14.5h1z" glyph-name="udieresis" horiz-adv-x="442" unicode="ü"/>
<glyph d="M83 239q1 16 0 23t-2 12q-2 7 -1.5 15.5t4.5 16.5l7 14t9 15.5t11 13t12 5.5q7 0 11 -9t6 -22t2 -27t-1 -24q-1 -13 -3 -34t-4.5 -44t-4.5 -44.5t-3 -33.5q-2 -28 4 -40.5t14 -12.5q16 0 45 35t69 108q16 28 18.5 40t1.5 18q-1 8 -0.5 15.5t6.5 17.5q7 11 11.5 20.5 t12.5 23.5q5 11 10.5 14.5t11.5 3.5q8 0 16.5 -12.5t8.5 -25.5q0 -8 -5 -26t-14 -38q-6 -14 -19.5 -40t-31 -55.5t-36.5 -58.5t-36 -50q-83 -101 -133.5 -167.5t-65.5 -88.5q-7 -12 -2 -13q17 -5 17 -16q0 -8 -9 -16.5t-21 -16t-23.5 -14t-17.5 -9.5q-13 -5 -19 -11t-11 -14 q-11 -17 -20.5 -27t-22.5 -10q-11 0 -17 7t-2 19q3 13 9 24t19 28q15 20 25 27t16 9q11 4 16 14q2 4 8 14t15.5 24t21 30t23.5 31q8 10 22.5 29t31 40.5t31 40.5t22.5 29q6 6 -2 4q-13 -4 -22 -4q-14 0 -20 20.5t-5 68.5zM189 375q0 6 10 17q16 14 39 38t58 67q8 9 14.5 14 t14.5 5q15 0 27 -14q11 -14 -5 -29q-58 -56 -93.5 -77.5t-45.5 -24.5q-8 -2 -13.5 -2t-5.5 5v1z" glyph-name="yacute" horiz-adv-x="286" unicode="ý"/>
<glyph d="M315 347q9 0 16.5 -8.5t12.5 -20.5t7.5 -24t2.5 -19q-1 -29 -9.5 -55.5t-28.5 -58.5q-10 -18 7 -12q36 12 71 28t64 32t48.5 28.5t24.5 16.5q11 10 12 1t-7 -18q-28 -29 -67.5 -53.5t-78.5 -43.5t-71 -32t-44 -19q-32 -16 -58 -32.5t-46 -30t-33.5 -23t-20.5 -12.5 q-20 -9 -29 0q-7 5 -12 -8q-12 -32 -21.5 -56.5t-17.5 -47t-15.5 -45l-16.5 -49.5q-10 -28 13 -28q19 0 38 6t31 13q9 5 11.5 0t-4.5 -15t-19 -21.5t-32 -22.5q-9 -6 -21 -10.5t-23.5 -8.5t-21.5 -6t-14 -2q-12 0 -22 20q-6 17 0 33q21 57 43.5 119.5t42.5 119.5q9 28 27 87 t42 134t51 158.5t53 160.5q3 10 1.5 11.5t-9.5 -1.5q-12 -5 -25.5 -14t-17.5 -12q-11 -8 -26 7q-7 7 -6 15.5t6 16.5q4 6 10 10.5t14 5.5q3 0 12.5 3t21 6.5t21.5 7.5t14 6q5 2 8 6t6 12q4 11 9.5 15t10.5 4q8 0 17.5 -5t14.5 -16q8 -19 -5 -31l-15.5 -15.5t-6.5 -11.5 q-11 -29 -22.5 -64.5t-24 -73.5t-25.5 -77.5t-25 -77.5q-3 -10 -1.5 -12.5t6.5 2.5q8 9 21.5 22t29 26t31.5 25t28 19q27 16 41 16h1zM283 289q-8 0 -24.5 -10.5t-36.5 -30.5q-23 -23 -40 -42t-30.5 -40.5t-25.5 -47.5t-25 -62q-4 -12 -1.5 -16t10.5 3q5 4 14 10t20 12.5 t22.5 13.5t21.5 13q25 15 46 34t36 40t23.5 42.5t8.5 40.5q0 14 -4 27t-14 13h-1z" glyph-name="thorn" horiz-adv-x="385" unicode="þ"/>
</font>
</defs>
</svg>
