<svg xmlns="http://www.w3.org/2000/svg" width="67.832" height="67.866" viewBox="0 0 67.832 67.866"><defs><style>.a{fill:#5a72f3;}</style></defs><g transform="translate(-25.108 -24.989)"><path class="a" d="M85.332,285.035l-.348.188a4.8,4.8,0,0,0-5.7-1.428l-.02.01-.823.443a6.247,6.247,0,0,0-7.154-.646l-4.429,2.409H60.96a8.514,8.514,0,0,1-3.685-.844l-.811-.392a13.909,13.909,0,0,0-14.476,1.414c-.019.015-.038.029-.056.046l-1.958,1.743a6.79,6.79,0,0,1-2.562,1.428l-1.112-3.65a.881.881,0,0,0-.843-.624H25.989a.881.881,0,0,0-.875.988l3.156,25.876a.881.881,0,0,0,.875.775h14.2a.881.881,0,0,0,.843-1.138l-1.866-6.121,5.81-3.672a3.5,3.5,0,0,1,2.551-.33l.055.012L62.558,303.7a15.294,15.294,0,0,0,9.45-1.334.872.872,0,0,0,.108-.063l20.442-14.036a.881.881,0,0,0,.256-1.181A5.611,5.611,0,0,0,85.332,285.035Zm-5.246.327a3.01,3.01,0,0,1,3.291.728l-7.752,4.182-.455.24a6.72,6.72,0,0,0-1.062-1.929Zm-7.949-.218.021-.012a4.482,4.482,0,0,1,4.559.043L72.775,287.3a6.7,6.7,0,0,0-2.517-1.133ZM29.925,311.006l-2.94-24.114H34.8l7.352,24.114Zm41.244-10.2a13.519,13.519,0,0,1-8.3,1.153l-11.79-2.171a5.255,5.255,0,0,0-3.832.519l-.041.024-5.422,3.428-3.863-12.669a8.558,8.558,0,0,0,3.219-1.8l1.93-1.719A12.153,12.153,0,0,1,55.7,286.358l.811.392a10.287,10.287,0,0,0,4.453,1.02h7.862a4.972,4.972,0,0,1,4.877,4.038l-5.7-.258a34.126,34.126,0,0,0-6.2.287.881.881,0,1,0,.242,1.746,32.312,32.312,0,0,1,5.88-.272l6.706.3h.04a.881.881,0,0,0,.881-.881c0-.143-.006-.284-.015-.425l.92-.485,9.717-5.24a3.851,3.851,0,0,1,4.634.743Z" transform="translate(0 -219.914)"/><path class="a" d="M76.974,434.073a2.775,2.775,0,1,0,2.775-2.775A2.775,2.775,0,0,0,76.974,434.073Zm2.775-1.012a1.012,1.012,0,1,1-1.012,1.012,1.012,1.012,0,0,1,1.012-1.012Z" transform="translate(-44.247 -346.626)"/><path class="a" d="M223.914,34.583v-2.9a6.69,6.69,0,1,0-13.38,0v2.9a6.69,6.69,0,1,0,13.38,0Zm-11.617,0v-2.9a4.927,4.927,0,1,1,9.855,0v2.9a4.927,4.927,0,1,1-9.855,0Z" transform="translate(-158.189)"/><path class="a" d="M86.55,156.414h21.567a.881.881,0,0,0,.881-.881V153.51h14.764a.881.881,0,0,0,.881-.881v-5.721a6.606,6.606,0,0,0-6.185-6.589,1.029,1.029,0,0,0-.908.5,4.045,4.045,0,0,1-6.381-.156.881.881,0,0,0-.731-.357,6.534,6.534,0,0,0-3.242.946,7.409,7.409,0,0,0-5.171-2.565,1.072,1.072,0,0,0-.909.529,4.746,4.746,0,0,1-7.488-.183.879.879,0,0,0-.731-.357,7.376,7.376,0,0,0-5.118,2.233c-.111.114-.217.232-.32.352a6.553,6.553,0,0,0-3-.943,1.031,1.031,0,0,0-.908.5,4.044,4.044,0,0,1-6.381-.156.884.884,0,0,0-.731-.357,6.6,6.6,0,0,0-6.435,6.6v5.72a.881.881,0,0,0,.881.881H85.669v2.023a.881.881,0,0,0,.881.881ZM110.062,142.1a5.808,5.808,0,0,0,8.7.023,4.845,4.845,0,0,1,4.123,4.787v4.839H109v-5.654a7.374,7.374,0,0,0-.814-3.375A4.764,4.764,0,0,1,110.062,142.1Zm-17.544-1.631a6.509,6.509,0,0,0,9.832.023,5.661,5.661,0,0,1,4.886,5.6v8.558h-19.8v-8.558A5.694,5.694,0,0,1,92.518,140.468Zm-20.756,11.28v-4.839a4.874,4.874,0,0,1,4.3-4.809,5.808,5.808,0,0,0,8.695.022,4.808,4.808,0,0,1,1.72.607,7.384,7.384,0,0,0-.806,3.365v5.654Z" transform="translate(-38.298 -96.989)"/><path class="a" d="M343.061,58.768V56.226a5.966,5.966,0,0,0-11.931,0v2.542a5.966,5.966,0,0,0,11.931,0Zm-10.168,0V56.226a4.2,4.2,0,0,1,8.406,0v2.542a4.2,4.2,0,0,1-8.406,0Z" transform="translate(-261.07 -21.559)"/><path class="a" d="M111.577,58.768V56.226a5.966,5.966,0,1,0-11.931,0v2.542a5.966,5.966,0,1,0,11.931,0Zm-10.168,0V56.226a4.2,4.2,0,0,1,8.406,0v2.542a4.2,4.2,0,0,1-8.406,0Z" transform="translate(-63.589 -21.559)"/></g></svg>