<svg xmlns="http://www.w3.org/2000/svg" width="34.343" height="41.211" viewBox="0 0 34.343 41.211"><defs><style>.a{fill:#3b3b3b;}</style></defs><g transform="translate(13.737 0)"><path class="a" d="M16.01,7.178a.859.859,0,0,1-.859-.859V3.434a1.717,1.717,0,1,0-3.434,0V6.319a.859.859,0,1,1-1.717,0V3.434a3.434,3.434,0,0,1,6.869,0V6.319A.858.858,0,0,1,16.01,7.178Z" transform="translate(-10 0)"/></g><g transform="translate(11.161 34.343)"><path class="a" d="M14.51,26.869a6.017,6.017,0,0,1-6.01-6.01.859.859,0,1,1,1.717,0,4.293,4.293,0,1,0,8.586,0,.859.859,0,0,1,1.717,0A6.017,6.017,0,0,1,14.51,26.869Z" transform="translate(-8.5 -20)"/></g><g transform="translate(0 5.151)"><path class="a" d="M33.767,33.908H4.576A2.576,2.576,0,0,1,2.9,29.375a11.938,11.938,0,0,0,4.25-9.139V15.02a12.02,12.02,0,1,1,24.04,0v5.217a11.925,11.925,0,0,0,4.236,9.127,2.576,2.576,0,0,1-1.66,4.545ZM19.171,4.717a10.313,10.313,0,0,0-10.3,10.3v5.217A13.642,13.642,0,0,1,4.024,30.675a.858.858,0,0,0,.551,1.516H33.767a.859.859,0,0,0,.558-1.511,13.652,13.652,0,0,1-4.851-10.444V15.02a10.313,10.313,0,0,0-10.3-10.3Z" transform="translate(-2 -3)"/></g></svg>