<svg xmlns="http://www.w3.org/2000/svg" width="53.333" height="41.869" viewBox="0 0 53.333 41.869"><defs><style>.a{fill:#fff;}</style></defs><g transform="translate(0 -55.032)"><g transform="translate(0 55.032)"><g transform="translate(0 0)"><path class="a" d="M44.436,68.9A18.331,18.331,0,0,0,8.373,72.037,10,10,0,0,0,10.04,91.9h8.332V88.569H10.04a6.666,6.666,0,1,1,0-13.332,1.666,1.666,0,0,0,1.666-1.666A15,15,0,0,1,41.42,70.654a1.667,1.667,0,0,0,1.417,1.333A8.332,8.332,0,0,1,41.7,88.569H35.037V91.9H41.7a11.665,11.665,0,0,0,2.733-23Z" transform="translate(0 -55.032)"/><path class="a" d="M187.7,249.5l-6.666,6.666,2.35,2.35,3.833-3.816v15.982h3.333V254.7l3.816,3.816,2.35-2.35-6.666-6.666A1.666,1.666,0,0,0,187.7,249.5Z" transform="translate(-162.179 -228.807)"/></g></g></g></svg>