<svg xmlns="http://www.w3.org/2000/svg" width="71.772" height="71.7" viewBox="0 0 71.772 71.7"><defs><style>.a{fill:#0da746;}</style></defs><g transform="translate(0 -0.243)"><g transform="translate(0 0.243)"><g transform="translate(0 0)"><path class="a" d="M71.272,25.99,63.253,5.142A7.648,7.648,0,0,0,53.366.757l-.171.068L13.124,17.436a7.612,7.612,0,0,0-4.229,9.741L10,30.117H7.469A7.477,7.477,0,0,0,0,37.586V64.474a7.477,7.477,0,0,0,7.469,7.469H58.257a7.477,7.477,0,0,0,7.469-7.469V37.586a7.341,7.341,0,0,0-.108-1.209l1.387-.562A7.676,7.676,0,0,0,71.272,25.99Zm-63.8,6.518H58.257a5.072,5.072,0,0,1,5.049,4.78H2.42A5.071,5.071,0,0,1,7.469,32.507Zm12.011-7.2,7.987-3.995,1.642,4.107-7.987,3.994ZM63.335,64.474a5.085,5.085,0,0,1-5.079,5.079H7.469A5.085,5.085,0,0,1,2.39,64.474V49.237H63.335Zm0-17.626H2.39v-7.17H63.335Zm2.774-13.241-1.249.505a7.472,7.472,0,0,0-6.6-3.995H25.062l6.1-3.051a1.2,1.2,0,0,0,.576-1.513L29.2,19.22a1.2,1.2,0,0,0-1.553-.666q-.046.019-.091.041L17.427,23.664a1.2,1.2,0,0,0-.575,1.513l1.977,4.94H12.548l-1.415-3.774a5.232,5.232,0,0,1,2.906-6.692L54.109,3.041A5.251,5.251,0,0,1,60.971,5.88q.026.063.05.126l8.019,20.848A5.276,5.276,0,0,1,66.109,33.607Z" transform="translate(0 -0.243)"/><path class="a" d="M267.449,365.6a7.17,7.17,0,0,0,7.2,0,7.17,7.17,0,1,0,0-12.4,7.17,7.17,0,1,0-7.2,12.4Zm9.2-10.688a4.78,4.78,0,1,1,0,8.977A7.141,7.141,0,0,0,276.65,354.912Zm-2,1.36a4.693,4.693,0,0,1,0,6.257A4.693,4.693,0,0,1,274.652,356.272Zm-3.585-1.652a4.729,4.729,0,0,1,1.587.292,7.141,7.141,0,0,0,0,8.977,4.772,4.772,0,1,1-1.587-9.268Z" transform="translate(-224.462 -299.651)"/><rect class="a" width="2.39" height="12.476" transform="translate(51.379 26.846) rotate(-113.966)"/><rect class="a" width="18.135" height="2.389" transform="matrix(0.908, -0.419, 0.419, 0.908, 42.798, 22.136)"/></g></g></g></svg>