<svg xmlns="http://www.w3.org/2000/svg" width="33.3" height="33.3" viewBox="0 0 33.3 33.3"><defs><style>.a{fill:#3b3b3b;}</style></defs><g transform="translate(0 0)"><path class="a" d="M12.834,11.1H2.428A2.431,2.431,0,0,1,0,8.672V2.428A2.431,2.431,0,0,1,2.428,0H12.834a2.431,2.431,0,0,1,2.428,2.428V8.672A2.431,2.431,0,0,1,12.834,11.1ZM2.428,2.081a.347.347,0,0,0-.347.347V8.672a.347.347,0,0,0,.347.347H12.834a.347.347,0,0,0,.347-.347V2.428a.347.347,0,0,0-.347-.347Zm0,0"/><path class="a" d="M12.834,232.757H2.428A2.431,2.431,0,0,1,0,230.329V215.76a2.431,2.431,0,0,1,2.428-2.428H12.834a2.431,2.431,0,0,1,2.428,2.428v14.569A2.431,2.431,0,0,1,12.834,232.757ZM2.428,215.413a.347.347,0,0,0-.347.347v14.569a.347.347,0,0,0,.347.347H12.834a.347.347,0,0,0,.347-.347V215.76a.347.347,0,0,0-.347-.347Zm0,0" transform="translate(0 -199.457)"/><path class="a" d="M290.167,352.432H279.76A2.431,2.431,0,0,1,277.332,350V343.76a2.431,2.431,0,0,1,2.428-2.428h10.406a2.431,2.431,0,0,1,2.428,2.428V350A2.431,2.431,0,0,1,290.167,352.432Zm-10.406-9.019a.347.347,0,0,0-.347.347V350a.347.347,0,0,0,.347.347h10.406a.347.347,0,0,0,.347-.347V343.76a.347.347,0,0,0-.347-.347Zm0,0" transform="translate(-259.295 -319.132)"/><path class="a" d="M290.167,19.425H279.76A2.431,2.431,0,0,1,277.332,17V2.428A2.431,2.431,0,0,1,279.76,0h10.406a2.431,2.431,0,0,1,2.428,2.428V17A2.431,2.431,0,0,1,290.167,19.425ZM279.76,2.081a.347.347,0,0,0-.347.347V17a.347.347,0,0,0,.347.347h10.406a.347.347,0,0,0,.347-.347V2.428a.347.347,0,0,0-.347-.347Zm0,0" transform="translate(-259.295)"/></g></svg>