<svg xmlns="http://www.w3.org/2000/svg" width="17.99" height="10.509" viewBox="0 0 17.99 10.509"><defs><style>.a{fill:#3b3b3b;}</style></defs><g transform="translate(0 -127.244)"><g transform="translate(0 127.244)"><g transform="translate(0 0)"><path class="a" d="M17.769,127.466a.75.75,0,0,0-1.065,0L9,135.925l-7.71-8.459a.75.75,0,0,0-1.065,0,.759.759,0,0,0,0,1.07l8.2,9a.742.742,0,0,0,.57.214.741.741,0,0,0,.57-.214l8.205-9A.758.758,0,0,0,17.769,127.466Z" transform="translate(0 -127.244)"/></g></g></g></svg>