<svg xmlns="http://www.w3.org/2000/svg" width="41" height="36.218" viewBox="0 0 41 36.218"><defs><style>.a{fill:#409e09;}</style></defs><g transform="translate(-0.001 -20.566)"><path class="a" d="M39.21,20.844c-1.85-1-3.914.925-5.123,2.064-2.775,2.7-5.123,5.835-7.756,8.681-2.918,3.131-5.622,6.262-8.61,9.322a25.673,25.673,0,0,0-4.7,5.693c-2.562-2.491-4.768-5.195-7.614-7.4C3.346,37.637-.069,36.5,0,40.27c.142,4.91,4.483,10.176,7.685,13.52,1.352,1.423,3.131,2.918,5.195,2.989,2.491.142,5.052-2.846,6.547-4.483,2.633-2.846,4.768-6.049,7.187-8.966,3.131-3.843,6.333-7.614,9.393-11.528C37.929,29.383,43.978,23.405,39.21,20.844ZM3.133,39.985a.539.539,0,0,0-.285.071,3.463,3.463,0,0,1-.783-.285h0Q2.385,39.558,3.133,39.985Z"/></g></svg>