<svg xmlns="http://www.w3.org/2000/svg" width="29.379" height="29.377" viewBox="0 0 29.379 29.377"><defs><style>.a{fill:#838383;}</style></defs><path class="a" d="M26,1.153a4.046,4.046,0,0,0-5.717,0L18.857,2.592,3.624,17.817l-.032.033c-.008.008-.008.016-.016.016-.016.024-.04.048-.056.073,0,.008-.008.008-.008.016-.016.024-.024.04-.04.065-.008.008-.008.016-.016.024-.008.024-.016.04-.025.065,0,.008-.008.008-.008.016L.042,28.288a.8.8,0,0,0,.194.825.813.813,0,0,0,.574.235.954.954,0,0,0,.259-.04l10.155-3.388c.008,0,.008,0,.016-.008a.293.293,0,0,0,.073-.033.029.029,0,0,0,.016-.008c.024-.016.056-.033.081-.049s.049-.04.073-.056c.008-.008.016-.008.016-.016s.025-.016.033-.032L28.2,9.053a4.046,4.046,0,0,0,0-5.716ZM10.965,24.019,5.338,18.391,19.423,4.307,25.05,9.934Zm-6.42-4.131L9.462,24.8,2.079,27.261ZM27.056,7.921l-.857.865L20.571,3.158l.865-.865a2.425,2.425,0,0,1,3.428,0l2.2,2.2a2.433,2.433,0,0,1-.008,3.428Zm0,0" transform="translate(0.001 0.029)"/></svg>