<svg xmlns="http://www.w3.org/2000/svg" width="37.146" height="37.15" viewBox="0 0 37.146 37.15"><defs><style>.a{fill:#3b3b3b;}</style></defs><path class="a" d="M36.649,16.158l0,0L21.491,1a3.42,3.42,0,0,0-4.837,0L1.508,16.147l-.015.016A3.419,3.419,0,0,0,3.769,21.99c.035,0,.07.005.106.005h.6V33.147a4.007,4.007,0,0,0,4,4H14.41A1.088,1.088,0,0,0,15.5,36.061V27.318a1.828,1.828,0,0,1,1.826-1.826h3.5a1.828,1.828,0,0,1,1.826,1.826v8.743a1.088,1.088,0,0,0,1.088,1.088h5.929a4.007,4.007,0,0,0,4-4V21.995h.56a3.421,3.421,0,0,0,2.421-5.837Zm-1.541,3.3a1.236,1.236,0,0,1-.879.364H32.58a1.088,1.088,0,0,0-1.088,1.088v12.24a1.828,1.828,0,0,1-1.826,1.826h-4.84V27.318a4.007,4.007,0,0,0-4-4h-3.5a4.008,4.008,0,0,0-4,4v7.655H8.481a1.828,1.828,0,0,1-1.826-1.826V20.907a1.088,1.088,0,0,0-1.088-1.088H3.946l-.051,0a1.242,1.242,0,0,1-.856-2.121h0L18.194,2.54a1.243,1.243,0,0,1,1.758,0L35.1,17.69l.007.007a1.246,1.246,0,0,1,0,1.756Zm0,0" transform="translate(-0.5 0.001)"/></svg>