<svg xmlns="http://www.w3.org/2000/svg" width="24.319" height="29.671" viewBox="0 0 24.319 29.671"><defs><style>.a{fill:#d6d6d6;}</style></defs><g transform="translate(8.247)"><path class="a" d="M8.036,16.072A8.036,8.036,0,1,0,0,8.036,8.045,8.045,0,0,0,8.036,16.072Zm0-14.835a6.8,6.8,0,1,1-6.8,6.8A6.808,6.808,0,0,1,8.036,1.236Z"/></g><g transform="translate(0 12.663)"><path class="a" d="M14.162,27.251A.618.618,0,0,0,14.6,26.2l-2.579-2.579a1.856,1.856,0,0,1,0-2.623l9.7-9.7a.618.618,0,0,0-.874-.874l-9.7,9.7a3.092,3.092,0,0,0,0,4.372l2.579,2.579a.616.616,0,0,0,.436.18Z" transform="translate(-10.242 -10.243)"/></g><g transform="translate(3.921 19.163)"><path class="a" d="M16.944,21.063a.618.618,0,0,0,.438-1.055l-4.327-4.327a.618.618,0,0,0-.874.874l4.327,4.327A.616.616,0,0,0,16.944,21.063Z" transform="translate(-12 -15.501)"/></g></svg>