<svg xmlns="http://www.w3.org/2000/svg" width="765" height="190" viewBox="0 0 765 190">
  <g id="Group_387" data-name="Group 387" transform="translate(-91 -80)">
    <g id="Group_323" data-name="Group 323" transform="translate(-630 -418)">
      <g id="Group_321" data-name="Group 321" transform="translate(721 511)">
        <path id="Path_91" data-name="Path 91" d="M247.847,566.284l61.437-61.437a81.445,81.445,0,0,0,1.57-9.425l-72.432,72.432A81.56,81.56,0,0,0,247.847,566.284Z" transform="translate(-147.919 -404.918)" fill="none"/>
        <path id="Path_92" data-name="Path 92" d="M178.7,354q-1.074,0-2.141.028L97.028,433.563Q97,434.63,97,435.7c0,1.866.068,3.716.191,5.55l87.063-87.063C182.42,354.068,180.57,354,178.7,354Z" transform="translate(-97 -354)" fill="none"/>
        <path id="Path_93" data-name="Path 93" d="M190.721,355.277,98.277,447.721q.477,3.364,1.218,6.636L197.357,356.5Q194.087,355.752,190.721,355.277Z" transform="translate(-97.46 -354.46)" fill="none"/>
        <path id="Path_94" data-name="Path 94" d="M137.7,369.565,112.565,394.7a81.37,81.37,0,0,0-7.724,15.578l48.435-48.435A81.369,81.369,0,0,0,137.7,369.565Z" transform="translate(-99.823 -356.823)" fill="none"/>
        <path id="Path_95" data-name="Path 95" d="M284.188,435.413,178.413,541.188q2.868,1.115,5.838,2.017L286.205,441.251Q285.3,438.283,284.188,435.413Z" transform="translate(-126.313 -383.313)" fill="none"/>
        <path id="Path_96" data-name="Path 96" d="M282.913,566.857l26.944-26.944a81.371,81.371,0,0,0,7.263-15.118L267.8,574.119A81.371,81.371,0,0,0,282.913,566.857Z" transform="translate(-158.494 -415.494)" fill="none"/>
        <path id="Path_97" data-name="Path 97" d="M160.23,356.466,99.466,417.23a81.422,81.422,0,0,0-1.643,9.5l71.905-71.905A81.423,81.423,0,0,0,160.23,356.466Z" transform="translate(-97.296 -354.296)" fill="none"/>
        <path id="Path_98" data-name="Path 98" d="M303.032,478.328q0-3-.217-5.945l-87.432,87.432q2.945.212,5.945.217c.573,0,1.145-.01,1.716-.022l79.967-79.967C303.021,479.472,303.032,478.9,303.032,478.328Z" transform="translate(-139.624 -396.624)" fill="none"/>
        <path id="Path_99" data-name="Path 99" d="M293.834,452.708l-98.126,98.126q3.257.756,6.611,1.244l92.759-92.759Q294.588,455.968,293.834,452.708Z" transform="translate(-132.54 -389.54)" fill="none"/>
        <path id="Path_100" data-name="Path 100" d="M252.359,393.857l-115.5,115.5q2.019,1.913,4.164,3.69L256.049,398.021Q254.275,395.876,252.359,393.857Z" transform="translate(-111.35 -368.35)" fill="none"/>
        <path id="Path_101" data-name="Path 101" d="M204.07,359.343,102.343,461.07q.891,2.978,2,5.857L209.927,361.34Q207.049,360.234,204.07,359.343Z" transform="translate(-98.924 -355.924)" fill="none"/>
        <path id="Path_102" data-name="Path 102" d="M216.825,365.53l-108.3,108.3q1.222,2.668,2.625,5.23l110.9-110.9Q219.495,366.752,216.825,365.53Z" transform="translate(-101.151 -358.151)" fill="none"/>
        <path id="Path_103" data-name="Path 103" d="M263.393,406.193l-114.2,114.2q2.276,1.671,4.668,3.187L266.579,410.861Q265.066,408.47,263.393,406.193Z" transform="translate(-115.792 -372.792)" fill="none"/>
        <path id="Path_104" data-name="Path 104" d="M229.09,373.469,116.469,486.09q1.506,2.4,3.171,4.684L233.774,376.64Q231.491,374.976,229.09,373.469Z" transform="translate(-104.01 -361.01)" fill="none"/>
        <path id="Path_105" data-name="Path 105" d="M274.016,420,163,531.016q2.552,1.411,5.214,2.642L276.658,425.211Q275.428,422.551,274.016,420Z" transform="translate(-120.762 -377.762)" fill="none"/>
        <path id="Path_106" data-name="Path 106" d="M240.926,382.941,125.941,497.926q1.767,2.152,3.677,4.178L245.1,386.618Q243.078,384.711,240.926,382.941Z" transform="translate(-107.42 -364.42)" fill="none"/>
        <path id="Path_107" data-name="Path 107" d="M116.91,399.043l25.133-25.133A82.138,82.138,0,0,0,116.91,399.043Z" transform="translate(-104.169 -361.169)" fill="#5fc1b8"/>
        <path id="Path_108" data-name="Path 108" d="M151.674,360.239l-48.435,48.435a81.014,81.014,0,0,0-2.848,9.48l60.763-60.763A81.018,81.018,0,0,0,151.674,360.239Z" transform="translate(-98.221 -355.221)" fill="#5fc1b8"/>
        <path id="Path_109" data-name="Path 109" d="M169.448,354.543,97.543,426.448c-.265,2.349-.437,4.726-.5,7.132l79.535-79.535C174.174,354.105,171.8,354.278,169.448,354.543Z" transform="translate(-97.016 -354.016)" fill="#5fc1b8"/>
        <path id="Path_110" data-name="Path 110" d="M184.362,354.3,97.3,441.362q.2,3.035.626,6.007l92.444-92.444Q187.4,354.5,184.362,354.3Z" transform="translate(-97.108 -354.108)" fill="#5fc1b8"/>
        <path id="Path_111" data-name="Path 111" d="M198.043,357.181l-97.862,97.862q.6,2.659,1.384,5.249L203.291,358.565Q200.7,357.79,198.043,357.181Z" transform="translate(-98.145 -355.145)" fill="#5fc1b8"/>
        <path id="Path_112" data-name="Path 112" d="M211.051,362.464,105.464,468.051q.912,2.371,1.962,4.67l108.3-108.3Q213.423,363.375,211.051,362.464Z" transform="translate(-100.047 -357.047)" fill="#5fc1b8"/>
        <path id="Path_113" data-name="Path 113" d="M223.532,369.632l-110.9,110.9q1.166,2.129,2.455,4.177L227.709,372.087Q225.659,370.8,223.532,369.632Z" transform="translate(-102.628 -359.628)" fill="#5fc1b8"/>
        <path id="Path_114" data-name="Path 114" d="M235.558,378.424,121.424,492.558q1.394,1.912,2.891,3.742L239.3,381.315Q237.473,379.816,235.558,378.424Z" transform="translate(-105.794 -362.794)" fill="#5fc1b8"/>
        <path id="Path_115" data-name="Path 115" d="M247.173,388.686,131.687,504.173q1.607,1.708,3.309,3.324L250.5,392Q248.884,390.292,247.173,388.686Z" transform="translate(-109.489 -366.489)" fill="#5fc1b8"/>
        <path id="Path_116" data-name="Path 116" d="M258.392,400.364,143.364,515.392q1.821,1.505,3.73,2.9l114.2-114.2Q259.894,402.188,258.392,400.364Z" transform="translate(-113.693 -370.693)" fill="#5fc1b8"/>
        <path id="Path_117" data-name="Path 117" d="M269.206,413.487,156.487,526.206q2.044,1.293,4.166,2.466L271.672,417.653Q270.5,415.532,269.206,413.487Z" transform="translate(-118.418 -375.418)" fill="#5fc1b8"/>
        <path id="Path_118" data-name="Path 118" d="M279.591,428.144,171.144,536.591q2.288,1.059,4.652,1.98L281.571,432.8Q280.652,430.433,279.591,428.144Z" transform="translate(-123.695 -380.695)" fill="#5fc1b8"/>
        <path id="Path_119" data-name="Path 119" d="M289.49,444.536,187.536,546.49q2.58.783,5.23,1.4l98.126-98.126Q290.278,447.116,289.49,444.536Z" transform="translate(-129.597 -386.597)" fill="#5fc1b8"/>
        <path id="Path_120" data-name="Path 120" d="M298.8,463.039,206.039,555.8q2.957.433,5.98.652l87.432-87.432Q299.233,466,298.8,463.039Z" transform="translate(-136.259 -393.259)" fill="#5fc1b8"/>
        <path id="Path_121" data-name="Path 121" d="M306.868,491.436q.375-3.5.451-7.083L227.353,564.32q3.581-.074,7.084-.451Z" transform="translate(-143.933 -400.933)" fill="#5fc1b8"/>
        <path id="Path_122" data-name="Path 122" d="M262.522,568.846l49.324-49.324a81.088,81.088,0,0,0,2.74-9.373l-61.437,61.437A81.082,81.082,0,0,0,262.522,568.846Z" transform="translate(-153.221 -410.221)" fill="#5fc1b8"/>
        <path id="Path_123" data-name="Path 123" d="M318.362,548.418l-26.944,26.944A82.11,82.11,0,0,0,318.362,548.418Z" transform="translate(-167 -424)" fill="#5fc1b8"/>
      </g>
      <g id="Group_322" data-name="Group 322" transform="translate(829.792 511)">
        <path id="Path_91-2" data-name="Path 91" d="M247.847,566.284l61.437-61.437a81.445,81.445,0,0,0,1.57-9.425l-72.432,72.432A81.56,81.56,0,0,0,247.847,566.284Z" transform="translate(-147.919 -404.918)" fill="none"/>
        <path id="Path_92-2" data-name="Path 92" d="M178.7,354q-1.074,0-2.141.028L97.028,433.563Q97,434.63,97,435.7c0,1.866.068,3.716.191,5.55l87.063-87.063C182.42,354.068,180.57,354,178.7,354Z" transform="translate(-97 -354)" fill="none"/>
        <path id="Path_93-2" data-name="Path 93" d="M190.721,355.277,98.277,447.721q.477,3.364,1.218,6.636L197.357,356.5Q194.087,355.752,190.721,355.277Z" transform="translate(-97.46 -354.46)" fill="none"/>
        <path id="Path_94-2" data-name="Path 94" d="M137.7,369.565,112.565,394.7a81.37,81.37,0,0,0-7.724,15.578l48.435-48.435A81.369,81.369,0,0,0,137.7,369.565Z" transform="translate(-99.823 -356.823)" fill="none"/>
        <path id="Path_95-2" data-name="Path 95" d="M284.188,435.413,178.413,541.188q2.868,1.115,5.838,2.017L286.205,441.251Q285.3,438.283,284.188,435.413Z" transform="translate(-126.313 -383.313)" fill="none"/>
        <path id="Path_96-2" data-name="Path 96" d="M282.913,566.857l26.944-26.944a81.371,81.371,0,0,0,7.263-15.118L267.8,574.119A81.371,81.371,0,0,0,282.913,566.857Z" transform="translate(-158.494 -415.494)" fill="none"/>
        <path id="Path_97-2" data-name="Path 97" d="M160.23,356.466,99.466,417.23a81.422,81.422,0,0,0-1.643,9.5l71.905-71.905A81.423,81.423,0,0,0,160.23,356.466Z" transform="translate(-97.296 -354.296)" fill="none"/>
        <path id="Path_98-2" data-name="Path 98" d="M303.032,478.328q0-3-.217-5.945l-87.432,87.432q2.945.212,5.945.217c.573,0,1.145-.01,1.716-.022l79.967-79.967C303.021,479.472,303.032,478.9,303.032,478.328Z" transform="translate(-139.624 -396.624)" fill="none"/>
        <path id="Path_99-2" data-name="Path 99" d="M293.834,452.708l-98.126,98.126q3.257.756,6.611,1.244l92.759-92.759Q294.588,455.968,293.834,452.708Z" transform="translate(-132.54 -389.54)" fill="none"/>
        <path id="Path_100-2" data-name="Path 100" d="M252.359,393.857l-115.5,115.5q2.019,1.913,4.164,3.69L256.049,398.021Q254.275,395.876,252.359,393.857Z" transform="translate(-111.35 -368.35)" fill="none"/>
        <path id="Path_101-2" data-name="Path 101" d="M204.07,359.343,102.343,461.07q.891,2.978,2,5.857L209.927,361.34Q207.049,360.234,204.07,359.343Z" transform="translate(-98.924 -355.924)" fill="none"/>
        <path id="Path_102-2" data-name="Path 102" d="M216.825,365.53l-108.3,108.3q1.222,2.668,2.625,5.23l110.9-110.9Q219.495,366.752,216.825,365.53Z" transform="translate(-101.151 -358.151)" fill="none"/>
        <path id="Path_103-2" data-name="Path 103" d="M263.393,406.193l-114.2,114.2q2.276,1.671,4.668,3.187L266.579,410.861Q265.066,408.47,263.393,406.193Z" transform="translate(-115.792 -372.792)" fill="none"/>
        <path id="Path_104-2" data-name="Path 104" d="M229.09,373.469,116.469,486.09q1.506,2.4,3.171,4.684L233.774,376.64Q231.491,374.976,229.09,373.469Z" transform="translate(-104.01 -361.01)" fill="none"/>
        <path id="Path_105-2" data-name="Path 105" d="M274.016,420,163,531.016q2.552,1.411,5.214,2.642L276.658,425.211Q275.428,422.551,274.016,420Z" transform="translate(-120.762 -377.762)" fill="none"/>
        <path id="Path_106-2" data-name="Path 106" d="M240.926,382.941,125.941,497.926q1.767,2.152,3.677,4.178L245.1,386.618Q243.078,384.711,240.926,382.941Z" transform="translate(-107.42 -364.42)" fill="none"/>
        <path id="Path_107-2" data-name="Path 107" d="M116.91,399.043l25.133-25.133A82.138,82.138,0,0,0,116.91,399.043Z" transform="translate(-104.169 -361.169)" fill="#d6dd67"/>
        <path id="Path_108-2" data-name="Path 108" d="M151.674,360.239l-48.435,48.435a81.014,81.014,0,0,0-2.848,9.48l60.763-60.763A81.018,81.018,0,0,0,151.674,360.239Z" transform="translate(-98.221 -355.221)" fill="#d6dd67"/>
        <path id="Path_109-2" data-name="Path 109" d="M169.448,354.543,97.543,426.448c-.265,2.349-.437,4.726-.5,7.132l79.535-79.535C174.174,354.105,171.8,354.278,169.448,354.543Z" transform="translate(-97.016 -354.016)" fill="#d6dd67"/>
        <path id="Path_110-2" data-name="Path 110" d="M184.362,354.3,97.3,441.362q.2,3.035.626,6.007l92.444-92.444Q187.4,354.5,184.362,354.3Z" transform="translate(-97.108 -354.108)" fill="#d6dd67"/>
        <path id="Path_111-2" data-name="Path 111" d="M198.043,357.181l-97.862,97.862q.6,2.659,1.384,5.249L203.291,358.565Q200.7,357.79,198.043,357.181Z" transform="translate(-98.145 -355.145)" fill="#d6dd67"/>
        <path id="Path_112-2" data-name="Path 112" d="M211.051,362.464,105.464,468.051q.912,2.371,1.962,4.67l108.3-108.3Q213.423,363.375,211.051,362.464Z" transform="translate(-100.047 -357.047)" fill="#d6dd67"/>
        <path id="Path_113-2" data-name="Path 113" d="M223.532,369.632l-110.9,110.9q1.166,2.129,2.455,4.177L227.709,372.087Q225.659,370.8,223.532,369.632Z" transform="translate(-102.628 -359.628)" fill="#d6dd67"/>
        <path id="Path_114-2" data-name="Path 114" d="M235.558,378.424,121.424,492.558q1.394,1.912,2.891,3.742L239.3,381.315Q237.473,379.816,235.558,378.424Z" transform="translate(-105.794 -362.794)" fill="#d6dd67"/>
        <path id="Path_115-2" data-name="Path 115" d="M247.173,388.686,131.687,504.173q1.607,1.708,3.309,3.324L250.5,392Q248.884,390.292,247.173,388.686Z" transform="translate(-109.489 -366.489)" fill="#d6dd67"/>
        <path id="Path_116-2" data-name="Path 116" d="M258.392,400.364,143.364,515.392q1.821,1.505,3.73,2.9l114.2-114.2Q259.894,402.188,258.392,400.364Z" transform="translate(-113.693 -370.693)" fill="#d6dd67"/>
        <path id="Path_117-2" data-name="Path 117" d="M269.206,413.487,156.487,526.206q2.044,1.293,4.166,2.466L271.672,417.653Q270.5,415.532,269.206,413.487Z" transform="translate(-118.418 -375.418)" fill="#d6dd67"/>
        <path id="Path_118-2" data-name="Path 118" d="M279.591,428.144,171.144,536.591q2.288,1.059,4.652,1.98L281.571,432.8Q280.652,430.433,279.591,428.144Z" transform="translate(-123.695 -380.695)" fill="#d6dd67"/>
        <path id="Path_119-2" data-name="Path 119" d="M289.49,444.536,187.536,546.49q2.58.783,5.23,1.4l98.126-98.126Q290.278,447.116,289.49,444.536Z" transform="translate(-129.597 -386.597)" fill="#d6dd67"/>
        <path id="Path_120-2" data-name="Path 120" d="M298.8,463.039,206.039,555.8q2.957.433,5.98.652l87.432-87.432Q299.233,466,298.8,463.039Z" transform="translate(-136.259 -393.259)" fill="#d6dd67"/>
        <path id="Path_121-2" data-name="Path 121" d="M306.868,491.436q.375-3.5.451-7.083L227.353,564.32q3.581-.074,7.084-.451Z" transform="translate(-143.933 -400.933)" fill="#d6dd67"/>
        <path id="Path_122-2" data-name="Path 122" d="M262.522,568.846l49.324-49.324a81.088,81.088,0,0,0,2.74-9.373l-61.437,61.437A81.082,81.082,0,0,0,262.522,568.846Z" transform="translate(-153.221 -410.221)" fill="#d6dd67"/>
        <path id="Path_123-2" data-name="Path 123" d="M318.362,548.418l-26.944,26.944A82.11,82.11,0,0,0,318.362,548.418Z" transform="translate(-167 -424)" fill="#d6dd67"/>
      </g>
    </g>
    <text id="Leadership_Reality_Check_TM" data-name="Leadership
Reality Check TM" transform="translate(404 149)" fill="#5fc1b8" font-size="92" font-family="CaflischScriptPro-Regular, Caflisch Script Pro"><tspan x="0" y="0">Leadership</tspan><tspan x="0" y="88">Reality Check</tspan><tspan y="88" font-size="62" font-family="LucidaHandwriting-Italic, Lucida Handwriting" font-style="italic"> </tspan><tspan y="88" font-size="26.248" font-family="OpenSans-Regular, Open Sans" baseline-shift="14.99849938095566">TM</tspan></text>
  </g>
</svg>
