<svg xmlns="http://www.w3.org/2000/svg" width="34.73" height="26.102" viewBox="0 0 34.73 26.102"><defs><style>.a{fill:#d6d6d6;}</style></defs><path class="a" d="M3.943,21.852H30.788a3.947,3.947,0,0,0,3.943-3.943V-.307A3.947,3.947,0,0,0,30.788-4.25H3.943A3.947,3.947,0,0,0,0-.307V17.909A3.947,3.947,0,0,0,3.943,21.852Zm0-1.174a2.75,2.75,0,0,1-1.676-.567L10.295,11.9a.587.587,0,1,0-.84-.821L1.5,19.213a2.756,2.756,0,0,1-.327-1.3V.987L14.822,12.543a3.93,3.93,0,0,0,5.1,0L33.556.976V17.909a2.751,2.751,0,0,1-.329,1.308l-8-8.141a.587.587,0,0,0-.838.823l8.072,8.213a2.751,2.751,0,0,1-1.673.564Zm0-23.753H30.788A2.772,2.772,0,0,1,33.544-.554L19.16,11.646a2.759,2.759,0,0,1-3.579,0L1.185-.543A2.771,2.771,0,0,1,3.943-3.076Zm0,0" transform="translate(0 4.25)"/></svg>