<svg xmlns="http://www.w3.org/2000/svg" width="20.948" height="38.2" viewBox="0 0 20.948 38.2"><defs><style>.a{fill:#3b3b3b;}</style></defs><path class="a" d="M137.868,8H123.081A3.084,3.084,0,0,0,120,11.081V43.119a3.084,3.084,0,0,0,3.081,3.081h14.787a3.084,3.084,0,0,0,3.081-3.081V11.081A3.084,3.084,0,0,0,137.868,8Zm-3.216,1.232-.37,1.848h-7.616l-.37-1.848Zm5.064,33.887a1.85,1.85,0,0,1-1.848,1.848H123.081a1.85,1.85,0,0,1-1.848-1.848V11.081a1.85,1.85,0,0,1,1.848-1.848h1.959l.517,2.585a.616.616,0,0,0,.6.5h8.626a.616.616,0,0,0,.6-.5l.517-2.585h1.959a1.85,1.85,0,0,1,1.848,1.848Z" transform="translate(-120 -8)"/></svg>