<svg xmlns="http://www.w3.org/2000/svg" width="31.482" height="33.39" viewBox="0 0 31.482 33.39"><defs><style>.a{fill:#d6d6d6;}</style></defs><g transform="translate(-4 -2)"><path class="a" d="M61.491,42.858A.491.491,0,0,1,61,42.366V40.941a.491.491,0,1,1,.983,0v1.425A.491.491,0,0,1,61.491,42.858Z" transform="translate(-29.94 -20.151)"/><path class="a" d="M35.13,35.39H11.473A.475.475,0,0,1,11,34.913V3.431A1.425,1.425,0,0,1,12.419,2H34.184A1.425,1.425,0,0,1,35.6,3.431v9.292a.473.473,0,1,1-.946,0V3.431a.475.475,0,0,0-.473-.477H12.419a.475.475,0,0,0-.473.477v31h22.71v-8.9a.473.473,0,1,1,.946,0v9.373A.475.475,0,0,1,35.13,35.39Z" transform="translate(-3.561 0)"/><path class="a" d="M61.491,32.922A.491.491,0,0,1,61,32.431V30.971a.491.491,0,1,1,.983,0v1.459A.491.491,0,0,1,61.491,32.922Z" transform="translate(-29.94 -14.926)"/><path class="a" d="M35.005,70.983H4.477a.492.492,0,0,1,0-.983H35.005a.492.492,0,0,1,0,.983Z" transform="translate(0 -35.593)"/><path class="a" d="M50.068,13.627H47.407a.983.983,0,0,1-.983-.983V9.983A.983.983,0,0,1,47.407,9h2.661a.983.983,0,0,1,.983.983v2.662A.983.983,0,0,1,50.068,13.627ZM47.407,9.983v2.662h2.661V9.983Z" transform="translate(-22.289 -3.561)"/><path class="a" d="M35.936,13.627H33.275a.983.983,0,0,1-.983-.983V9.983A.983.983,0,0,1,33.275,9h2.661a.983.983,0,0,1,.983.983v2.662A.983.983,0,0,1,35.936,13.627ZM33.275,9.983v2.662h2.661V9.983Z" transform="translate(-14.864 -3.561)"/><path class="a" d="M21.8,13.627H19.143a.983.983,0,0,1-.983-.983V9.983A.983.983,0,0,1,19.143,9H21.8a.983.983,0,0,1,.983.983v2.662A.983.983,0,0,1,21.8,13.627ZM19.143,9.983v2.662H21.8V9.983Z" transform="translate(-7.44 -3.561)"/><path class="a" d="M50.068,27.481H47.407a.983.983,0,0,1-.983-.983V23.837a.983.983,0,0,1,.983-.983h2.661a.983.983,0,0,1,.983.983V26.5A.983.983,0,0,1,50.068,27.481Zm-2.661-3.644V26.5h2.661V23.837Z" transform="translate(-22.289 -10.953)"/><path class="a" d="M35.936,27.481H33.275a.983.983,0,0,1-.983-.983V23.837a.983.983,0,0,1,.983-.983h2.661a.983.983,0,0,1,.983.983V26.5A.983.983,0,0,1,35.936,27.481Zm-2.661-3.644V26.5h2.661V23.837Z" transform="translate(-14.864 -10.953)"/><path class="a" d="M21.8,27.481H19.143a.983.983,0,0,1-.983-.983V23.837a.983.983,0,0,1,.983-.983H21.8a.983.983,0,0,1,.983.983V26.5A.983.983,0,0,1,21.8,27.481Zm-2.661-3.644V26.5H21.8V23.837Z" transform="translate(-7.44 -10.953)"/><path class="a" d="M50.068,40.21H47.407a.983.983,0,0,1-.983-.983V36.566a.983.983,0,0,1,.983-.983h2.661a.983.983,0,0,1,.983.983v2.662A.983.983,0,0,1,50.068,40.21Zm-2.661-3.644v2.662h2.661V36.566Z" transform="translate(-22.289 -17.639)"/><path class="a" d="M35.936,40.21H33.275a.983.983,0,0,1-.983-.983V36.566a.983.983,0,0,1,.983-.983h2.661a.983.983,0,0,1,.983.983v2.662A.983.983,0,0,1,35.936,40.21Zm-2.661-3.644v2.662h2.661V36.566Z" transform="translate(-14.864 -17.639)"/><path class="a" d="M21.8,40.21H19.143a.983.983,0,0,1-.983-.983V36.566a.983.983,0,0,1,.983-.983H21.8a.983.983,0,0,1,.983.983v2.662A.983.983,0,0,1,21.8,40.21Zm-2.661-3.644v2.662H21.8V36.566Z" transform="translate(-7.44 -17.639)"/><path class="a" d="M36.365,60.873H29.21a.491.491,0,0,1-.491-.491V51.023a.9.9,0,0,1,.9-.9h6.341a.9.9,0,0,1,.9.9v9.359a.491.491,0,0,1-.491.491ZM29.7,59.891h6.172V51.108H29.7Z" transform="translate(-13.047 -25.483)"/></g></svg>