<svg xmlns="http://www.w3.org/2000/svg" width="58.014" height="53.18" viewBox="0 0 58.014 53.18"><defs><style>.a{fill:rgba(151,155,17,0.47);}</style></defs><g transform="translate(0 -21.329)"><path class="a" d="M55.1,26.372l-2.125-2.125a9.962,9.962,0,0,0-14.088,0h0L11.733,51.4a7.044,7.044,0,0,0,0,9.962l1.416,1.416a7.286,7.286,0,0,0,9.962,0L43.157,42.729a1.209,1.209,0,1,0-1.679-1.739l-.03.03L21.4,61.067a4.789,4.789,0,0,1-6.544,0L13.442,59.65a4.627,4.627,0,0,1,0-6.543h0L40.592,25.956a7.735,7.735,0,0,1,10.67,0l2.125,2.125a7.547,7.547,0,0,1,0,10.67L23.111,69.027a10.464,10.464,0,0,1-14.8,0L5.481,66.2a10.464,10.464,0,0,1,0-14.8L28.654,28.228a1.209,1.209,0,1,0-1.679-1.739l-.03.03L3.772,49.689a12.879,12.879,0,0,0,0,18.214h0l2.833,2.833a12.879,12.879,0,0,0,18.214,0h0L55.1,40.459a9.961,9.961,0,0,0,0-14.088Z" transform="translate(0 0)"/><path class="a" d="M15.711,74.509A12.812,12.812,0,0,1,6.6,70.736L3.772,67.905a12.879,12.879,0,0,1,0-18.214h0L26.944,26.519A1.209,1.209,0,0,1,28.683,28.2l-.03.03L5.481,51.4a10.464,10.464,0,0,0,0,14.8l2.833,2.833a10.464,10.464,0,0,0,14.8,0L53.387,38.751a7.547,7.547,0,0,0,0-10.67l-2.125-2.125a7.735,7.735,0,0,0-10.67,0L13.441,53.107a4.627,4.627,0,0,0,0,6.543h0l1.416,1.416a4.789,4.789,0,0,0,6.544,0L41.448,41.02A1.209,1.209,0,0,1,43.186,42.7l-.03.03L23.11,62.776a7.286,7.286,0,0,1-9.962,0l-1.416-1.416a7.044,7.044,0,0,1,0-9.962L38.883,24.247a9.962,9.962,0,0,1,14.088,0h0L55.1,26.372a9.962,9.962,0,0,1,0,14.088h0L24.819,70.736A12.812,12.812,0,0,1,15.711,74.509Z" transform="translate(0 0)"/></g></svg>