<svg xmlns="http://www.w3.org/2000/svg" width="24.266" height="24.264" viewBox="0 0 24.266 24.264"><defs><style>.a{fill:#45a29e;}</style></defs><path class="a" d="M21.478.947a3.342,3.342,0,0,0-4.722,0L15.575,2.136,2.993,14.711l-.027.027c-.006.006-.006.013-.013.013-.013.02-.033.04-.047.06s-.007.007-.007.013-.02.033-.033.053-.006.013-.013.02-.013.033-.02.053-.006.006-.006.013L.034,23.36a.657.657,0,0,0,.16.681.672.672,0,0,0,.474.194A.788.788,0,0,0,.882,24.2l8.388-2.8c.006,0,.006,0,.013-.006a.242.242,0,0,0,.06-.027.024.024,0,0,0,.014-.006c.02-.013.047-.027.067-.04s.04-.033.06-.047.013-.007.013-.013.02-.013.027-.027L23.288,7.472a3.341,3.341,0,0,0,0-4.722ZM9.057,19.833,4.409,15.185,16.042,3.552,20.69,8.2Zm-5.3-3.412,4.061,4.06-6.1,2.03ZM22.347,6.537l-.708.715L16.99,2.6l.715-.714a2,2,0,0,1,2.831,0l1.816,1.816a2.01,2.01,0,0,1-.006,2.832Zm0,0" transform="translate(0.001 0.029)"/></svg>