<svg xmlns="http://www.w3.org/2000/svg" width="16.01" height="25.4" viewBox="0 0 16.01 25.4"><defs><style>.a{fill:#fff;}</style></defs><g transform="translate(0 0)"><path class="a" d="M97.628,11.233,87,.619a2.048,2.048,0,0,0-2.935,0L82.826,1.842a2,2,0,0,0-.6,1.467,2.087,2.087,0,0,0,.6,1.484L90.749,12.7l-7.923,7.923a2,2,0,0,0-.6,1.467,2.087,2.087,0,0,0,.6,1.484L84.064,24.8A2.086,2.086,0,0,0,87,24.8L97.628,14.184a2.087,2.087,0,0,0,.6-1.484A2,2,0,0,0,97.628,11.233Z" transform="translate(-82.222 0)"/></g></svg>