<svg xmlns="http://www.w3.org/2000/svg" xmlns:xlink="http://www.w3.org/1999/xlink" width="247" height="47" viewBox="0 0 247 47">
  <defs>
    <clipPath id="clip-logo_247_47">
      <rect width="247" height="47"/>
    </clipPath>
  </defs>
  <g id="logo_247_47" data-name="logo 247*47" clip-path="url(#clip-logo_247_47)">
    <g id="Group_324" data-name="Group 324" transform="translate(-64 -81)">
      <g id="Group_323" data-name="Group 323" transform="translate(91 83.457)">
        <g id="Group_321" data-name="Group 321" transform="translate(0)">
          <path id="Path_91" data-name="Path 91" d="M240.928,514.264l16.337-16.337a21.663,21.663,0,0,0,.417-2.506l-19.26,19.26A21.68,21.68,0,0,0,240.928,514.264Z" transform="translate(-214.356 -471.356)" fill="none"/>
          <path id="Path_92" data-name="Path 92" d="M118.726,354q-.286,0-.569.007L97.007,375.157q-.007.284-.007.569c0,.5.018.988.051,1.476L120.2,354.051C119.714,354.018,119.222,354,118.726,354Z" transform="translate(-97 -354)" fill="none"/>
          <path id="Path_93" data-name="Path 93" d="M122.859,355.277,98.277,379.859q.127.894.324,1.765L124.623,355.6Q123.754,355.4,122.859,355.277Z" transform="translate(-98.06 -355.06)" fill="none"/>
          <path id="Path_94" data-name="Path 94" d="M113.578,363.895l-6.683,6.683a21.637,21.637,0,0,0-2.054,4.142l12.879-12.879A21.636,21.636,0,0,0,113.578,363.895Z" transform="translate(-103.507 -360.507)" fill="none"/>
          <path id="Path_95" data-name="Path 95" d="M206.539,435.413l-28.126,28.127q.763.3,1.552.536l27.11-27.11Q206.836,436.176,206.539,435.413Z" transform="translate(-164.559 -421.559)" fill="none"/>
          <path id="Path_96" data-name="Path 96" d="M271.815,535.98l7.165-7.164a21.636,21.636,0,0,0,1.931-4.02L267.8,537.911A21.638,21.638,0,0,0,271.815,535.98Z" transform="translate(-238.731 -495.731)" fill="none"/>
          <path id="Path_97" data-name="Path 97" d="M114.418,355.26,98.26,371.418a21.649,21.649,0,0,0-.437,2.526l19.12-19.12A21.66,21.66,0,0,0,114.418,355.26Z" transform="translate(-97.683 -354.683)" fill="none"/>
          <path id="Path_98" data-name="Path 98" d="M238.689,473.964q0-.8-.058-1.581l-23.249,23.249q.783.056,1.581.058c.152,0,.3,0,.456-.006l21.264-21.264C238.687,474.268,238.689,474.116,238.689,473.964Z" transform="translate(-195.238 -452.238)" fill="none"/>
          <path id="Path_99" data-name="Path 99" d="M221.8,452.708,195.708,478.8q.866.2,1.758.331l24.665-24.665Q222,453.575,221.8,452.708Z" transform="translate(-178.911 -435.911)" fill="none"/>
          <path id="Path_100" data-name="Path 100" d="M167.57,393.857,136.857,424.57q.537.509,1.107.981l30.587-30.587Q168.079,394.394,167.57,393.857Z" transform="translate(-130.075 -387.075)" fill="none"/>
          <path id="Path_101" data-name="Path 101" d="M129.393,359.343l-27.05,27.05q.237.792.531,1.558l28.076-28.076Q130.185,359.58,129.393,359.343Z" transform="translate(-101.434 -358.434)" fill="none"/>
          <path id="Path_102" data-name="Path 102" d="M137.327,365.53l-28.8,28.8q.325.709.7,1.391l29.489-29.489Q138.036,365.855,137.327,365.53Z" transform="translate(-106.568 -363.568)" fill="none"/>
          <path id="Path_103" data-name="Path 103" d="M179.56,406.193,149.193,436.56q.605.444,1.241.847l29.973-29.973Q180,406.8,179.56,406.193Z" transform="translate(-140.311 -397.311)" fill="none"/>
          <path id="Path_104" data-name="Path 104" d="M146.416,373.469l-29.947,29.947q.4.638.843,1.245l30.349-30.349Q147.054,373.87,146.416,373.469Z" transform="translate(-113.156 -370.156)" fill="none"/>
          <path id="Path_105" data-name="Path 105" d="M192.518,420,163,449.518q.679.375,1.386.7l28.837-28.837Q192.893,420.676,192.518,420Z" transform="translate(-151.766 -408.766)" fill="none"/>
          <path id="Path_106" data-name="Path 106" d="M156.517,382.941l-30.576,30.576q.47.572.978,1.111l30.709-30.709Q157.089,383.412,156.517,382.941Z" transform="translate(-121.016 -378.016)" fill="none"/>
          <path id="Path_107" data-name="Path 107" d="M116.91,380.593l6.683-6.683A21.841,21.841,0,0,0,116.91,380.593Z" transform="translate(-113.522 -370.522)" fill="#5fc1b8"/>
          <path id="Path_108" data-name="Path 108" d="M114.028,358.148l-12.879,12.879a21.535,21.535,0,0,0-.757,2.521l16.158-16.158A21.542,21.542,0,0,0,114.028,358.148Z" transform="translate(-99.814 -356.814)" fill="#5fc1b8"/>
          <path id="Path_109" data-name="Path 109" d="M116.3,354.177,97.177,373.3c-.07.625-.116,1.257-.133,1.9l21.149-21.149C117.553,354.06,116.921,354.106,116.3,354.177Z" transform="translate(-97.037 -354.036)" fill="#5fc1b8"/>
          <path id="Path_110" data-name="Path 110" d="M120.45,354.3,97.3,377.45q.054.807.166,1.6l24.582-24.582Q121.257,354.354,120.45,354.3Z" transform="translate(-97.248 -354.248)" fill="#5fc1b8"/>
          <path id="Path_111" data-name="Path 111" d="M126.2,357.181,100.181,383.2q.161.707.368,1.4l27.05-27.05Q126.91,357.343,126.2,357.181Z" transform="translate(-99.64 -356.64)" fill="#5fc1b8"/>
          <path id="Path_112" data-name="Path 112" d="M133.54,362.464,105.464,390.54q.243.63.522,1.242l28.8-28.8Q134.171,362.706,133.54,362.464Z" transform="translate(-104.024 -361.024)" fill="#5fc1b8"/>
          <path id="Path_113" data-name="Path 113" d="M142.121,369.632l-29.489,29.489q.31.566.653,1.111l29.947-29.947Q142.687,369.943,142.121,369.632Z" transform="translate(-109.972 -366.972)" fill="#5fc1b8"/>
          <path id="Path_114" data-name="Path 114" d="M151.773,378.424l-30.349,30.349q.371.508.769.995l30.576-30.576Q152.282,378.794,151.773,378.424Z" transform="translate(-117.268 -374.268)" fill="#5fc1b8"/>
          <path id="Path_115" data-name="Path 115" d="M162.4,388.686l-30.709,30.709q.427.454.88.884l30.713-30.713Q162.851,389.113,162.4,388.686Z" transform="translate(-125.784 -382.783)" fill="#5fc1b8"/>
          <path id="Path_116" data-name="Path 116" d="M173.951,400.364l-30.587,30.587q.484.4.992.772l30.367-30.367Q174.35,400.849,173.951,400.364Z" transform="translate(-135.474 -392.474)" fill="#5fc1b8"/>
          <path id="Path_117" data-name="Path 117" d="M186.46,413.487,156.487,443.46q.543.344,1.108.656l29.521-29.521Q186.8,414.031,186.46,413.487Z" transform="translate(-146.364 -403.364)" fill="#5fc1b8"/>
          <path id="Path_118" data-name="Path 118" d="M199.981,428.144l-28.837,28.837q.609.282,1.237.527l28.126-28.127Q200.263,428.753,199.981,428.144Z" transform="translate(-158.527 -415.527)" fill="#5fc1b8"/>
          <path id="Path_119" data-name="Path 119" d="M214.646,444.536l-27.11,27.11q.686.208,1.391.373l26.093-26.093Q214.856,445.222,214.646,444.536Z" transform="translate(-172.13 -429.13)" fill="#5fc1b8"/>
          <path id="Path_120" data-name="Path 120" d="M230.7,463.039,206.039,487.7q.786.115,1.59.173l23.249-23.249Q230.82,463.825,230.7,463.039Z" transform="translate(-187.484 -444.484)" fill="#5fc1b8"/>
          <path id="Path_121" data-name="Path 121" d="M248.5,486.236q.1-.931.12-1.883l-21.264,21.264q.952-.02,1.884-.12Z" transform="translate(-205.171 -462.171)" fill="#5fc1b8"/>
          <path id="Path_122" data-name="Path 122" d="M255.641,525.757l13.116-13.116a21.563,21.563,0,0,0,.729-2.492l-16.337,16.337A21.57,21.57,0,0,0,255.641,525.757Z" transform="translate(-226.577 -483.577)" fill="#5fc1b8"/>
          <path id="Path_123" data-name="Path 123" d="M298.583,548.418l-7.165,7.165A21.835,21.835,0,0,0,298.583,548.418Z" transform="translate(-258.334 -515.334)" fill="#5fc1b8"/>
        </g>
        <g id="Group_322" data-name="Group 322" transform="translate(28.929)">
          <path id="Path_91-2" data-name="Path 91" d="M240.928,514.264l16.337-16.337a21.663,21.663,0,0,0,.417-2.506l-19.26,19.26A21.68,21.68,0,0,0,240.928,514.264Z" transform="translate(-214.356 -471.356)" fill="none"/>
          <path id="Path_92-2" data-name="Path 92" d="M118.726,354q-.286,0-.569.007L97.007,375.157q-.007.284-.007.569c0,.5.018.988.051,1.476L120.2,354.051C119.714,354.018,119.222,354,118.726,354Z" transform="translate(-97 -354)" fill="none"/>
          <path id="Path_93-2" data-name="Path 93" d="M122.859,355.277,98.277,379.859q.127.894.324,1.765L124.623,355.6Q123.754,355.4,122.859,355.277Z" transform="translate(-98.06 -355.06)" fill="none"/>
          <path id="Path_94-2" data-name="Path 94" d="M113.578,363.895l-6.683,6.683a21.637,21.637,0,0,0-2.054,4.142l12.879-12.879A21.636,21.636,0,0,0,113.578,363.895Z" transform="translate(-103.507 -360.507)" fill="none"/>
          <path id="Path_95-2" data-name="Path 95" d="M206.539,435.413l-28.126,28.127q.763.3,1.552.536l27.11-27.11Q206.836,436.176,206.539,435.413Z" transform="translate(-164.559 -421.559)" fill="none"/>
          <path id="Path_96-2" data-name="Path 96" d="M271.815,535.98l7.165-7.164a21.636,21.636,0,0,0,1.931-4.02L267.8,537.911A21.638,21.638,0,0,0,271.815,535.98Z" transform="translate(-238.731 -495.731)" fill="none"/>
          <path id="Path_97-2" data-name="Path 97" d="M114.418,355.26,98.26,371.418a21.649,21.649,0,0,0-.437,2.526l19.12-19.12A21.66,21.66,0,0,0,114.418,355.26Z" transform="translate(-97.683 -354.683)" fill="none"/>
          <path id="Path_98-2" data-name="Path 98" d="M238.689,473.964q0-.8-.058-1.581l-23.249,23.249q.783.056,1.581.058c.152,0,.3,0,.456-.006l21.264-21.264C238.687,474.268,238.689,474.116,238.689,473.964Z" transform="translate(-195.238 -452.238)" fill="none"/>
          <path id="Path_99-2" data-name="Path 99" d="M221.8,452.708,195.708,478.8q.866.2,1.758.331l24.665-24.665Q222,453.575,221.8,452.708Z" transform="translate(-178.911 -435.911)" fill="none"/>
          <path id="Path_100-2" data-name="Path 100" d="M167.57,393.857,136.857,424.57q.537.509,1.107.981l30.587-30.587Q168.079,394.394,167.57,393.857Z" transform="translate(-130.075 -387.075)" fill="none"/>
          <path id="Path_101-2" data-name="Path 101" d="M129.393,359.343l-27.05,27.05q.237.792.531,1.558l28.076-28.076Q130.185,359.58,129.393,359.343Z" transform="translate(-101.434 -358.434)" fill="none"/>
          <path id="Path_102-2" data-name="Path 102" d="M137.327,365.53l-28.8,28.8q.325.709.7,1.391l29.489-29.489Q138.036,365.855,137.327,365.53Z" transform="translate(-106.568 -363.568)" fill="none"/>
          <path id="Path_103-2" data-name="Path 103" d="M179.56,406.193,149.193,436.56q.605.444,1.241.847l29.973-29.973Q180,406.8,179.56,406.193Z" transform="translate(-140.311 -397.311)" fill="none"/>
          <path id="Path_104-2" data-name="Path 104" d="M146.416,373.469l-29.947,29.947q.4.638.843,1.245l30.349-30.349Q147.054,373.87,146.416,373.469Z" transform="translate(-113.156 -370.156)" fill="none"/>
          <path id="Path_105-2" data-name="Path 105" d="M192.518,420,163,449.518q.679.375,1.386.7l28.837-28.837Q192.893,420.676,192.518,420Z" transform="translate(-151.766 -408.766)" fill="none"/>
          <path id="Path_106-2" data-name="Path 106" d="M156.517,382.941l-30.576,30.576q.47.572.978,1.111l30.709-30.709Q157.089,383.412,156.517,382.941Z" transform="translate(-121.016 -378.016)" fill="none"/>
          <path id="Path_107-2" data-name="Path 107" d="M116.91,380.593l6.683-6.683A21.841,21.841,0,0,0,116.91,380.593Z" transform="translate(-113.522 -370.522)" fill="#d6dd67"/>
          <path id="Path_108-2" data-name="Path 108" d="M114.028,358.148l-12.879,12.879a21.535,21.535,0,0,0-.757,2.521l16.158-16.158A21.542,21.542,0,0,0,114.028,358.148Z" transform="translate(-99.814 -356.814)" fill="#d6dd67"/>
          <path id="Path_109-2" data-name="Path 109" d="M116.3,354.177,97.177,373.3c-.07.625-.116,1.257-.133,1.9l21.149-21.149C117.553,354.06,116.921,354.106,116.3,354.177Z" transform="translate(-97.037 -354.036)" fill="#d6dd67"/>
          <path id="Path_110-2" data-name="Path 110" d="M120.45,354.3,97.3,377.45q.054.807.166,1.6l24.582-24.582Q121.257,354.354,120.45,354.3Z" transform="translate(-97.248 -354.248)" fill="#d6dd67"/>
          <path id="Path_111-2" data-name="Path 111" d="M126.2,357.181,100.181,383.2q.161.707.368,1.4l27.05-27.05Q126.91,357.343,126.2,357.181Z" transform="translate(-99.64 -356.64)" fill="#d6dd67"/>
          <path id="Path_112-2" data-name="Path 112" d="M133.54,362.464,105.464,390.54q.243.63.522,1.242l28.8-28.8Q134.171,362.706,133.54,362.464Z" transform="translate(-104.024 -361.024)" fill="#d6dd67"/>
          <path id="Path_113-2" data-name="Path 113" d="M142.121,369.632l-29.489,29.489q.31.566.653,1.111l29.947-29.947Q142.687,369.943,142.121,369.632Z" transform="translate(-109.972 -366.972)" fill="#d6dd67"/>
          <path id="Path_114-2" data-name="Path 114" d="M151.773,378.424l-30.349,30.349q.371.508.769.995l30.576-30.576Q152.282,378.794,151.773,378.424Z" transform="translate(-117.268 -374.268)" fill="#d6dd67"/>
          <path id="Path_115-2" data-name="Path 115" d="M162.4,388.686l-30.709,30.709q.427.454.88.884l30.713-30.713Q162.851,389.113,162.4,388.686Z" transform="translate(-125.784 -382.783)" fill="#d6dd67"/>
          <path id="Path_116-2" data-name="Path 116" d="M173.951,400.364l-30.587,30.587q.484.4.992.772l30.367-30.367Q174.35,400.849,173.951,400.364Z" transform="translate(-135.474 -392.474)" fill="#d6dd67"/>
          <path id="Path_117-2" data-name="Path 117" d="M186.46,413.487,156.487,443.46q.543.344,1.108.656l29.521-29.521Q186.8,414.031,186.46,413.487Z" transform="translate(-146.364 -403.364)" fill="#d6dd67"/>
          <path id="Path_118-2" data-name="Path 118" d="M199.981,428.144l-28.837,28.837q.609.282,1.237.527l28.126-28.127Q200.263,428.753,199.981,428.144Z" transform="translate(-158.527 -415.527)" fill="#d6dd67"/>
          <path id="Path_119-2" data-name="Path 119" d="M214.646,444.536l-27.11,27.11q.686.208,1.391.373l26.093-26.093Q214.856,445.222,214.646,444.536Z" transform="translate(-172.13 -429.13)" fill="#d6dd67"/>
          <path id="Path_120-2" data-name="Path 120" d="M230.7,463.039,206.039,487.7q.786.115,1.59.173l23.249-23.249Q230.82,463.825,230.7,463.039Z" transform="translate(-187.484 -444.484)" fill="#d6dd67"/>
          <path id="Path_121-2" data-name="Path 121" d="M248.5,486.236q.1-.931.12-1.883l-21.264,21.264q.952-.02,1.884-.12Z" transform="translate(-205.171 -462.171)" fill="#d6dd67"/>
          <path id="Path_122-2" data-name="Path 122" d="M255.641,525.757l13.116-13.116a21.563,21.563,0,0,0,.729-2.492l-16.337,16.337A21.57,21.57,0,0,0,255.641,525.757Z" transform="translate(-226.577 -483.577)" fill="#d6dd67"/>
          <path id="Path_123-2" data-name="Path 123" d="M298.583,548.418l-7.165,7.165A21.835,21.835,0,0,0,298.583,548.418Z" transform="translate(-258.334 -515.334)" fill="#d6dd67"/>
        </g>
      </g>
      <text id="Leadership_Reality_Check_TM" data-name="Leadership
Reality Check TM" transform="translate(176.263 97)" fill="#5fc1b8" font-size="22" font-family="CaflischScriptPro-Regular, Caflisch Script Pro"><tspan x="0" y="0">Leadership</tspan><tspan x="0" y="21">Reality Check</tspan><tspan y="21" font-size="14" font-family="LucidaHandwriting-Italic, Lucida Handwriting" font-style="italic"> </tspan><tspan y="21" font-size="6.416" font-family="OpenSans-Regular, Open Sans" baseline-shift="3.6662998971165743">TM</tspan></text>
    </g>
  </g>
</svg>
