<svg xmlns="http://www.w3.org/2000/svg" xmlns:xlink="http://www.w3.org/1999/xlink" width="190.143" height="114.992" viewBox="0 0 190.143 114.992"><defs><style>.a{fill:#fff;}.b{filter:url(#e);}.c{filter:url(#c);}.d{filter:url(#a);}</style><filter id="a" x="0" y="0" width="190.143" height="114.992" filterUnits="userSpaceOnUse"><feOffset dy="5" input="SourceAlpha"/><feGaussianBlur stdDeviation="3" result="b"/><feFlood flood-opacity="0.239"/><feComposite operator="in" in2="b"/><feComposite in="SourceGraphic"/></filter><filter id="c" x="54.171" y="21.719" width="33.81" height="33.81" filterUnits="userSpaceOnUse"><feOffset dy="5" input="SourceAlpha"/><feGaussianBlur stdDeviation="3" result="d"/><feFlood flood-opacity="0.239"/><feComposite operator="in" in2="d"/><feComposite in="SourceGraphic"/></filter><filter id="e" x="94.741" y="13.814" width="33.81" height="33.81" filterUnits="userSpaceOnUse"><feOffset dy="5" input="SourceAlpha"/><feGaussianBlur stdDeviation="3" result="f"/><feFlood flood-opacity="0.239"/><feComposite operator="in" in2="f"/><feComposite in="SourceGraphic"/></filter></defs><g transform="translate(3.384 35.848) rotate(-11)"><g transform="matrix(0.985, -0.174, 0.174, 0.985, 0, 29.43)"><g class="d" transform="matrix(0.93, 0.36, -0.36, 0.93, 14.8, -63.66)"><path class="a" d="M0,0,.4.336.883.749l.682.555C2.6,2.137,4.145,3.33,6.173,4.765S10.7,7.885,13.644,9.711l1.121.7,1.164.7c.786.478,1.6.951,2.441,1.445q2.52,1.462,5.336,2.988c1.872,1.021,3.849,2.033,5.9,3.071,1.03.51,2.076,1.033,3.151,1.539l1.621.771,1.652.766c.554.259,1.115.512,1.681.764l1.71.759c1.154.493,2.316,1.007,3.5,1.494l1.79.742,1.819.724c.608.245,1.224.479,1.842.716s1.238.477,1.864.709l1.888.694c.631.236,1.269.458,1.91.68s1.283.45,1.93.667l1.952.648c.651.221,1.31.425,1.97.634s1.32.422,1.986.623c1.334.4,2.672.8,4.027,1.173,2.7.768,5.451,1.456,8.22,2.1,1.389.307,2.777.633,4.178.9l1.049.213c.35.071.7.144,1.051.206l2.108.388c.7.135,1.409.24,2.114.357l1.058.172c.353.056.7.118,1.058.165,1.415.2,2.826.414,4.242.571.708.083,1.413.175,2.12.25l2.12.206c.353.032.7.072,1.058.1l1.059.08,2.111.155c2.814.152,5.609.272,8.373.247,1.382.015,2.755-.034,4.119-.065.682-.009,1.36-.055,2.037-.09s1.349-.069,2.02-.112a112.641,112.641,0,0,0,15.334-2.106l.9-.185c.3-.065.594-.14.89-.209l1.758-.418c.29-.072.581-.133.867-.212l.855-.233,1.688-.463c.56-.146,1.1-.328,1.648-.494l1.613-.5c.535-.158,1.054-.352,1.572-.529l1.534-.537.378-.133.188-.066.186-.073.737-.288,1.449-.566.712-.278c.235-.094.465-.2.7-.3l1.36-.59.667-.291.33-.143.164-.072.161-.077,1.268-.606c.831-.4,1.649-.77,2.411-1.189l2.229-1.175c.708-.4,1.382-.792,2.032-1.167l.954-.552c.157-.087.3-.187.455-.279l.442-.278,1.66-1.049c.53-.324,1.01-.665,1.467-.978l1.278-.883c.8-.535,1.445-1.047,1.978-1.443l1.623-1.229-1.739,1.058-.945.579c-.343.219-.733.433-1.151.67l-1.345.763c-.478.272-.98.569-1.532.847l-1.725.905-.457.241c-.155.08-.308.167-.47.241l-.983.474-2.085,1-2.274,1.006a104.5,104.5,0,0,1-10.772,3.954l-1.527.448c-.515.148-1.029.314-1.56.444l-1.6.415c-.539.137-1.078.29-1.632.406l-1.668.378-.843.193c-.282.066-.569.115-.855.173l-1.731.339c-.291.056-.581.117-.875.168l-.886.145a121.719,121.719,0,0,1-15.005,1.586c-.654.025-1.312.038-1.971.058l-.991.028c-.331.014-.663.014-1,.016-1.33,0-2.668.029-4.016-.012-.674-.015-1.349-.021-2.027-.044l-2.037-.088-1.022-.043-1.024-.065-2.055-.131c-2.742-.224-5.505-.475-8.267-.843-1.384-.161-2.763-.382-4.146-.577-.346-.047-.691-.108-1.036-.164l-1.035-.17c-.69-.115-1.382-.221-2.069-.353l-2.066-.376c-.345-.06-.687-.131-1.03-.2l-1.029-.207c-1.373-.266-2.738-.572-4.1-.867-.341-.072-.68-.153-1.02-.233L72.868,30.9c-.678-.16-1.357-.311-2.029-.485l-2.018-.506c-.337-.082-.67-.175-1-.263l-1-.266c-1.336-.345-2.656-.732-3.974-1.1-.659-.185-1.311-.385-1.965-.576s-1.3-.382-1.95-.588l-1.933-.6c-.642-.2-1.277-.416-1.913-.622-1.273-.408-2.528-.842-3.776-1.262q-3.731-1.3-7.294-2.65c-1.189-.442-2.353-.911-3.509-1.36l-1.714-.693-.849-.342c-.282-.113-.561-.232-.841-.347-4.468-1.848-8.647-3.715-12.462-5.532s-7.274-3.568-10.308-5.185c-.761-.4-1.488-.8-2.2-1.185L10.1,6.215C8.807,5.483,7.622,4.8,6.56,4.169l-.775-.461-.727-.443-.683-.416-.633-.4-.588-.368-.537-.345c-.343-.22-.656-.418-.93-.6L.956.654.429.294Z" transform="translate(9 64.74) rotate(-21)"/></g></g><g transform="translate(60.13 3.972)"><g transform="translate(0 0.018)"><g class="c" transform="matrix(0.98, 0.19, -0.19, 0.98, -56.61, -39.83)"><path class="a" d="M13.485,6.742A6.742,6.742,0,1,1,6.742,0,6.742,6.742,0,0,1,13.485,6.742Z" transform="translate(63.17 28.29) rotate(-11)"/></g></g><g transform="translate(41.333 0)"><g class="b" transform="matrix(0.98, 0.19, -0.19, 0.98, -97.94, -39.81)"><path class="a" d="M13.485,6.742A6.743,6.743,0,1,1,6.742,0,6.742,6.742,0,0,1,13.485,6.742Z" transform="translate(103.74 20.39) rotate(-11)"/></g></g></g></g></svg>