<svg xmlns="http://www.w3.org/2000/svg" width="56.6" height="51.883" viewBox="0 0 56.6 51.883"><defs><style>.a{fill:rgba(78,178,47,0.82);}</style></defs><g transform="translate(-623 -203)"><g transform="translate(623 181.667)"><g transform="translate(0 21.333)"><circle class="a" cx="1.454" cy="1.454" r="1.454" transform="translate(5.817 5.817)"/><circle class="a" cx="1.454" cy="1.454" r="1.454" transform="translate(9.338 5.817)"/><circle class="a" cx="1.454" cy="1.454" r="1.454" transform="translate(14.006 5.817)"/><path class="a" d="M108.12,216.242h31.995a1.454,1.454,0,1,0,0-2.909H108.12a1.454,1.454,0,1,0,0,2.909Z" transform="translate(-97.626 -192.344)"/><path class="a" d="M125.572,341.333H108.12a1.454,1.454,0,1,0,0,2.909h17.452a1.454,1.454,0,0,0,0-2.909Z" transform="translate(-96.007 -306.351)"/><path class="a" d="M52.086,35.483c-.068,0-.135.017-.2.02V26.05a4.722,4.722,0,0,0-4.717-4.717H4.717A4.722,4.722,0,0,0,0,26.05V68.5a4.722,4.722,0,0,0,4.717,4.717h42.45A4.722,4.722,0,0,0,51.883,68.5V46.583l3.395-3.394h0a4.514,4.514,0,0,0-3.192-7.705ZM2.358,26.05a2.361,2.361,0,0,1,2.358-2.358h42.45a2.361,2.361,0,0,1,2.358,2.358v4.717H2.358ZM49.525,68.5a2.361,2.361,0,0,1-2.358,2.358H4.717A2.361,2.361,0,0,1,2.358,68.5V33.125H49.525v3.164a4.436,4.436,0,0,0-.631.516L36.064,49.633H12.971a1.179,1.179,0,1,0,0,2.358h21.2L33.04,57.656A1.179,1.179,0,0,0,34.2,59.066a1.205,1.205,0,0,0,.23-.023l5.894-1.179a1.172,1.172,0,0,0,.6-.322l8.6-8.6ZM39.509,55.622l-3.809.762.762-3.814,10.7-10.7,3.05,3.05Zm14.1-14.1-1.727,1.727-3.05-3.05,1.728-1.728a2.157,2.157,0,0,1,3.049,3.05Z" transform="translate(0 -21.333)"/></g></g></g></svg>