<svg xmlns="http://www.w3.org/2000/svg" width="27.867" height="38" viewBox="0 0 27.867 38"><defs><style>.a{fill:#3b3b3b;}</style></defs><path class="a" d="M87.433,0h-19A4.438,4.438,0,0,0,64,4.433V33.567A4.438,4.438,0,0,0,68.433,38h19a4.438,4.438,0,0,0,4.433-4.433V4.433A4.438,4.438,0,0,0,87.433,0Zm-19,1.267h19a3.172,3.172,0,0,1,3.1,2.533H65.33A3.172,3.172,0,0,1,68.433,1.267ZM90.6,33.567a3.17,3.17,0,0,1-3.167,3.167h-19a3.17,3.17,0,0,1-3.167-3.167v-1.9H90.6Zm0-3.167H65.267V5.067H90.6Z" transform="translate(-64)"/></svg>