<svg xmlns="http://www.w3.org/2000/svg" width="268.006" height="210.4" viewBox="0 0 268.006 210.4"><defs><style>.a{fill:#f2f2f2;}</style></defs><g transform="translate(-826 -363)"><path class="a" d="M223.3,124.744a92.117,92.117,0,0,0-181.22,15.743,50.246,50.246,0,0,0,8.374,99.822H92.324V223.56H50.452a33.5,33.5,0,0,1,0-66.994,8.374,8.374,0,0,0,8.374-8.374A75.369,75.369,0,0,1,208.14,133.536a8.375,8.375,0,0,0,7.118,6.7,41.871,41.871,0,0,1-5.695,83.324h-33.5v16.749h33.5A58.62,58.62,0,0,0,223.3,124.744Z" transform="translate(826 307.968)"/><path class="a" d="M214.532,251.446l-33.5,33.5,11.808,11.808L212.1,277.574v80.309h16.749V277.574l19.177,19.177,11.808-11.808-33.5-33.5A8.374,8.374,0,0,0,214.532,251.446Z" transform="translate(739.718 215.516)"/></g></svg>