<svg xmlns="http://www.w3.org/2000/svg" width="31.146" height="32.584" viewBox="0 0 31.146 32.584"><defs><style>.a{fill:#d6d6d6;}</style></defs><g transform="translate(0 16.334)"><g transform="translate(0)"><path class="a" d="M26.9,257.323A15.591,15.591,0,0,0,11.328,272.9a.677.677,0,0,0,1.354,0,14.219,14.219,0,1,1,28.437,0,.677.677,0,0,0,1.354,0A15.59,15.59,0,0,0,26.9,257.323Z" transform="translate(-11.328 -257.323)"/></g></g><g transform="translate(8.125)"><g transform="translate(0)"><path class="a" d="M146.776,0a7.448,7.448,0,1,0,7.448,7.448A7.457,7.457,0,0,0,146.776,0Zm0,13.542a6.094,6.094,0,1,1,6.094-6.094A6.1,6.1,0,0,1,146.776,13.542Z" transform="translate(-139.328)"/></g></g></svg>