<svg xmlns="http://www.w3.org/2000/svg" width="38.663" height="40.449" viewBox="0 0 38.663 40.449"><defs><style>.a{fill:#3b3b3b;}</style></defs><g transform="translate(0 20.276)"><g transform="translate(0)"><path class="a" d="M30.66,257.323a19.354,19.354,0,0,0-19.332,19.332.841.841,0,0,0,1.681,0,17.651,17.651,0,1,1,35.3,0,.841.841,0,0,0,1.681,0A19.353,19.353,0,0,0,30.66,257.323Z" transform="translate(-11.328 -257.323)"/></g></g><g transform="translate(10.086)"><g transform="translate(0)"><path class="a" d="M148.574,0a9.246,9.246,0,1,0,9.246,9.246A9.256,9.256,0,0,0,148.574,0Zm0,16.81a7.565,7.565,0,1,1,7.565-7.565A7.574,7.574,0,0,1,148.574,16.81Z" transform="translate(-139.328)"/></g></g></svg>