<svg xmlns="http://www.w3.org/2000/svg" width="296.647" height="163.669" viewBox="0 0 296.647 163.669">
  <g id="welcome-image" transform="translate(0 0)">
    <g id="Group_1854" data-name="Group 1854">
      <g id="Group_1831" data-name="Group 1831" transform="translate(33.691 75.333)">
        <path id="Path_6736" data-name="Path 6736" d="M233.816,376.368s-4.2,4.314-8.448,9.093c-1.777,1.994-3.561,4.067-5.047,5.938-5.054,6.352-9.8,8.136-15.409,14.364-3.434,3.815-7.969,6.751-16.446,8.108s-39.4,3.56-39.4,3.56-.776-4.1-.232-5.4c.145-.348-.218-1.153-.718-2.154-1.349-2.719-3.655-6.881.718-7.381,5.982-.689,34.987-7.709,36.379-9.833s9.231-11.813,13.458-20.666S209.242,352.37,215.7,341.86c5.686-9.251,7.28-9.746,10.348-12.414l3.567,21.572Z" transform="translate(-114.365 -329.446)" fill="#6d9bff"/>
        <path id="Path_6737" data-name="Path 6737" d="M124.555,441.305H103.949v-.883a10.3,10.3,0,0,1,10.3-10.3h0a10.3,10.3,0,0,1,10.3,10.3Z" transform="translate(-103.949 -354.207)" fill="#a5a5a5"/>
        <path id="Path_6738" data-name="Path 6738" d="M125.683,428.413c-1.678-.636-6.707-2.991-9.426-2.991s-7.252,4.623-9.789,6.889.992,4.358,2.991,3.324c2.085-1.078,4.053-3.68,6.047-3.6s2.836,1.815,3.924,2.178c.544.182.839,1.632-.182,2.357s-3.356.725-3.991,1.133c-1.269.816-.453,3.03,1.722,3.03a30.813,30.813,0,0,0,6.62-.265c2.6-.493,5.782.21,7.785-.6s7.677,1.17,7.677,1.17l-4.042-11.086S128.91,429.635,125.683,428.413Z" transform="translate(-104.351 -353.052)" fill="#fdd2bb"/>
        <path id="Path_6739" data-name="Path 6739" d="M134.162,428.634c.422,1.656,1.485,2.784,2.357,5.317,1.9,5.534-.513,6.586-.513,6.586s10.564.723,12.412,0c0,0,2.563-2.846,0-8.532l-2.563-5.686A54.556,54.556,0,0,0,139.6,427,14.263,14.263,0,0,0,134.162,428.634Z" transform="translate(-111.38 -353.273)" fill="#2c5cff"/>
      </g>
      <g id="Group_1835" data-name="Group 1835" transform="translate(144.614)">
        <g id="Group_1834" data-name="Group 1834" transform="translate(16.654)">
          <path id="Path_6740" data-name="Path 6740" d="M315.882,280.1a47.907,47.907,0,0,0-2.319,11.547c-.2,5.346-.2,12.731,1.363,15.584s18.111,12.5,18.111,12.5-18.766,3.889-37.342,2.789-22.556-9.01-22.556-9.01,14.107-5.535,14.487-6.937,3.122-12.092,3.122-12.092Z" transform="translate(-273.139 -241.976)" fill="#f6c1aa"/>
          <path id="Path_6741" data-name="Path 6741" d="M314.534,306.311c-1.163-3.3-1.148-9.815-.97-14.662a47.907,47.907,0,0,1,2.319-11.547l-25.133,14.383s-2.742,10.69-3.122,12.092-14.487,6.937-14.487,6.937a5.4,5.4,0,0,0,.495.744C287.328,311.917,300.943,309.176,314.534,306.311Z" transform="translate(-273.139 -241.976)" fill="#eb9271" opacity="0.28"/>
          <g id="Group_1833" data-name="Group 1833" transform="translate(7.744)">
            <path id="Path_6742" data-name="Path 6742" d="M286.331,269.21c.574-4.484.732-20.631.732-20.631l21.621-7.618L327.575,251.5s-4.532,14.331-4.606,18.85-.381,10.569-3.206,14.89-10.192,11.026-11.928,11.823c-5.2,2.39-8.606.771-12.522-1.528-1.646-.967-3.922-5.848-6.1-10.529S285.757,273.694,286.331,269.21Z" transform="translate(-284.094 -232.349)" fill="#fdd2bb"/>
            <path id="Path_6743" data-name="Path 6743" d="M319.6,255.2s.051,5.791,1.589,9.591c.295.729.107,3.011-.256,5.737q1.157-1.3,2.365-2.573c1.561-1.634,3.011-3.332,4.385-5.081.808-3.29,2.24-7.761,2.19-10.307-.154-7.743-.145-12.085-14.351-19.016-2.7-1.315-8.191-4.866-11-3.814-4.187,1.567-5.439,3.092-8.743,5.906,0,0-4.451-.893-10,5.1-3.276,3.54-2.273,8.652-2.081,12.505.389,7.835,2.466,7.412,2.466,7.412.323-3.985-.357-5.647.83-11.661.4-2.034,3.423-2.708,5.481-3.144,1.981-.419,2.663-1.183,9.223,5.324C305.588,255.029,307.713,254.7,319.6,255.2Z" transform="translate(-283.409 -229.54)" fill="#5c3000"/>
            <g id="Group_1832" data-name="Group 1832" transform="translate(36.405 31.161)">
              <path id="Path_6744" data-name="Path 6744" d="M331.98,277.546c1.045-3.906,2.724-6.817,4.493-6.676s3.56,3.4,1.366,7.1a71.259,71.259,0,0,1-4.789,7.422C331.869,286.872,331.3,280.083,331.98,277.546Z" transform="translate(-331.688 -270.865)" fill="#fdd2bb"/>
              <path id="Path_6745" data-name="Path 6745" d="M333.5,278.874c.63-2.129,1.559-4.762,3.134-4.574s1.825,1.9-.351,4.869a18.125,18.125,0,0,0-2.662,4.521S333.154,280.029,333.5,278.874Z" transform="translate(-332.102 -271.708)" fill="#eb9271"/>
            </g>
          </g>
        </g>
        <path id="Path_6746" data-name="Path 6746" d="M294.272,367.759c-2.364,13.72-3.423,47.438-9.195,44.9-3.162-1.4-13-1.348-21.238-1.029-6.773.268-12.465.725-12.465.725s-.391-15.235-.239-30.8c.065-7.433.261-14.938.682-20.891q.206-2.937.283-5.634c.529-17.381-2.364-27.489-.283-29.491,2.3-2.212,28.577-8.846,29.846-11.965l1.943,9.3c4.815,7.672,11.066,5.373,11.066,5.373S296.628,354.047,294.272,367.759Z" transform="translate(-251.053 -250.21)" fill="#6d9bff"/>
        <path id="Path_6747" data-name="Path 6747" d="M297.332,333.689c-1.271,7.605-1.618,13.554-3.8,28.164s-1.158,20.645-2.108,29.84-2.785,22.814-2.785,22.814l15.762,2.3s.53-26.394,1.353-44.973a284.127,284.127,0,0,1,3.9-35.062l2.11-11.278s-5.827,6.2-11.85,5.558S297.332,333.689,297.332,333.689Z" transform="translate(-260.297 -253.142)" fill="#2c5cff"/>
        <path id="Path_6748" data-name="Path 6748" d="M346.847,342.046c-.58,5.642,2.053,12.668.827,20.55-.82,5.257-1.9,11.667-3.017,18.128-1.58,9.107-.71,32.21-.71,32.21s-35.995-1.247-42.072.442-2.284-31.833-2.653-45.748,5.264-39.157,5.264-39.157,4.677-.022,11.849-5.562a13.981,13.981,0,0,0,5.191-7.918c.812,3.263,25.306,10.652,27.264,13.169a4.5,4.5,0,0,1,.682,2.117s.007,0,.007.007C349.821,332.714,347.384,336.775,346.847,342.046Z" transform="translate(-262.696 -250.558)" fill="#6d9bff"/>
        <path id="Path_6749" data-name="Path 6749" d="M306.471,327.657c2.181-.606,9.5-4.659,12.2-8.281a20.992,20.992,0,0,0,3.481-7.7s2.575,4.163,2.845,6.778-5.846,15.456-7.02,19.035c0,0-1.958-.369-5.55-3.491A43.678,43.678,0,0,1,306.471,327.657Z" transform="translate(-264.684 -249.743)" fill="#2c5cff"/>
        <path id="Path_6750" data-name="Path 6750" d="M291.6,312.994s-1.209,1.8,1.522,6.27,8.685,8.717,8.685,8.717l-9.683,9.379a106.989,106.989,0,0,1-3.626-10.393c-1.332-4.829-1.167-9.952-.45-11.427S291.6,312.994,291.6,312.994Z" transform="translate(-260.017 -250.066)" fill="#2c5cff"/>
        <path id="Path_6751" data-name="Path 6751" d="M308.672,359.456a2.537,2.537,0,1,1-2.349-2.713A2.538,2.538,0,0,1,308.672,359.456Z" transform="translate(-263.978 -260.825)" fill="#2c5cff"/>
        <path id="Path_6752" data-name="Path 6752" d="M306.081,395.419a2.537,2.537,0,1,1-2.349-2.713A2.538,2.538,0,0,1,306.081,395.419Z" transform="translate(-263.341 -269.671)" fill="#2c5cff"/>
        <path id="Path_6753" data-name="Path 6753" d="M303.491,431.382a2.538,2.538,0,1,1-2.349-2.714A2.538,2.538,0,0,1,303.491,431.382Z" transform="translate(-262.704 -278.516)" fill="#2c5cff"/>
        <path id="Path_6754" data-name="Path 6754" d="M323.231,373.627c6.282.529,13.155,1.256,15.752,1.005v3.975s-6.29-.681-11.726-.681h-7.869l.685-4.3S319.988,373.354,323.231,373.627Z" transform="translate(-267.861 -264.95)" fill="#2c5cff"/>
      </g>
      <g id="Group_1840" data-name="Group 1840" transform="translate(116.267 156.722)">
        <g id="Group_1836" data-name="Group 1836" transform="translate(0 1.682)">
          <rect id="Rectangle_1494" data-name="Rectangle 1494" width="34.502" height="4.031" fill="#e9ebee"/>
          <rect id="Rectangle_1495" data-name="Rectangle 1495" width="34.502" height="4.031" fill="none"/>
        </g>
        <g id="Group_1837" data-name="Group 1837" transform="translate(34.502 1.682)">
          <rect id="Rectangle_1496" data-name="Rectangle 1496" width="44.474" height="4.031" fill="#e9ebee"/>
          <rect id="Rectangle_1497" data-name="Rectangle 1497" width="44.474" height="4.031" fill="none"/>
        </g>
        <g id="Group_1838" data-name="Group 1838" transform="translate(5.814)">
          <path id="Path_6755" data-name="Path 6755" d="M262.361,437.383v1.682h6.209v-1.682h-6.209Z" transform="translate(-231.302 -437.383)" fill="#d5d5d7"/>
          <path id="Path_6756" data-name="Path 6756" d="M252.064,437.383v1.682h6.209v-1.682h-6.209Z" transform="translate(-228.769 -437.383)" fill="#d5d5d7"/>
          <path id="Path_6757" data-name="Path 6757" d="M241.766,437.383v1.682h6.209v-1.682h-6.209Z" transform="translate(-226.236 -437.383)" fill="#d5d5d7"/>
          <path id="Path_6758" data-name="Path 6758" d="M231.468,437.383v1.682h6.209v-1.682h-6.209Z" transform="translate(-223.703 -437.383)" fill="#d5d5d7"/>
          <path id="Path_6759" data-name="Path 6759" d="M306.353,437.383h-2.161v1.682H310.4v-1.682Z" transform="translate(-241.59 -437.383)" fill="#d5d5d7"/>
          <path id="Path_6760" data-name="Path 6760" d="M293.9,437.383v1.682H300.1v-1.682H293.9Z" transform="translate(-239.058 -437.383)" fill="#d5d5d7"/>
          <path id="Path_6761" data-name="Path 6761" d="M283.6,437.383v1.682h6.209v-1.682H283.6Z" transform="translate(-236.525 -437.383)" fill="#d5d5d7"/>
          <path id="Path_6762" data-name="Path 6762" d="M273.3,437.383v1.682h6.209v-1.682H273.3Z" transform="translate(-233.992 -437.383)" fill="#d5d5d7"/>
          <path id="Path_6763" data-name="Path 6763" d="M221.17,437.383v1.682h6.209v-1.682H221.17Z" transform="translate(-221.17 -437.383)" fill="#d5d5d7"/>
        </g>
        <g id="Group_1839" data-name="Group 1839" transform="translate(5.814)">
          <path id="Path_6764" data-name="Path 6764" d="M262.361,437.383v1.682h6.209v-1.682h-6.209Z" transform="translate(-231.302 -437.383)" fill="none"/>
          <path id="Path_6765" data-name="Path 6765" d="M252.064,437.383v1.682h6.209v-1.682h-6.209Z" transform="translate(-228.769 -437.383)" fill="none"/>
          <path id="Path_6766" data-name="Path 6766" d="M241.766,437.383v1.682h6.209v-1.682h-6.209Z" transform="translate(-226.236 -437.383)" fill="none"/>
          <path id="Path_6767" data-name="Path 6767" d="M231.468,437.383v1.682h6.209v-1.682h-6.209Z" transform="translate(-223.703 -437.383)" fill="none"/>
          <path id="Path_6768" data-name="Path 6768" d="M306.353,437.383h-2.161v1.682H310.4v-1.682Z" transform="translate(-241.59 -437.383)" fill="none"/>
          <path id="Path_6769" data-name="Path 6769" d="M293.9,437.383v1.682H300.1v-1.682H293.9Z" transform="translate(-239.058 -437.383)" fill="none"/>
          <path id="Path_6770" data-name="Path 6770" d="M283.6,437.383v1.682h6.209v-1.682H283.6Z" transform="translate(-236.525 -437.383)" fill="none"/>
          <path id="Path_6771" data-name="Path 6771" d="M273.3,437.383v1.682h6.209v-1.682H273.3Z" transform="translate(-233.992 -437.383)" fill="none"/>
          <path id="Path_6772" data-name="Path 6772" d="M221.17,437.383v1.682h6.209v-1.682H221.17Z" transform="translate(-221.17 -437.383)" fill="none"/>
        </g>
      </g>
      <g id="Group_1845" data-name="Group 1845" transform="translate(0 49.391)">
        <g id="Group_1841" data-name="Group 1841" transform="translate(2.306)">
          <path id="Path_6773" data-name="Path 6773" d="M187.476,295.042H65.583a3.2,3.2,0,0,0-3.237,3.61l8.54,82.556a4.1,4.1,0,0,0,3.984,3.61H196.763a3.2,3.2,0,0,0,3.237-3.61l-8.54-82.556A4.1,4.1,0,0,0,187.476,295.042Z" transform="translate(-62.326 -295.042)" fill="#fafcff"/>
        </g>
        <g id="Group_1842" data-name="Group 1842" transform="translate(2.306)">
          <path id="Path_6774" data-name="Path 6774" d="M187.476,295.042H65.583a3.2,3.2,0,0,0-3.237,3.61l8.54,82.556a4.1,4.1,0,0,0,3.984,3.61H196.763a3.2,3.2,0,0,0,3.237-3.61l-8.54-82.556A4.1,4.1,0,0,0,187.476,295.042Z" transform="translate(-62.326 -295.042)" fill="#6b6b6b"/>
        </g>
        <path id="Path_6775" data-name="Path 6775" d="M184.465,295.042H62.571a3.25,3.25,0,0,0-3.289,3.61l7.344,82.556a4.026,4.026,0,0,0,3.931,3.61H192.451a3.25,3.25,0,0,0,3.289-3.61L188.4,298.652A4.027,4.027,0,0,0,184.465,295.042Z" transform="translate(-59.268 -295.042)" fill="#d5d5d7"/>
        <g id="Group_1843" data-name="Group 1843" transform="translate(102.535 73.484)" style="mix-blend-mode: multiply;isolation: isolate">
          <path id="Path_6776" data-name="Path 6776" d="M197.411,402.127h0a1.592,1.592,0,0,1-1.554-1.427l-.6-6.777a1.285,1.285,0,0,1,1.3-1.427h0a1.592,1.592,0,0,1,1.554,1.427l.6,6.777A1.285,1.285,0,0,1,197.411,402.127Z" transform="translate(-195.249 -392.496)" fill="#e9ebee"/>
          <path id="Path_6777" data-name="Path 6777" d="M203.4,402.127h0a1.592,1.592,0,0,1-1.554-1.427l-.6-6.777a1.284,1.284,0,0,1,1.3-1.427h0a1.591,1.591,0,0,1,1.553,1.427l.6,6.777A1.284,1.284,0,0,1,203.4,402.127Z" transform="translate(-196.723 -392.496)" fill="#e9ebee"/>
          <path id="Path_6778" data-name="Path 6778" d="M209.4,402.127h0a1.592,1.592,0,0,1-1.554-1.427l-.6-6.777a1.284,1.284,0,0,1,1.3-1.427h0a1.591,1.591,0,0,1,1.553,1.427l.6,6.777A1.284,1.284,0,0,1,209.4,402.127Z" transform="translate(-198.196 -392.496)" fill="#e9ebee"/>
          <path id="Path_6779" data-name="Path 6779" d="M215.388,402.127h0a1.592,1.592,0,0,1-1.554-1.427l-.6-6.777a1.284,1.284,0,0,1,1.3-1.427h0a1.591,1.591,0,0,1,1.553,1.427l.6,6.777A1.284,1.284,0,0,1,215.388,402.127Z" transform="translate(-199.67 -392.496)" fill="#e9ebee"/>
          <path id="Path_6780" data-name="Path 6780" d="M221.38,402.127h0a1.591,1.591,0,0,1-1.553-1.427l-.6-6.777a1.284,1.284,0,0,1,1.3-1.427h0a1.592,1.592,0,0,1,1.554,1.427l.6,6.777A1.284,1.284,0,0,1,221.38,402.127Z" transform="translate(-201.144 -392.496)" fill="#e9ebee"/>
        </g>
        <g id="Group_1844" data-name="Group 1844" transform="translate(47.812 44.888)">
          <path id="Path_6781" data-name="Path 6781" d="M181.89,441.1H164.9v3.191l16.993.526Z" transform="translate(-133.061 -375.855)" fill="#6b6b6b"/>
          <path id="Path_6782" data-name="Path 6782" d="M149.1,405.491l4.336-50.919H134.728l-8.106,50.407c-1.1,5.827.7,12,4.326,14.81l4.156,3.22h23.034l-.412-3.19A13.122,13.122,0,0,1,149.1,405.491Z" transform="translate(-123.567 -354.572)" fill="#6b6b6b"/>
          <path id="Path_6783" data-name="Path 6783" d="M145.48,405.491l4.336-50.919H131.1L123,404.979c-1.1,5.827.7,12,4.326,14.81l4.156,3.22h23.034l-4.57-3.541C146.51,416.808,144.687,411.1,145.48,405.491Z" transform="translate(-122.676 -354.572)" fill="#a5a5a5"/>
          <path id="Path_6784" data-name="Path 6784" d="M146.035,431.657h-22.7a12.607,12.607,0,0,0,4.148,7.092l4.156,3.22h23.034l-4.57-3.541A12.44,12.44,0,0,1,146.035,431.657Z" transform="translate(-122.839 -373.531)" fill="#6b6b6b"/>
        </g>
      </g>
      <g id="Group_1848" data-name="Group 1848" transform="translate(166.17 75.783)">
        <path id="Path_6785" data-name="Path 6785" d="M391.619,405.6s-7.048-3.865-12.66-6.41-13.864,2.031-13.864,2.031-1.015-2.61-2.422-5.989c-1.428-3.444-3.27-7.694-4.873-10.8a19.253,19.253,0,0,0-2.4-3.872c-2.842-2.987-2.581-6.57-3.371-8.31a1.4,1.4,0,0,1-.08-.231c-.587-2.241.971-11.479,2.748-19.825,1.842-8.665,4.191-22.145,4.191-22.145.863.718,3.677,1.406,5.235,3.212,0,0,10.219,15.541,14.546,26.256,7.853,19.445,9.122,23.479,10.442,30.644S391.619,405.6,391.619,405.6Z" transform="translate(-297.394 -330.042)" fill="#6d9bff"/>
        <g id="Group_1847" data-name="Group 1847" transform="translate(0 55.827)">
          <g id="Group_1846" data-name="Group 1846" transform="translate(0 14.87)">
            <path id="Path_6786" data-name="Path 6786" d="M288.126,433.509c6.017-1.219,10.51,1.738,14.263,1.974s17.237-1.212,17.237-1.212l-3.006-6.921s-15.362-.293-20.582,1.449A19.767,19.767,0,0,0,288.126,433.509Z" transform="translate(-281.727 -424.668)" fill="#fdd2bb"/>
            <path id="Path_6787" data-name="Path 6787" d="M317.593,425.537a119.1,119.1,0,0,0-11.86-1.514c-6.5-.188-13.812-.156-15.3,1.076s-9.261,10.022-10.3,11.469-.546,3.091,2.693,1.948,8.606-7.322,11.862-8.772,9.3-.2,9.3-.2l11.978-1.148Z" transform="translate(-279.64 -423.833)" fill="#fdd2bb"/>
            <path id="Path_6788" data-name="Path 6788" d="M308.2,424.284c-9.591,2.312-18.9,5.541-26.977,11.015-.523.621-.914,1.1-1.1,1.354-1.044,1.447-.546,3.092,2.693,1.948s8.606-7.322,11.862-8.773,9.3-.2,9.3-.2l11.978-1.148,1.631-2.862S312.258,424.688,308.2,424.284Z" transform="translate(-279.64 -423.919)" fill="#eb9271" opacity="0.28"/>
            <path id="Path_6789" data-name="Path 6789" d="M311.164,426.036s-11.136-.767-14.058-1.084-5.192,2.133-6.823,5-4.944,7.827-4.23,9.3,2.537,1.348,4.1-.289,3.625-5.837,5.826-6.635,9.558-2.537,9.558-2.537Z" transform="translate(-281.193 -424.076)" fill="#fdd2bb"/>
            <path id="Path_6790" data-name="Path 6790" d="M298.523,428.119c-4.612,1.932-8.674,12.7-7.111,11.068s3.625-5.837,5.826-6.635,9.557-2.537,9.557-2.537l5.627-3.754s-2.784-.192-5.934-.423A34.623,34.623,0,0,0,298.523,428.119Z" transform="translate(-282.452 -424.3)" fill="#eb9271" opacity="0.28"/>
            <path id="Path_6791" data-name="Path 6791" d="M333.036,435.721s-5.731-.407-7.729,1.568-4.072,2.88-5.995,2.632-5.407-1.983-7.005-2.941-6.7,2.307-8.325,3.1a1.69,1.69,0,0,1-2.307-2.353,9.754,9.754,0,0,1,3.838-4.079,61.1,61.1,0,0,1,7.178-2.141s-.038-.008-.106-.015a.232.232,0,0,1-.068-.008,32.414,32.414,0,0,0-5.037-.264c-1.976.136-4.027,1.35-5.844,3.763s-3.763,5.15-4.8,5.595a.865.865,0,0,1-.988-.271c-.641-.648-.988-2.209-.083-4.147,1.32-2.835,4.818-7.359,6.643-9.622s4.562-2.458,7.148-2.549,8.619-.068,8.619-.068,6.666-.158,10.315-.113C330.691,423.837,333.036,435.721,333.036,435.721Z" transform="translate(-283.473 -423.799)" fill="#fdd2bb"/>
            <path id="Path_6792" data-name="Path 6792" d="M338.149,423.809c-.8-.01-1.746-.009-2.733,0a84.169,84.169,0,0,1-.957,13.941c.167-.149.333-.293.5-.457,2-1.972,7.732-1.565,7.732-1.565S340.343,423.835,338.149,423.809Z" transform="translate(-293.123 -423.8)" fill="#eb9271" opacity="0.28"/>
            <path id="Path_6793" data-name="Path 6793" d="M312.9,433.37s-.038-.008-.106-.015a.234.234,0,0,1-.068-.008,32.423,32.423,0,0,0-5.037-.264c-1.976.136-4.027,1.35-5.844,3.763s-3.763,5.15-4.8,5.595a.865.865,0,0,1-.988-.271,68.677,68.677,0,0,0,4.984-7.767c1.508-2.556,5.919-2.994,6.975-3.024S312.9,433.37,312.9,433.37Z" transform="translate(-283.679 -425.664)" fill="#eb9271" opacity="0.28"/>
          </g>
          <path id="Path_6794" data-name="Path 6794" d="M366.741,408.753a46.113,46.113,0,0,1-13.479,6.761,115.528,115.528,0,0,1-13.909,3.444s.633,7.087.848,14.484c0,0,18.853,2.978,31.133.587s15.361-2,17.428-7.332-1.344-15.825-2.922-20.441C384.267,401.658,374.4,405.24,366.741,408.753Z" transform="translate(-294.327 -404.079)" fill="#6d9bff"/>
          <path id="Path_6795" data-name="Path 6795" d="M336.432,423.421c2.021,2.7,1.982,6.786,2.471,12.415.343,3.942-.989,3.831-.989,3.831l10.315-.317a27.462,27.462,0,0,0-.47-11.458l-1.629-5.493Z" transform="translate(-293.609 -408.585)" fill="#2c5cff"/>
        </g>
      </g>
      <g id="Group_1853" data-name="Group 1853" transform="translate(260.88 105.251)">
        <g id="Group_1849" data-name="Group 1849" transform="translate(10.385 8.335)">
          <path id="Path_6796" data-name="Path 6796" d="M419.056,406.5a4.2,4.2,0,0,1,2.938-3.322c1.111-.313,2.447-.209,3.232-1.054.873-.939.512-2.42.494-3.7a6.275,6.275,0,0,1,4.087-5.85c1.05-.368,2.244-.473,3.081-1.2a6.28,6.28,0,0,0,1.452-3.055,14.269,14.269,0,0,1,4.861-7.006,3.9,3.9,0,0,1,3.314-1.036,2.75,2.75,0,0,1,1.781,2.023,4.864,4.864,0,0,1-.259,2.77c-1.236,3.417-4.707,5.79-5.463,9.343-.375,1.758-.027,3.612-.415,5.367a6.639,6.639,0,0,1-3.786,4.587,5.792,5.792,0,0,0-2.61,1.445c-.688.935-.443,2.227-.591,3.379a5.527,5.527,0,0,1-5.186,4.5,7.4,7.4,0,0,1-6.271-3.391A9.21,9.21,0,0,1,419.056,406.5Z" transform="translate(-419.016 -380.177)" fill="#4bbd6d"/>
        </g>
        <g id="Group_1850" data-name="Group 1850" transform="translate(11.712)">
          <path id="Path_6797" data-name="Path 6797" d="M431.036,401.318a3.821,3.821,0,0,0,.434-4.017c-.471-.94-1.36-1.776-1.274-2.824.1-1.164,1.315-1.829,2.19-2.6a5.717,5.717,0,0,0,1.43-6.341c-1.908-4.487,2.2-8.474,1.819-13.24a3.551,3.551,0,0,0-1.337-2.867,2.506,2.506,0,0,0-2.455.042,4.424,4.424,0,0,0-1.706,1.876c-1.251,2.376-1.307,4.988-2.145,7.473-.794,2.353-2.76,3.539-4.152,5.513a6.049,6.049,0,0,0-.765,5.364,5.29,5.29,0,0,1,.629,2.644c-.207,1.037-1.228,1.666-1.912,2.472a5.033,5.033,0,0,0,.154,6.252,6.736,6.736,0,0,0,6.132,2.141A8.382,8.382,0,0,0,431.036,401.318Z" transform="translate(-420.776 -369.123)" fill="#44ab63"/>
        </g>
        <g id="Group_1851" data-name="Group 1851" transform="translate(0 12.468)">
          <path id="Path_6798" data-name="Path 6798" d="M425.991,408.2a3.515,3.515,0,0,0-2.392-2.846c-.924-.287-2.046-.227-2.686-.952-.712-.805-.379-2.039-.336-3.113a5.26,5.26,0,0,0-3.3-4.989,7.411,7.411,0,0,1-2.557-1.074,5.269,5.269,0,0,1-1.152-2.591,11.966,11.966,0,0,0-3.925-5.974,3.267,3.267,0,0,0-2.755-.938,2.307,2.307,0,0,0-1.536,1.657,4.076,4.076,0,0,0,.159,2.328c.964,2.889,3.822,4.951,4.381,7.945.277,1.482-.053,3.027.235,4.507a5.564,5.564,0,0,0,3.076,3.923,4.859,4.859,0,0,1,2.157,1.266c.557.8.324,1.877.425,2.844a4.632,4.632,0,0,0,4.25,3.879,6.2,6.2,0,0,0,5.327-2.709A7.722,7.722,0,0,0,425.991,408.2Z" transform="translate(-405.244 -385.658)" fill="#44ab63"/>
        </g>
        <g id="Group_1852" data-name="Group 1852" transform="translate(5.886 0.707)">
          <path id="Path_6799" data-name="Path 6799" d="M414.988,397.7a25.081,25.081,0,0,0-1.54-2.851,6.973,6.973,0,0,1,.462-5.548c.579-1.3,1.35-2.605,1.255-4.022a11.422,11.422,0,0,0-.725-2.568,17.472,17.472,0,0,1-.366-6.326,11.716,11.716,0,0,1,.668-3.794,3.967,3.967,0,0,1,2.756-2.487c1.74-.317,3.436,1.05,4.086,2.694a10.893,10.893,0,0,1,.3,5.241,13.5,13.5,0,0,0,.052,5.267c.557,1.93,1.991,3.486,2.755,5.345a8.348,8.348,0,0,1-.452,7.177,17.963,17.963,0,0,0-1.867,3.245c-.791,2.508.8,5.094,1.127,7.7a6.015,6.015,0,0,1-1.258,4.692c-2.519,2.868-6.656.884-7.568-2.332a14.12,14.12,0,0,1-.747-5.5C414.214,401.675,415.583,399.736,414.988,397.7Z" transform="translate(-413.05 -370.06)" fill="#4bbd6d"/>
        </g>
        <path id="Path_6800" data-name="Path 6800" d="M431.289,436.618H414.675l-5.485-26.652h27.583Z" transform="translate(-406.214 -379.168)" fill="#d5d5d7"/>
      </g>
    </g>
  </g>
</svg>
