<svg xmlns="http://www.w3.org/2000/svg" width="41.081" height="36.289" viewBox="0 0 41.081 36.289"><defs><style>.a{fill:#fff;}</style></defs><g transform="translate(-0.001 -20.566)"><path class="a" d="M39.288,20.844c-1.854-1-3.921.927-5.134,2.068-2.781,2.709-5.133,5.847-7.772,8.7-2.923,3.137-5.633,6.274-8.627,9.34a25.724,25.724,0,0,0-4.706,5.7c-2.567-2.5-4.777-5.2-7.629-7.415C3.353,37.671-.07,36.53,0,40.309c.143,4.92,4.492,10.2,7.7,13.547,1.355,1.426,3.137,2.923,5.2,2.995,2.5.143,5.062-2.852,6.56-4.492,2.638-2.852,4.777-6.061,7.2-8.984,3.137-3.85,6.346-7.629,9.412-11.551C38,29.4,44.065,23.411,39.288,20.844ZM3.139,40.024a.54.54,0,0,0-.285.071,3.47,3.47,0,0,1-.784-.285h0Q2.39,39.6,3.139,40.024Z" transform="translate(0)"/></g></svg>